<svg xmlns="http://www.w3.org/2000/svg" viewBox="0 0 1629.7 1430.12"><defs><style>.cls-1,.cls-12,.cls-16{fill:none;}.cls-2{fill:#2e2946;stroke:#2e2946;}.cls-10,.cls-12,.cls-15,.cls-16,.cls-17,.cls-2,.cls-3,.cls-4,.cls-5,.cls-6,.cls-7,.cls-8,.cls-9{stroke-miterlimit:10;}.cls-3{fill:#b2eaff;stroke:#b2eaff;}.cls-4{fill:#d1e1e0;stroke:#d1e1e0;}.cls-11,.cls-5{fill:#fff;}.cls-12,.cls-5{stroke:#fff;}.cls-6{fill:#9cb6b5;stroke:#9cb6b5;}.cls-10,.cls-7{fill:#cd1731;}.cls-7{stroke:#cd1731;}.cls-8{fill:#e2f5fa;stroke:#e2f5fa;}.cls-13,.cls-9{fill:#17b1ff;}.cls-9{stroke:#17b1ff;}.cls-10,.cls-16{stroke:#000;}.cls-10{stroke-width:0.25px;}.cls-14{fill:#2ebeff;}.cls-15{fill:#15b097;stroke:#15b097;}.cls-17{fill:#71f79f;stroke:#71f79f;}</style></defs><title>Asset 5</title><g id="Layer_2" data-name="Layer 2"><g id="Layer_1-2" data-name="Layer 1"><rect class="cls-1" x="0.5" y="0.5" width="1628.7" height="1429.12"/><rect class="cls-2" x="197.28" y="0.5" width="1324.64" height="1234.49"/><rect class="cls-3" x="0.5" y="1209.76" width="1628.7" height="219.86"/><polygon class="cls-4" points="1453.58 1218.66 1453.58 789.73 1590.25 690.91 1590.25 1218.66 1453.58 1218.66"/><rect class="cls-5" x="1473.55" y="809.71" width="18.92" height="39.95" rx="5.31" ry="5.31"/><rect class="cls-5" x="1512.45" y="809.71" width="18.92" height="39.95" rx="5.31" ry="5.31"/><rect class="cls-5" x="1551.96" y="809.71" width="18.92" height="39.95" rx="5.31" ry="5.31"/><rect class="cls-5" x="1473.55" y="870.68" width="18.92" height="39.95" rx="5.31" ry="5.31"/><rect class="cls-5" x="1512.45" y="870.68" width="18.92" height="39.95" rx="5.31" ry="5.31"/><rect class="cls-5" x="1551.96" y="870.68" width="18.92" height="39.95" rx="5.31" ry="5.31"/><rect class="cls-5" x="1473.25" y="931.66" width="18.92" height="39.95" rx="5.31" ry="5.31"/><rect class="cls-5" x="1512.15" y="931.66" width="18.92" height="39.95" rx="5.31" ry="5.31"/><rect class="cls-5" x="1551.65" y="931.66" width="18.92" height="39.95" rx="5.31" ry="5.31"/><rect class="cls-5" x="1473.55" y="984.22" width="18.92" height="39.95" rx="5.31" ry="5.31"/><rect class="cls-5" x="1512.45" y="984.22" width="18.92" height="39.95" rx="5.31" ry="5.31"/><rect class="cls-5" x="1551.96" y="984.22" width="18.92" height="39.95" rx="5.31" ry="5.31"/><rect class="cls-5" x="1472.94" y="1045.44" width="18.92" height="39.95" rx="5.31" ry="5.31"/><rect class="cls-5" x="1511.84" y="1045.44" width="18.92" height="39.95" rx="5.31" ry="5.31"/><rect class="cls-5" x="1551.35" y="1045.44" width="18.92" height="39.95" rx="5.31" ry="5.31"/><rect class="cls-5" x="1472.64" y="1106.65" width="18.92" height="39.95" rx="5.31" ry="5.31"/><rect class="cls-5" x="1511.54" y="1106.65" width="18.92" height="39.95" rx="5.31" ry="5.31"/><rect class="cls-5" x="1551.04" y="1106.65" width="18.92" height="39.95" rx="5.31" ry="5.31"/><path class="cls-5" d="M1508,1218.66v-21.73s17.52-26.06,33.24,0v21.73Z"/><polygon class="cls-4" points="1423.75 1218.66 1423.75 789.73 1287.08 690.91 1287.08 1218.66 1423.75 1218.66"/><rect class="cls-6" x="1384.85" y="809.71" width="18.92" height="39.95" rx="5.31" ry="5.31" transform="translate(2788.63 1659.36) rotate(-180)"/><rect class="cls-6" x="1345.95" y="809.71" width="18.92" height="39.95" rx="5.31" ry="5.31" transform="translate(2710.83 1659.36) rotate(-180)"/><rect class="cls-6" x="1306.45" y="809.71" width="18.92" height="39.95" rx="5.31" ry="5.31" transform="translate(2631.82 1659.36) rotate(-180)"/><rect class="cls-6" x="1384.85" y="870.68" width="18.92" height="39.95" rx="5.31" ry="5.31" transform="translate(2788.63 1781.31) rotate(180)"/><rect class="cls-6" x="1345.95" y="870.68" width="18.92" height="39.95" rx="5.31" ry="5.31" transform="translate(2710.83 1781.31) rotate(-180)"/><rect class="cls-6" x="1306.45" y="870.68" width="18.92" height="39.95" rx="5.31" ry="5.31" transform="translate(2631.82 1781.31) rotate(180)"/><rect class="cls-6" x="1385.16" y="931.66" width="18.92" height="39.95" rx="5.31" ry="5.31" transform="translate(2789.24 1903.26) rotate(180)"/><rect class="cls-6" x="1346.26" y="931.66" width="18.92" height="39.95" rx="5.31" ry="5.31" transform="translate(2711.44 1903.26) rotate(-180)"/><rect class="cls-6" x="1306.75" y="931.66" width="18.92" height="39.95" rx="5.31" ry="5.31" transform="translate(2632.43 1903.26) rotate(180)"/><rect class="cls-6" x="1384.85" y="984.22" width="18.92" height="39.95" rx="5.31" ry="5.31" transform="translate(2788.63 2008.39) rotate(-180)"/><rect class="cls-6" x="1345.95" y="984.22" width="18.92" height="39.95" rx="5.31" ry="5.31" transform="translate(2710.83 2008.39) rotate(180)"/><rect class="cls-6" x="1306.45" y="984.22" width="18.92" height="39.95" rx="5.31" ry="5.31" transform="translate(2631.82 2008.39) rotate(-180)"/><rect class="cls-6" x="1385.46" y="1045.44" width="18.92" height="39.95" rx="5.31" ry="5.31" transform="translate(2789.85 2130.82) rotate(180)"/><rect class="cls-6" x="1346.56" y="1045.44" width="18.92" height="39.95" rx="5.31" ry="5.31" transform="translate(2712.05 2130.82) rotate(-180)"/><rect class="cls-6" x="1307.06" y="1045.44" width="18.92" height="39.95" rx="5.31" ry="5.31" transform="translate(2633.04 2130.82) rotate(-180)"/><rect class="cls-6" x="1385.77" y="1106.65" width="18.92" height="39.95" rx="5.31" ry="5.31" transform="translate(2790.46 2253.26) rotate(180)"/><rect class="cls-6" x="1346.87" y="1106.65" width="18.92" height="39.95" rx="5.31" ry="5.31" transform="translate(2712.66 2253.26) rotate(-180)"/><rect class="cls-6" x="1307.36" y="1106.65" width="18.92" height="39.95" rx="5.31" ry="5.31" transform="translate(2633.65 2253.26) rotate(180)"/><path class="cls-6" d="M1369.34,1218.66v-21.73s-17.52-26.06-33.25,0v21.73Z"/><polygon class="cls-4" points="595.34 1218.66 595.34 789.73 732.01 690.91 732.01 1218.66 595.34 1218.66"/><rect class="cls-5" x="615.32" y="809.71" width="18.92" height="39.95" rx="5.31" ry="5.31"/><rect class="cls-5" x="654.22" y="809.71" width="18.92" height="39.95" rx="5.31" ry="5.31"/><rect class="cls-5" x="693.72" y="809.71" width="18.92" height="39.95" rx="5.31" ry="5.31"/><rect class="cls-5" x="615.32" y="870.68" width="18.92" height="39.95" rx="5.31" ry="5.31"/><rect class="cls-5" x="654.22" y="870.68" width="18.92" height="39.95" rx="5.31" ry="5.31"/><rect class="cls-5" x="693.72" y="870.68" width="18.92" height="39.95" rx="5.31" ry="5.31"/><rect class="cls-5" x="615.01" y="931.66" width="18.92" height="39.95" rx="5.31" ry="5.31"/><rect class="cls-5" x="653.91" y="931.66" width="18.92" height="39.95" rx="5.31" ry="5.31"/><rect class="cls-5" x="693.42" y="931.66" width="18.92" height="39.95" rx="5.31" ry="5.31"/><rect class="cls-5" x="615.32" y="984.22" width="18.92" height="39.95" rx="5.31" ry="5.31"/><rect class="cls-5" x="654.22" y="984.22" width="18.92" height="39.95" rx="5.31" ry="5.31"/><rect class="cls-5" x="693.72" y="984.22" width="18.92" height="39.95" rx="5.31" ry="5.31"/><rect class="cls-5" x="614.71" y="1045.44" width="18.92" height="39.95" rx="5.31" ry="5.31"/><rect class="cls-5" x="653.61" y="1045.44" width="18.92" height="39.95" rx="5.31" ry="5.31"/><rect class="cls-5" x="693.11" y="1045.44" width="18.92" height="39.95" rx="5.31" ry="5.31"/><rect class="cls-5" x="614.4" y="1106.65" width="18.92" height="39.95" rx="5.31" ry="5.31"/><rect class="cls-5" x="653.3" y="1106.65" width="18.92" height="39.95" rx="5.31" ry="5.31"/><rect class="cls-5" x="692.81" y="1106.65" width="18.92" height="39.95" rx="5.31" ry="5.31"/><path class="cls-5" d="M649.76,1218.66v-21.73s17.52-26.06,33.24,0v21.73Z"/><polygon class="cls-4" points="233.36 1215.51 233.36 786.58 96.69 687.75 96.69 1215.51 233.36 1215.51"/><rect class="cls-6" x="194.46" y="806.55" width="18.92" height="39.95" rx="5.31" ry="5.31" transform="translate(407.85 1653.05) rotate(180)"/><rect class="cls-6" x="155.56" y="806.55" width="18.92" height="39.95" rx="5.31" ry="5.31" transform="translate(330.05 1653.05) rotate(180)"/><rect class="cls-6" x="116.06" y="806.55" width="18.92" height="39.95" rx="5.31" ry="5.31" transform="translate(251.03 1653.05) rotate(180)"/><rect class="cls-6" x="194.46" y="867.53" width="18.92" height="39.95" rx="5.31" ry="5.31" transform="translate(407.85 1775) rotate(-180)"/><rect class="cls-6" x="155.56" y="867.53" width="18.92" height="39.95" rx="5.31" ry="5.31" transform="translate(330.05 1775) rotate(180)"/><rect class="cls-6" x="116.06" y="867.53" width="18.92" height="39.95" rx="5.31" ry="5.31" transform="translate(251.03 1775) rotate(180)"/><rect class="cls-6" x="194.77" y="928.5" width="18.92" height="39.95" rx="5.31" ry="5.31" transform="translate(408.46 1896.95) rotate(180)"/><rect class="cls-6" x="155.87" y="928.5" width="18.92" height="39.95" rx="5.31" ry="5.31" transform="translate(330.66 1896.95) rotate(-180)"/><rect class="cls-6" x="116.36" y="928.5" width="18.92" height="39.95" rx="5.31" ry="5.31" transform="translate(251.64 1896.95) rotate(180)"/><rect class="cls-6" x="194.46" y="981.07" width="18.92" height="39.95" rx="5.31" ry="5.31" transform="translate(407.85 2002.08) rotate(180)"/><rect class="cls-6" x="155.56" y="981.07" width="18.92" height="39.95" rx="5.31" ry="5.31" transform="translate(330.05 2002.08) rotate(-180)"/><rect class="cls-6" x="116.06" y="981.07" width="18.92" height="39.95" rx="5.31" ry="5.31" transform="translate(251.03 2002.08) rotate(180)"/><rect class="cls-6" x="195.07" y="1042.28" width="18.92" height="39.95" rx="5.31" ry="5.31" transform="translate(409.07 2124.52) rotate(-180)"/><rect class="cls-6" x="156.17" y="1042.28" width="18.92" height="39.95" rx="5.31" ry="5.31" transform="translate(331.27 2124.52) rotate(180)"/><rect class="cls-6" x="116.67" y="1042.28" width="18.92" height="39.95" rx="5.31" ry="5.31" transform="translate(252.25 2124.52) rotate(180)"/><rect class="cls-6" x="195.38" y="1103.5" width="18.92" height="39.95" rx="5.31" ry="5.31" transform="translate(409.68 2246.95) rotate(180)"/><rect class="cls-6" x="156.48" y="1103.5" width="18.92" height="39.95" rx="5.31" ry="5.31" transform="translate(331.88 2246.95) rotate(180)"/><rect class="cls-6" x="116.97" y="1103.5" width="18.92" height="39.95" rx="5.31" ry="5.31" transform="translate(252.86 2246.95) rotate(180)"/><path class="cls-6" d="M179,1215.51v-21.73s-17.52-26.06-33.25,0v21.73Z"/><rect class="cls-7" x="733.43" y="765.16" width="143.43" height="456.25"/><rect class="cls-5" x="748.69" y="795.68" width="19.84" height="35.1"/><rect class="cls-5" x="795.23" y="795.68" width="19.84" height="35.1"/><rect class="cls-5" x="836.6" y="795.68" width="19.84" height="35.1"/><rect class="cls-6" x="751.27" y="844.54" width="19.84" height="35.1"/><rect class="cls-5" x="797.81" y="844.54" width="19.84" height="35.1"/><rect class="cls-5" x="839.19" y="844.54" width="19.84" height="35.1"/><rect class="cls-5" x="751.27" y="893.39" width="19.84" height="35.1"/><rect class="cls-6" x="797.81" y="893.39" width="19.84" height="35.1"/><rect class="cls-6" x="839.19" y="893.39" width="19.84" height="35.1"/><rect class="cls-5" x="751.27" y="942.24" width="19.84" height="35.1"/><rect class="cls-5" x="797.81" y="942.24" width="19.84" height="35.1"/><rect class="cls-6" x="839.19" y="942.24" width="19.84" height="35.1"/><rect class="cls-6" x="751.27" y="991.09" width="19.84" height="35.1"/><rect class="cls-5" x="797.81" y="991.09" width="19.84" height="35.1"/><rect class="cls-6" x="839.19" y="991.09" width="19.84" height="35.1"/><rect class="cls-5" x="751.27" y="1039.95" width="19.84" height="35.1"/><rect class="cls-5" x="797.81" y="1039.95" width="19.84" height="35.1"/><rect class="cls-6" x="839.19" y="1039.95" width="19.84" height="35.1"/><rect class="cls-5" x="751.27" y="1089.35" width="19.84" height="35.1"/><rect class="cls-6" x="797.81" y="1089.35" width="19.84" height="35.1"/><rect class="cls-5" x="839.19" y="1089.35" width="19.84" height="35.1"/><rect class="cls-5" x="751.27" y="1138.75" width="19.84" height="35.1"/><rect class="cls-5" x="797.81" y="1138.75" width="19.84" height="35.1"/><rect class="cls-5" x="839.19" y="1138.75" width="19.84" height="35.1"/><rect class="cls-5" x="825.78" y="1182.61" width="26.81" height="37.35"/><rect class="cls-8" x="878.02" y="745.48" width="143.43" height="476.3"/><rect class="cls-6" x="893.28" y="796.05" width="19.84" height="35.1"/><rect class="cls-6" x="939.82" y="796.05" width="19.84" height="35.1"/><rect class="cls-6" x="981.2" y="796.05" width="19.84" height="35.1"/><rect class="cls-6" x="895.86" y="844.9" width="19.84" height="35.1"/><rect class="cls-5" x="942.4" y="844.9" width="19.84" height="35.1"/><rect class="cls-6" x="983.78" y="844.9" width="19.84" height="35.1"/><rect class="cls-6" x="895.86" y="893.75" width="19.84" height="35.1"/><rect class="cls-6" x="942.4" y="893.75" width="19.84" height="35.1"/><rect class="cls-6" x="983.78" y="893.75" width="19.84" height="35.1"/><rect class="cls-6" x="895.86" y="942.61" width="19.84" height="35.1"/><rect class="cls-6" x="942.4" y="942.61" width="19.84" height="35.1"/><rect class="cls-6" x="983.78" y="942.61" width="19.84" height="35.1"/><rect class="cls-6" x="895.86" y="991.46" width="19.84" height="35.1"/><rect class="cls-6" x="942.4" y="991.46" width="19.84" height="35.1"/><rect class="cls-6" x="983.78" y="991.46" width="19.84" height="35.1"/><rect class="cls-6" x="895.86" y="1040.31" width="19.84" height="35.1"/><rect class="cls-6" x="942.4" y="1040.31" width="19.84" height="35.1"/><rect class="cls-6" x="983.78" y="1040.31" width="19.84" height="35.1"/><rect class="cls-6" x="895.86" y="1089.72" width="19.84" height="35.1"/><rect class="cls-6" x="942.4" y="1089.72" width="19.84" height="35.1"/><rect class="cls-6" x="983.78" y="1089.72" width="19.84" height="35.1"/><rect class="cls-6" x="895.86" y="1139.12" width="19.84" height="35.1"/><rect class="cls-6" x="942.4" y="1139.12" width="19.84" height="35.1"/><rect class="cls-6" x="983.78" y="1139.12" width="19.84" height="35.1"/><rect class="cls-6" x="970.38" y="1182.97" width="26.81" height="37.35"/><rect class="cls-9" x="233.36" y="757.7" width="143.43" height="456.25"/><rect class="cls-5" x="248.62" y="788.21" width="19.84" height="35.1"/><rect class="cls-5" x="295.16" y="788.21" width="19.84" height="35.1"/><rect class="cls-5" x="336.54" y="788.21" width="19.84" height="35.1"/><rect class="cls-6" x="251.2" y="837.07" width="19.84" height="35.1"/><rect class="cls-5" x="297.74" y="837.07" width="19.84" height="35.1"/><rect class="cls-5" x="339.12" y="837.07" width="19.84" height="35.1"/><rect class="cls-5" x="251.2" y="885.92" width="19.84" height="35.1"/><rect class="cls-6" x="297.74" y="885.92" width="19.84" height="35.1"/><rect class="cls-6" x="339.12" y="885.92" width="19.84" height="35.1"/><rect class="cls-5" x="251.2" y="934.77" width="19.84" height="35.1"/><rect class="cls-5" x="297.74" y="934.77" width="19.84" height="35.1"/><rect class="cls-6" x="339.12" y="934.77" width="19.84" height="35.1"/><rect class="cls-6" x="251.2" y="983.63" width="19.84" height="35.1"/><rect class="cls-5" x="297.74" y="983.63" width="19.84" height="35.1"/><rect class="cls-6" x="339.12" y="983.63" width="19.84" height="35.1"/><rect class="cls-5" x="251.2" y="1032.48" width="19.84" height="35.1"/><rect class="cls-5" x="297.74" y="1032.48" width="19.84" height="35.1"/><rect class="cls-6" x="339.12" y="1032.48" width="19.84" height="35.1"/><rect class="cls-5" x="251.2" y="1081.88" width="19.84" height="35.1"/><rect class="cls-6" x="297.74" y="1081.88" width="19.84" height="35.1"/><rect class="cls-5" x="339.12" y="1081.88" width="19.84" height="35.1"/><rect class="cls-5" x="251.2" y="1131.28" width="19.84" height="35.1"/><rect class="cls-5" x="297.74" y="1131.28" width="19.84" height="35.1"/><rect class="cls-5" x="339.12" y="1131.28" width="19.84" height="35.1"/><rect class="cls-5" x="325.71" y="1175.14" width="26.81" height="37.35"/><rect class="cls-10" x="376.79" y="688.57" width="54.74" height="25"/><rect class="cls-10" x="431.54" y="688.57" width="54.74" height="25"/><rect class="cls-10" x="486.28" y="688.57" width="54.74" height="25"/><rect class="cls-10" x="541.02" y="688.57" width="54.74" height="25"/><rect class="cls-10" x="376.79" y="713.57" width="68.67" height="16.46"/><rect class="cls-10" x="445.46" y="713.57" width="40.82" height="16.46"/><rect class="cls-10" x="486.28" y="713.57" width="62.94" height="16.46"/><rect class="cls-10" x="549.22" y="713.57" width="46.54" height="16.46"/><rect class="cls-10" x="376.79" y="730.03" width="44.25" height="23.22"/><rect class="cls-10" x="421.05" y="730.03" width="65.23" height="23.22"/><rect class="cls-10" x="486.28" y="730.03" width="47.68" height="23.22"/><rect class="cls-10" x="533.96" y="730.03" width="61.8" height="23.22"/><rect class="cls-10" x="376.79" y="753.24" width="22.13" height="22.13"/><rect class="cls-10" x="398.92" y="753.24" width="59.99" height="22.13"/><rect class="cls-10" x="458.91" y="753.24" width="90.31" height="22.13"/><rect class="cls-10" x="549.22" y="753.24" width="46.54" height="22.13"/><rect class="cls-10" x="376.79" y="775.37" width="54.74" height="17.55"/><rect class="cls-10" x="431.54" y="775.37" width="72.53" height="17.55"/><rect class="cls-10" x="504.06" y="775.37" width="64.33" height="17.55"/><rect class="cls-10" x="568.39" y="775.37" width="27.37" height="17.55"/><rect class="cls-10" x="376.79" y="792.92" width="52.12" height="27.47"/><rect class="cls-10" x="428.91" y="792.92" width="38.89" height="27.47"/><rect class="cls-10" x="467.8" y="792.92" width="36.26" height="27.47"/><rect class="cls-10" x="504.06" y="792.92" width="45.16" height="27.47"/><rect class="cls-10" x="549.22" y="792.92" width="46.54" height="27.47"/><rect class="cls-10" x="376.79" y="820.02" width="54.74" height="25"/><rect class="cls-10" x="431.54" y="820.02" width="54.74" height="25"/><rect class="cls-10" x="486.28" y="820.02" width="54.74" height="25"/><rect class="cls-10" x="541.02" y="820.02" width="54.74" height="25"/><rect class="cls-10" x="376.79" y="845.02" width="68.67" height="16.46"/><rect class="cls-10" x="445.46" y="845.02" width="40.82" height="16.46"/><rect class="cls-10" x="486.28" y="845.02" width="62.94" height="16.46"/><rect class="cls-10" x="549.22" y="845.02" width="46.54" height="16.46"/><rect class="cls-10" x="376.79" y="861.48" width="44.25" height="23.22"/><rect class="cls-10" x="421.05" y="861.48" width="65.23" height="23.22"/><rect class="cls-10" x="486.28" y="861.48" width="47.68" height="23.22"/><rect class="cls-10" x="533.96" y="861.48" width="61.8" height="23.22"/><rect class="cls-10" x="376.79" y="884.69" width="22.13" height="22.13"/><rect class="cls-10" x="398.92" y="884.69" width="59.99" height="22.13"/><rect class="cls-10" x="458.91" y="884.69" width="90.31" height="22.13"/><rect class="cls-10" x="549.22" y="884.69" width="46.54" height="22.13"/><rect class="cls-10" x="376.79" y="906.82" width="54.74" height="17.55"/><rect class="cls-10" x="431.54" y="906.82" width="72.53" height="17.55"/><rect class="cls-10" x="504.06" y="906.82" width="64.33" height="17.55"/><rect class="cls-10" x="568.39" y="906.82" width="27.37" height="17.55"/><rect class="cls-10" x="376.79" y="924.37" width="52.12" height="27.47"/><rect class="cls-10" x="428.91" y="924.37" width="38.89" height="27.47"/><rect class="cls-10" x="467.8" y="924.37" width="36.26" height="27.47"/><rect class="cls-10" x="504.06" y="924.37" width="45.16" height="27.47"/><rect class="cls-10" x="549.22" y="924.37" width="46.54" height="27.47"/><rect class="cls-10" x="376.79" y="951.83" width="54.74" height="25"/><rect class="cls-10" x="431.54" y="951.83" width="54.74" height="25"/><rect class="cls-10" x="486.28" y="951.83" width="54.74" height="25"/><rect class="cls-10" x="541.02" y="951.83" width="54.74" height="25"/><rect class="cls-10" x="376.79" y="976.83" width="68.67" height="16.46"/><rect class="cls-10" x="445.46" y="976.83" width="40.82" height="16.46"/><rect class="cls-10" x="486.28" y="976.83" width="62.94" height="16.46"/><rect class="cls-10" x="549.22" y="976.83" width="46.54" height="16.46"/><rect class="cls-10" x="376.79" y="993.29" width="44.25" height="23.22"/><rect class="cls-10" x="421.05" y="993.29" width="65.23" height="23.22"/><rect class="cls-10" x="486.28" y="993.29" width="47.68" height="23.22"/><rect class="cls-10" x="533.96" y="993.29" width="61.8" height="23.22"/><rect class="cls-10" x="376.79" y="1016.5" width="22.13" height="22.13"/><rect class="cls-10" x="398.92" y="1016.5" width="59.99" height="22.13"/><rect class="cls-10" x="458.91" y="1016.5" width="90.31" height="22.13"/><rect class="cls-10" x="549.22" y="1016.5" width="46.54" height="22.13"/><rect class="cls-10" x="376.79" y="1038.63" width="54.74" height="17.55"/><rect class="cls-10" x="431.54" y="1038.63" width="72.53" height="17.55"/><rect class="cls-10" x="504.06" y="1038.63" width="64.33" height="17.55"/><rect class="cls-10" x="568.39" y="1038.63" width="27.37" height="17.55"/><rect class="cls-10" x="376.79" y="1056.18" width="52.12" height="27.47"/><rect class="cls-10" x="428.91" y="1056.18" width="38.89" height="27.47"/><rect class="cls-10" x="467.8" y="1056.18" width="36.26" height="27.47"/><rect class="cls-10" x="504.06" y="1056.18" width="45.16" height="27.47"/><rect class="cls-10" x="549.22" y="1056.18" width="46.54" height="27.47"/><rect class="cls-10" x="376.79" y="1084.26" width="54.74" height="25"/><rect class="cls-10" x="431.54" y="1084.26" width="54.74" height="25"/><rect class="cls-10" x="486.28" y="1084.26" width="54.74" height="25"/><rect class="cls-10" x="541.02" y="1084.26" width="54.74" height="25"/><rect class="cls-10" x="376.79" y="1109.26" width="68.67" height="16.46"/><rect class="cls-10" x="445.46" y="1109.26" width="40.82" height="16.46"/><rect class="cls-10" x="486.28" y="1109.26" width="62.94" height="16.46"/><rect class="cls-10" x="549.22" y="1109.26" width="46.54" height="16.46"/><rect class="cls-10" x="376.79" y="1125.72" width="44.25" height="23.22"/><rect class="cls-10" x="421.05" y="1125.72" width="65.23" height="23.22"/><rect class="cls-10" x="486.28" y="1125.72" width="47.68" height="23.22"/><rect class="cls-10" x="533.96" y="1125.72" width="61.8" height="23.22"/><rect class="cls-10" x="376.79" y="1148.93" width="22.13" height="22.13"/><rect class="cls-10" x="398.92" y="1148.93" width="59.99" height="22.13"/><rect class="cls-10" x="458.91" y="1148.93" width="90.31" height="22.13"/><rect class="cls-10" x="549.22" y="1148.93" width="46.54" height="22.13"/><rect class="cls-10" x="376.79" y="1171.06" width="54.74" height="17.55"/><rect class="cls-10" x="431.54" y="1171.06" width="72.53" height="17.55"/><rect class="cls-10" x="504.06" y="1171.06" width="64.33" height="17.55"/><rect class="cls-10" x="568.39" y="1171.06" width="27.37" height="17.55"/><rect class="cls-10" x="376.79" y="1188.61" width="52.12" height="27.47"/><rect class="cls-10" x="428.91" y="1188.61" width="38.89" height="27.47"/><rect class="cls-10" x="467.8" y="1188.61" width="36.26" height="27.47"/><rect class="cls-10" x="504.06" y="1188.61" width="45.16" height="27.47"/><rect class="cls-10" x="549.22" y="1188.61" width="46.54" height="27.47"/><path class="cls-11" d="M382.21,731a5.72,5.72,0,0,0,2.9.88c1.61,0,2.36-.8,2.36-1.81s-.63-1.62-2.25-2.23c-2.18-.77-3.21-2-3.21-3.43,0-1.95,1.58-3.56,4.18-3.56a6,6,0,0,1,3,.76l-.55,1.6a4.7,4.7,0,0,0-2.48-.7c-1.3,0-2,.75-2,1.65s.73,1.46,2.31,2.06c2.1.8,3.18,1.85,3.18,3.65,0,2.13-1.65,3.64-4.54,3.64a6.91,6.91,0,0,1-3.4-.83Z"/><path class="cls-11" d="M402.58,730c0,1.25,0,2.35.1,3.31h-2l-.12-2h-.05a4.59,4.59,0,0,1-4,2.25c-1.91,0-4.18-1-4.18-5.31v-7.09h2.2v6.71c0,2.31.7,3.86,2.71,3.86a3.1,3.1,0,0,0,3.1-3.13v-7.44h2.21Z"/><path class="cls-11" d="M416.68,721.13c-.05.88-.1,1.85-.1,3.33v7c0,2.78-.55,4.49-1.73,5.54a6.42,6.42,0,0,1-4.41,1.45,7.84,7.84,0,0,1-4-1l.55-1.68a6.86,6.86,0,0,0,3.56,1c2.25,0,3.91-1.17,3.91-4.23v-1.35h-.05a4.35,4.35,0,0,1-3.86,2c-3,0-5.16-2.56-5.16-5.92,0-4.11,2.68-6.44,5.46-6.44A4,4,0,0,1,414.6,723h0l.1-1.83Zm-2.28,4.79a3.21,3.21,0,0,0-3.21-3.34c-2.1,0-3.6,1.78-3.6,4.59,0,2.38,1.2,4.36,3.58,4.36a3.23,3.23,0,0,0,3.06-2.26,4,4,0,0,0,.17-1.17Z"/><path class="cls-11" d="M430.69,721.13c-.05.88-.1,1.85-.1,3.33v7c0,2.78-.56,4.49-1.73,5.54a6.44,6.44,0,0,1-4.41,1.45,7.85,7.85,0,0,1-4-1l.55-1.68a6.89,6.89,0,0,0,3.56,1c2.26,0,3.91-1.17,3.91-4.23v-1.35h-.05a4.35,4.35,0,0,1-3.86,2c-3,0-5.16-2.56-5.16-5.92,0-4.11,2.68-6.44,5.46-6.44a4,4,0,0,1,3.79,2.11h.05l.1-1.83Zm-2.28,4.79a3.24,3.24,0,0,0-3.21-3.34c-2.11,0-3.61,1.78-3.61,4.59,0,2.38,1.2,4.36,3.58,4.36a3.22,3.22,0,0,0,3.06-2.26,3.66,3.66,0,0,0,.18-1.17Z"/><path class="cls-11" d="M435.47,727.59c0,3,1.95,4.21,4.16,4.21a8,8,0,0,0,3.36-.62l.37,1.58a9.83,9.83,0,0,1-4,.75c-3.74,0-6-2.46-6-6.12s2.16-6.54,5.69-6.54c4,0,5,3.49,5,5.72a9.49,9.49,0,0,1-.07,1Zm6.46-1.57c0-1.41-.57-3.59-3.05-3.59-2.23,0-3.21,2.06-3.39,3.59Z"/><path class="cls-11" d="M446.49,731a5.76,5.76,0,0,0,2.91.88c1.6,0,2.35-.8,2.35-1.81s-.62-1.62-2.25-2.23c-2.18-.77-3.21-2-3.21-3.43,0-1.95,1.58-3.56,4.19-3.56a6.09,6.09,0,0,1,3,.76l-.55,1.6a4.76,4.76,0,0,0-2.48-.7c-1.31,0-2,.75-2,1.65s.72,1.46,2.3,2.06c2.11.8,3.18,1.85,3.18,3.65,0,2.13-1.65,3.64-4.53,3.64a6.93,6.93,0,0,1-3.41-.83Z"/><path class="cls-11" d="M459.37,717.65v3.48h3.16v1.68h-3.16v6.54c0,1.5.43,2.35,1.65,2.35a4.67,4.67,0,0,0,1.28-.15l.1,1.66a5.48,5.48,0,0,1-1.95.3,3,3,0,0,1-2.38-.93,4.48,4.48,0,0,1-.86-3.16v-6.61h-1.87v-1.68h1.87v-2.91Z"/><path class="cls-11" d="M467.46,717.72a1.3,1.3,0,0,1-1.4,1.36,1.32,1.32,0,0,1-1.33-1.36,1.35,1.35,0,0,1,1.38-1.38A1.31,1.31,0,0,1,467.46,717.72ZM465,733.26V721.13h2.2v12.13Z"/><path class="cls-11" d="M481.84,727.09c0,4.49-3.1,6.44-6,6.44-3.28,0-5.81-2.4-5.81-6.24,0-4.06,2.66-6.44,6-6.44S481.84,723.39,481.84,727.09Zm-9.62.13c0,2.65,1.53,4.66,3.68,4.66s3.69-2,3.69-4.71c0-2.06-1-4.66-3.64-4.66S472.22,724.91,472.22,727.22Z"/><path class="cls-11" d="M484.62,724.41c0-1.25,0-2.28-.1-3.28h2l.12,2h0a4.47,4.47,0,0,1,4-2.28c1.68,0,4.28,1,4.28,5.17v7.24h-2.2v-7c0-2-.73-3.59-2.81-3.59a3.24,3.24,0,0,0-3.1,3.29v7.29h-2.21Z"/><path class="cls-11" d="M498.43,733.26c.05-.83.1-2.06.1-3.14V715.47h2.18v7.61h.05a4.51,4.51,0,0,1,4.13-2.23c3,0,5.14,2.51,5.11,6.19,0,4.34-2.73,6.49-5.44,6.49a4.3,4.3,0,0,1-4.05-2.28h-.08l-.1,2Zm2.28-4.86a4.17,4.17,0,0,0,.1.8,3.39,3.39,0,0,0,3.3,2.58c2.31,0,3.69-1.88,3.69-4.66,0-2.43-1.26-4.51-3.61-4.51a3.52,3.52,0,0,0-3.36,2.7,4.47,4.47,0,0,0-.12.91Z"/><path class="cls-11" d="M523.75,727.09c0,4.49-3.1,6.44-6,6.44-3.29,0-5.82-2.4-5.82-6.24,0-4.06,2.66-6.44,6-6.44S523.75,723.39,523.75,727.09Zm-9.62.13c0,2.65,1.53,4.66,3.69,4.66s3.68-2,3.68-4.71c0-2.06-1-4.66-3.63-4.66S514.13,724.91,514.13,727.22Z"/><path class="cls-11" d="M527.21,721.13l1.73,2.61c.45.67.83,1.3,1.23,2h.07c.4-.73.8-1.36,1.2-2l1.71-2.58h2.38L531.4,727l4.25,6.27h-2.5l-1.78-2.73c-.48-.71-.88-1.38-1.3-2.11H530c-.4.73-.83,1.38-1.28,2.11L527,733.26h-2.43l4.3-6.19-4.1-5.94Z"/><rect class="cls-12" x="497.84" y="711.35" width="47.32" height="24.36"/><path class="cls-13" d="M285.06,411H274.24a8.48,8.48,0,0,0,1.69-5.06h0c0-5.08-4.63-9.23-10.29-9.23H208.42c-5.66,0-10.28,4.15-10.28,9.23h0a8.48,8.48,0,0,0,1.69,5.06H181.66c-5.66,0-10.29,4.16-10.29,9.24V427c0,5.08,4.63,9.23,10.29,9.23h17.82a8.79,8.79,0,0,0-3,6.55h0c0,5.08,4.63,9.23,10.29,9.23h71c5.66,0,10.29-4.15,10.29-9.23h0a8.79,8.79,0,0,0-3.05-6.55h.11c5.66,0,10.29-4.15,10.29-9.23v-6.79C295.35,415.13,290.72,411,285.06,411Z"/><path class="cls-14" d="M1290.54,377.09h12.83a9.31,9.31,0,0,1-2-5.71h0a9.66,9.66,0,0,1,9.76-9.51h67.35a9.66,9.66,0,0,1,9.76,9.51h0a9.66,9.66,0,0,1-9.76,9.51h-12.83a9.26,9.26,0,0,1,2,5.71h0a9.22,9.22,0,0,1-.38,2.59h33.38a9.67,9.67,0,0,1,9.76,9.51v4.46a9.67,9.67,0,0,1-9.76,9.5h-73.07a9.66,9.66,0,0,1-9.75-9.5V398.7a9.34,9.34,0,0,1,.37-2.6h-27.67a9.65,9.65,0,0,1-9.75-9.5h0A9.66,9.66,0,0,1,1290.54,377.09Z"/><path class="cls-13" d="M1536.2,566.93h-13.77a6,6,0,0,0,2.12-4.37h0c0-4-4.72-7.27-10.48-7.27h-72.28c-5.76,0-10.47,3.27-10.47,7.27h0c0,4,4.71,7.27,10.47,7.27h13.77a6,6,0,0,0-2.12,4.37h0a5.2,5.2,0,0,0,.41,2H1418c-5.76,0-10.48,3.27-10.48,7.27v3.41c0,4,4.72,7.27,10.48,7.27h78.41c5.76,0,10.47-3.27,10.47-7.27v-3.41a5.15,5.15,0,0,0-.4-2h29.69c5.76,0,10.47-3.28,10.47-7.27h0C1546.67,570.2,1542,566.93,1536.2,566.93Z"/><path class="cls-13" d="M1228.91,630.37H1219a7.76,7.76,0,0,1,1.55,4.63h0c0,4.65-4.24,8.45-9.42,8.45h-52.37c-5.18,0-9.41-3.8-9.41-8.45h0a7.76,7.76,0,0,1,1.55-4.63h-16.64c-5.17,0-9.41-3.81-9.41-8.46V615.7c0-4.65,4.24-8.45,9.41-8.45h16.32a8,8,0,0,1-2.79-6h0c0-4.65,4.23-8.46,9.41-8.46h65c5.18,0,9.42,3.81,9.42,8.46h0a8,8,0,0,1-2.79,6h.09c5.18,0,9.42,3.8,9.42,8.45v6.21C1238.33,626.56,1234.09,630.37,1228.91,630.37Z"/><path class="cls-14" d="M323.5,565.14h12.42a9,9,0,0,0-1.91,5.53h0a9.35,9.35,0,0,0,9.45,9.2h65.19a9.35,9.35,0,0,0,9.45-9.2h0a9.35,9.35,0,0,0-9.45-9.2H396.23a9,9,0,0,0,1.91-5.53h0a9.06,9.06,0,0,0-.36-2.51h32.31a9.35,9.35,0,0,0,9.44-9.2v-4.32a9.35,9.35,0,0,0-9.44-9.2H359.37a9.35,9.35,0,0,0-9.45,9.2v4.32a9.06,9.06,0,0,0,.36,2.51H323.5a9.35,9.35,0,0,0-9.44,9.2h0A9.35,9.35,0,0,0,323.5,565.14Z"/><path class="cls-13" d="M636.39,642.25H621.5a6.48,6.48,0,0,0,2.29-4.72h0c0-4.33-5.1-7.87-11.33-7.87H534.29c-6.23,0-11.32,3.54-11.32,7.87h0c0,4.32,5.09,7.86,11.32,7.86h14.89a6.44,6.44,0,0,0-2.29,4.72h0a5.61,5.61,0,0,0,.44,2.14H508.59c-6.23,0-11.32,3.54-11.32,7.86v3.69c0,4.32,5.09,7.86,11.32,7.86h84.8c6.23,0,11.33-3.54,11.33-7.86v-3.69a5.61,5.61,0,0,0-.44-2.14h32.11c6.23,0,11.33-3.54,11.33-7.86h0C647.72,645.78,642.62,642.25,636.39,642.25Z"/><ellipse class="cls-15" cx="607.23" cy="1061.64" rx="24.41" ry="40.44"/><polyline class="cls-16" points="607.23 1225.74 607.23 1061.64 613.34 1042.57"/><line class="cls-16" x1="607.23" y1="1061.64" x2="593.5" y2="1042.57"/><line class="cls-16" x1="607.23" y1="1092.23" x2="624.02" y2="1071.2"/><line class="cls-16" x1="607.23" y1="1071.2" x2="593.5" y2="1071.2"/><ellipse class="cls-15" cx="387.86" cy="1055.65" rx="24.41" ry="40.44"/><polyline class="cls-16" points="387.86 1219.76 387.86 1055.65 393.96 1036.58"/><line class="cls-16" x1="387.86" y1="1055.65" x2="374.12" y2="1036.58"/><line class="cls-16" x1="387.86" y1="1086.24" x2="404.64" y2="1065.22"/><line class="cls-16" x1="387.86" y1="1065.22" x2="374.12" y2="1065.22"/><ellipse class="cls-15" cx="214.3" cy="1053.13" rx="24.41" ry="40.44"/><polyline class="cls-16" points="214.3 1217.23 214.3 1053.13 220.4 1034.06"/><line class="cls-16" x1="214.3" y1="1053.13" x2="200.57" y2="1034.06"/><line class="cls-16" x1="214.3" y1="1083.72" x2="231.08" y2="1062.69"/><line class="cls-16" x1="214.3" y1="1062.69" x2="200.57" y2="1062.69"/><ellipse class="cls-17" cx="870.94" cy="1055.65" rx="24.41" ry="40.44"/><polyline class="cls-16" points="870.94 1219.76 870.94 1055.65 877.04 1036.58"/><line class="cls-16" x1="870.94" y1="1055.65" x2="857.2" y2="1036.58"/><line class="cls-16" x1="870.94" y1="1086.24" x2="887.72" y2="1065.22"/><line class="cls-16" x1="870.94" y1="1065.22" x2="857.2" y2="1065.22"/><ellipse class="cls-17" cx="1423.75" cy="1056.11" rx="24.41" ry="40.44"/><polyline class="cls-16" points="1423.75 1220.21 1423.75 1056.11 1429.85 1037.04"/><line class="cls-16" x1="1423.75" y1="1056.11" x2="1410.02" y2="1037.04"/><line class="cls-16" x1="1423.75" y1="1086.7" x2="1440.54" y2="1065.67"/><line class="cls-16" x1="1423.75" y1="1065.67" x2="1410.02" y2="1065.67"/><ellipse class="cls-17" cx="1030.41" cy="1045.43" rx="24.41" ry="40.44"/><polyline class="cls-16" points="1030.41 1209.53 1030.41 1045.43 1036.51 1026.36"/><line class="cls-16" x1="1030.41" y1="1045.43" x2="1016.67" y2="1026.36"/><line class="cls-16" x1="1030.41" y1="1076.02" x2="1047.19" y2="1054.99"/><line class="cls-16" x1="1030.41" y1="1054.99" x2="1016.67" y2="1054.99"/><ellipse class="cls-17" cx="1570.88" cy="1056.11" rx="24.41" ry="40.44"/><polyline class="cls-16" points="1570.88 1220.21 1570.88 1056.11 1576.98 1037.04"/><line class="cls-16" x1="1570.88" y1="1056.11" x2="1557.15" y2="1037.04"/><line class="cls-16" x1="1570.88" y1="1086.7" x2="1587.67" y2="1065.67"/><line class="cls-16" x1="1570.88" y1="1065.67" x2="1557.15" y2="1065.67"/><rect class="cls-6" x="1053.02" y="695.62" width="143.43" height="529.15"/><rect class="cls-8" x="1150.85" y="769.65" width="18.92" height="44.38" rx="5.31" ry="5.31" transform="translate(2320.63 1583.67) rotate(-180)"/><rect class="cls-8" x="1111.95" y="769.65" width="18.92" height="44.38" rx="5.31" ry="5.31" transform="translate(2242.83 1583.67) rotate(-180)"/><rect class="cls-8" x="1072.45" y="769.65" width="18.92" height="44.38" rx="5.31" ry="5.31" transform="translate(2163.82 1583.67) rotate(-180)"/><rect class="cls-8" x="1150.85" y="837.39" width="18.92" height="44.38" rx="5.31" ry="5.31" transform="translate(2320.63 1719.16) rotate(180)"/><rect class="cls-8" x="1111.95" y="837.39" width="18.92" height="44.38" rx="5.31" ry="5.31" transform="translate(2242.83 1719.16) rotate(-180)"/><rect class="cls-8" x="1072.45" y="837.39" width="18.92" height="44.38" rx="5.31" ry="5.31" transform="translate(2163.82 1719.16) rotate(180)"/><rect class="cls-8" x="1151.16" y="905.13" width="18.92" height="44.38" rx="5.31" ry="5.31" transform="translate(2321.24 1854.64) rotate(180)"/><rect class="cls-8" x="1112.26" y="905.13" width="18.92" height="44.38" rx="5.31" ry="5.31" transform="translate(2243.44 1854.64) rotate(-180)"/><rect class="cls-8" x="1072.75" y="905.13" width="18.92" height="44.38" rx="5.31" ry="5.31" transform="translate(2164.43 1854.64) rotate(180)"/><rect class="cls-8" x="1150.85" y="963.53" width="18.92" height="44.38" rx="5.31" ry="5.31" transform="translate(2320.63 1971.44) rotate(-180)"/><rect class="cls-8" x="1111.95" y="963.53" width="18.92" height="44.38" rx="5.31" ry="5.31" transform="translate(2242.83 1971.44) rotate(180)"/><rect class="cls-8" x="1072.45" y="963.53" width="18.92" height="44.38" rx="5.31" ry="5.31" transform="translate(2163.82 1971.44) rotate(-180)"/><rect class="cls-8" x="1151.46" y="1031.54" width="18.92" height="44.38" rx="5.31" ry="5.31" transform="translate(2321.85 2107.46) rotate(180)"/><rect class="cls-8" x="1112.56" y="1031.54" width="18.92" height="44.38" rx="5.31" ry="5.31" transform="translate(2244.05 2107.46) rotate(-180)"/><rect class="cls-8" x="1073.06" y="1031.54" width="18.92" height="44.38" rx="5.31" ry="5.31" transform="translate(2165.04 2107.46) rotate(-180)"/><rect class="cls-8" x="1151.77" y="1099.55" width="18.92" height="44.38" rx="5.31" ry="5.31" transform="translate(2322.46 2243.48) rotate(180)"/><rect class="cls-8" x="1112.87" y="1099.55" width="18.92" height="44.38" rx="5.31" ry="5.31" transform="translate(2244.66 2243.48) rotate(-180)"/><rect class="cls-8" x="1073.36" y="1099.55" width="18.92" height="44.38" rx="5.31" ry="5.31" transform="translate(2165.65 2243.48) rotate(180)"/><path class="cls-8" d="M1128.34,1224.43v-24.15s-17.52-28.94-33.25,0v24.15Z"/><path class="cls-11" d="M561.07,62.53c-.3-8.1-.6-17.91-.6-27.71h-.3c-2.1,8.6-4.9,18.2-7.5,26.11l-8.2,26.3h-11.9l-7.2-26.1c-2.2-7.91-4.5-17.51-6.1-26.31h-.2c-.4,9.1-.7,19.51-1.2,27.91l-1.2,25.6h-14.1l4.3-67.41h20.3l6.6,22.5c2.1,7.8,4.2,16.21,5.7,24.11h.3c1.9-7.8,4.2-16.71,6.4-24.21l7.2-22.4h19.9L577,88.33h-14.9Z"/><path class="cls-11" d="M616.27,88.33l-.9-4.9h-.3c-3.2,3.9-8.2,6-14,6-9.9,0-15.8-7.2-15.8-15,0-12.7,11.4-18.81,28.7-18.71V55c0-2.6-1.4-6.3-8.9-6.3a27.5,27.5,0,0,0-13.5,3.7l-2.8-9.8c3.4-1.9,10.1-4.3,19-4.3,16.3,0,21.5,9.6,21.5,21.11v17a75.76,75.76,0,0,0,.7,11.9Zm-1.8-23.1c-8-.1-14.2,1.8-14.2,7.7,0,3.9,2.6,5.8,6,5.8a8.3,8.3,0,0,0,7.9-5.6,10.9,10.9,0,0,0,.3-2.6Z"/><path class="cls-11" d="M656.47,60h.2c1.1-2,2.3-4,3.5-5.91l9.9-14.7h18.3l-17.5,19.81,20,29.1h-18.7l-11.8-20.1-3.9,4.8v15.3h-15.2v-71h15.2Z"/><path class="cls-11" d="M705.77,68.73c.5,6.3,6.7,9.3,13.8,9.3a43.07,43.07,0,0,0,13.5-2l2,10.3a48.27,48.27,0,0,1-17.7,3c-16.6,0-26.1-9.6-26.1-24.9,0-12.41,7.7-26.11,24.7-26.11,15.8,0,21.8,12.3,21.8,24.41a36.11,36.11,0,0,1-.5,6Zm17.9-10.4c0-3.71-1.6-9.91-8.6-9.91-6.4,0-9,5.8-9.4,9.91Z"/><path class="cls-11" d="M784.06,25.42v14H795v11.2H784.06V68.33c0,5.9,1.41,8.6,6,8.6a24.86,24.86,0,0,0,4.51-.4l.1,11.5c-2,.8-5.61,1.3-9.9,1.3-4.91,0-9-1.7-11.41-4.2-2.8-2.9-4.2-7.6-4.2-14.5v-20h-6.5V39.42h6.5V28.82Z"/><path class="cls-11" d="M803.76,17.32H819v27.9h.2a18.26,18.26,0,0,1,6-5,17.07,17.07,0,0,1,7.9-1.9c9.71,0,17.11,6.7,17.11,21.41v28.6H835V61.43c0-6.41-2.2-10.81-7.91-10.81a8.08,8.08,0,0,0-7.6,5.31,9.64,9.64,0,0,0-.5,3.4v29h-15.2Z"/><path class="cls-11" d="M874.06,68.73c.5,6.3,6.7,9.3,13.8,9.3a43,43,0,0,0,13.5-2l2,10.3a48.27,48.27,0,0,1-17.7,3c-16.6,0-26.1-9.6-26.1-24.9,0-12.41,7.7-26.11,24.7-26.11,15.8,0,21.8,12.3,21.8,24.41a35,35,0,0,1-.5,6ZM892,58.33c0-3.71-1.6-9.91-8.6-9.91-6.4,0-9,5.8-9.4,9.91Z"/><path class="cls-13" d="M945.86,39.42l3.9,20c1,5.1,2,10.5,2.8,16.1h.2c1-5.6,2.4-11.2,3.6-16l5.2-20.11h12l4.9,19.51c1.3,5.5,2.6,11,3.6,16.6h.2c.7-5.6,1.7-11.1,2.8-16.7l4.21-19.41h14.9l-15,48.91h-14.3l-4.6-17.2c-1.2-4.8-2.1-9.2-3.1-15.2H967a114.44,114.44,0,0,1-3.2,15.2l-4.9,17.2h-14.3l-14.2-48.91Z"/><path class="cls-13" d="M1058.06,63.33c0,17.9-12.7,26.1-25.8,26.1-14.3,0-25.3-9.4-25.3-25.2s10.4-25.91,26.1-25.91C1048.06,38.32,1058.06,48.62,1058.06,63.33Zm-35.4.5c0,8.4,3.5,14.7,10,14.7,5.9,0,9.7-5.9,9.7-14.7,0-7.3-2.8-14.71-9.7-14.71C1025.36,49.12,1022.66,56.62,1022.66,63.83Z"/><path class="cls-13" d="M1067.46,55.53c0-7.21-.2-11.91-.4-16.11h13.1l.5,9h.4c2.5-7.1,8.5-10.1,13.2-10.1a15.67,15.67,0,0,1,3.2.2V52.83a20.89,20.89,0,0,0-4.1-.41c-5.6,0-9.4,3-10.4,7.71a17.92,17.92,0,0,0-.3,3.4v24.8h-15.2Z"/><path class="cls-13" d="M1120.36,60h.2c1.1-2,2.3-4,3.5-5.91l9.9-14.7h18.3l-17.5,19.81,20,29.1h-18.7l-11.8-20.1-3.9,4.8v15.3h-15.2v-71h15.2Z"/><path class="cls-11" d="M528.62,159.42l3.9,20c1,5.1,2,10.5,2.8,16.1h.2c1-5.6,2.4-11.2,3.6-16l5.2-20.11h12l4.9,19.51c1.3,5.5,2.6,11,3.6,16.6h.2c.7-5.6,1.7-11.1,2.8-16.7l4.2-19.41h14.9l-15,48.91h-14.3l-4.6-17.2c-1.2-4.8-2.1-9.2-3.1-15.2h-.2a114.44,114.44,0,0,1-3.2,15.2l-4.9,17.2h-14.3l-14.2-48.91Z"/><path class="cls-11" d="M640.82,183.33c0,17.9-12.7,26.1-25.8,26.1-14.3,0-25.3-9.4-25.3-25.2s10.4-25.91,26.1-25.91C630.82,158.32,640.82,168.62,640.82,183.33Zm-35.4.5c0,8.4,3.5,14.7,10,14.7,5.9,0,9.7-5.9,9.7-14.7,0-7.3-2.8-14.71-9.7-14.71C608.12,169.12,605.42,176.62,605.42,183.83Z"/><path class="cls-11" d="M650.22,175.53c0-7.21-.2-11.91-.4-16.11h13.1l.5,9h.4c2.5-7.1,8.5-10.1,13.2-10.1a15.67,15.67,0,0,1,3.2.2v14.31a20.89,20.89,0,0,0-4.1-.41c-5.6,0-9.4,3-10.4,7.71a17.92,17.92,0,0,0-.3,3.4v24.8h-15.2Z"/><path class="cls-11" d="M687.92,137.32h15.2v71h-15.2Z"/><path class="cls-11" d="M762.82,137.32v56.41c0,5.5.2,11.3.4,14.6h-13.5l-.7-7.2h-.2c-3.1,5.5-9,8.3-15.3,8.3-11.6,0-20.9-9.9-20.9-25.1-.1-16.51,10.2-26,21.9-26,6,0,10.7,2.1,12.9,5.5h.2v-26.5Zm-15.2,42.81a24.34,24.34,0,0,0-.2-2.7,9.14,9.14,0,0,0-8.9-7.51c-6.9,0-10.5,6.2-10.5,13.91,0,8.3,4.1,13.5,10.4,13.5a8.9,8.9,0,0,0,8.8-7.3,12.94,12.94,0,0,0,.4-3.5Z"/><path class="cls-11" d="M823,208.33l-.9-4.9h-.3c-3.2,3.9-8.2,6-14,6-9.9,0-15.8-7.2-15.8-15,0-12.7,11.4-18.81,28.7-18.71V175c0-2.6-1.4-6.3-8.9-6.3a27.57,27.57,0,0,0-13.51,3.7l-2.79-9.8c3.4-1.9,10.1-4.3,19-4.3,16.3,0,21.5,9.6,21.5,21.11v17a75.76,75.76,0,0,0,.7,11.9Zm-1.8-23.1c-8-.1-14.2,1.8-14.2,7.7,0,3.9,2.6,5.8,6,5.8a8.3,8.3,0,0,0,7.9-5.6,10.9,10.9,0,0,0,.3-2.6Z"/><path class="cls-11" d="M867.81,208.33c.2-3.2.4-9.1.4-14.6V137.32h15.21v27.9h.19c2.91-4.2,8-6.9,14.81-6.9,11.7,0,20.3,9.7,20.2,24.71,0,17.6-11.2,26.4-22.4,26.4-5.7,0-11.2-2.1-14.7-7.9h-.21l-.59,6.8Zm15.61-20.8a11.15,11.15,0,0,0,.3,2.7,9.2,9.2,0,0,0,8.9,7.2c6.5,0,10.5-5,10.5-13.8,0-7.6-3.4-13.61-10.5-13.61a9.42,9.42,0,0,0-8.9,7.51,12.65,12.65,0,0,0-.3,2.8Z"/><path class="cls-11" d="M940,188.73c.5,6.3,6.7,9.3,13.8,9.3a43.07,43.07,0,0,0,13.5-2l2,10.3a48.27,48.27,0,0,1-17.7,3c-16.6,0-26.1-9.6-26.1-24.9,0-12.41,7.7-26.11,24.7-26.11,15.8,0,21.8,12.3,21.8,24.41a36.11,36.11,0,0,1-.5,6Zm17.9-10.4c0-3.71-1.6-9.91-8.6-9.91-6.4,0-9,5.8-9.4,9.91Z"/><path class="cls-11" d="M998.11,145.42v14H1009v11.2h-10.9v17.71c0,5.9,1.4,8.6,6,8.6a24.82,24.82,0,0,0,4.5-.4l.1,11.5c-2,.8-5.6,1.3-9.9,1.3-4.9,0-9-1.7-11.4-4.2-2.8-2.9-4.2-7.6-4.2-14.5v-20h-6.5v-11.2h6.5v-10.6Z"/><path class="cls-11" d="M1034.81,145.42v14h10.9v11.2h-10.9v17.71c0,5.9,1.4,8.6,6,8.6a24.82,24.82,0,0,0,4.5-.4l.1,11.5c-2,.8-5.6,1.3-9.9,1.3-4.9,0-9-1.7-11.4-4.2-2.8-2.9-4.2-7.6-4.2-14.5v-20h-6.5v-11.2h6.5v-10.6Z"/><path class="cls-11" d="M1065.71,188.73c.5,6.3,6.7,9.3,13.8,9.3a43.07,43.07,0,0,0,13.5-2l2,10.3a48.27,48.27,0,0,1-17.7,3c-16.6,0-26.1-9.6-26.1-24.9,0-12.41,7.7-26.11,24.7-26.11,15.8,0,21.8,12.3,21.8,24.41a36.11,36.11,0,0,1-.5,6Zm17.9-10.4c0-3.71-1.6-9.91-8.6-9.91-6.4,0-9,5.8-9.4,9.91Z"/><path class="cls-11" d="M1106.81,175.53c0-7.21-.2-11.91-.4-16.11h13.1l.5,9h.4c2.5-7.1,8.5-10.1,13.2-10.1a15.67,15.67,0,0,1,3.2.2v14.31a20.89,20.89,0,0,0-4.1-.41c-5.6,0-9.4,3-10.4,7.71a17.92,17.92,0,0,0-.3,3.4v24.8h-15.2Z"/><path class="cls-13" d="M589.22,279.42l3.9,20c1,5.1,2,10.5,2.8,16.1h.2c1-5.6,2.4-11.2,3.6-16l5.2-20.11h12l4.9,19.51c1.3,5.5,2.6,11,3.6,16.6h.2c.7-5.6,1.7-11.1,2.8-16.7l4.2-19.41h14.9l-15,48.91h-14.3l-4.6-17.2c-1.2-4.8-2.1-9.2-3.1-15.2h-.2a114.44,114.44,0,0,1-3.2,15.2l-4.9,17.2h-14.3l-14.2-48.91Z"/><path class="cls-13" d="M701.42,303.33c0,17.9-12.7,26.1-25.8,26.1-14.3,0-25.31-9.4-25.31-25.2s10.41-25.91,26.11-25.91C691.42,278.32,701.42,288.62,701.42,303.33Zm-35.4.5c0,8.4,3.5,14.7,10,14.7,5.9,0,9.7-5.9,9.7-14.7,0-7.3-2.8-14.71-9.7-14.71C668.72,289.12,666,296.62,666,303.83Z"/><path class="cls-13" d="M710.81,295.53c0-7.21-.2-11.91-.4-16.11h13.11l.5,9h.4c2.5-7.1,8.5-10.1,13.2-10.1a15.67,15.67,0,0,1,3.2.2v14.31a20.89,20.89,0,0,0-4.1-.41c-5.6,0-9.4,3-10.4,7.71a17.92,17.92,0,0,0-.3,3.4v24.8H710.81Z"/><path class="cls-13" d="M763.72,300h.2c1.1-2,2.3-4,3.5-5.91l9.9-14.7h18.3l-17.5,19.81,20,29.1h-18.7l-11.8-20.1-3.9,4.8v15.3h-15.2v-71h15.2Z"/><path class="cls-11" d="M822.91,295.83c0-6.41-.2-11.91-.4-16.41h13.2l.7,6.8h.2c3.6-5.2,9.2-7.9,16.31-7.9,10.7,0,20.3,9.3,20.3,24.91,0,17.8-11.3,26.2-22.2,26.2-5.91,0-10.51-2.4-12.71-5.6h-.2v24.3h-15.2Zm15.2,11.5a15.14,15.14,0,0,0,.3,3.2,9.2,9.2,0,0,0,8.9,7.2c6.61,0,10.51-5.5,10.51-13.8,0-7.81-3.51-13.71-10.3-13.71a9.55,9.55,0,0,0-9.11,7.71,11.76,11.76,0,0,0-.3,2.7Z"/><path class="cls-11" d="M882.71,257.32h15.2v71h-15.2Z"/><path class="cls-11" d="M938,328.33l-.9-4.9h-.3c-3.2,3.9-8.2,6-14,6-9.9,0-15.8-7.2-15.8-15,0-12.7,11.4-18.81,28.7-18.71V295c0-2.6-1.4-6.3-8.9-6.3a27.5,27.5,0,0,0-13.5,3.7l-2.8-9.8c3.4-1.9,10.1-4.3,19-4.3,16.3,0,21.5,9.6,21.5,21.11v17a75.76,75.76,0,0,0,.7,11.9Zm-1.8-23.1c-8-.1-14.2,1.8-14.2,7.7,0,3.9,2.6,5.8,6,5.8a8.3,8.3,0,0,0,7.9-5.6,10.9,10.9,0,0,0,.3-2.6Z"/><path class="cls-11" d="M999.71,327.13c-2.7,1.2-7.8,2.2-13.6,2.2-15.8,0-25.9-9.6-25.9-25,0-14.31,9.8-26,28-26a35.26,35.26,0,0,1,11.6,1.9l-2.4,11.3a20.8,20.8,0,0,0-8.5-1.5c-8,0-13.2,5.7-13.1,13.71,0,9,6,13.7,13.4,13.7a23.45,23.45,0,0,0,8.7-1.5Z"/><path class="cls-11" d="M1018.71,308.73c.5,6.3,6.7,9.3,13.8,9.3a43.07,43.07,0,0,0,13.5-2l2,10.3a48.27,48.27,0,0,1-17.7,3c-16.6,0-26.1-9.6-26.1-24.9,0-12.41,7.7-26.11,24.7-26.11,15.8,0,21.8,12.3,21.8,24.41a36.11,36.11,0,0,1-.5,6Zm17.9-10.4c0-3.71-1.6-9.91-8.6-9.91-6.4,0-9,5.8-9.4,9.91Z"/><path class="cls-11" d="M1057.11,320.23c0-5.4,3.7-9.3,9-9.3s8.9,3.8,8.9,9.3c0,5.3-3.6,9.2-9,9.2C1060.81,329.43,1057.11,325.53,1057.11,320.23Z"/><path class="cls-11" d="M619.17,508h-7.38v-2.66h18V508h-7.41v21.6h-3.17Z"/><path class="cls-11" d="M631.55,521.49c.08,4.28,2.81,6,6,6a11.31,11.31,0,0,0,4.82-.9l.54,2.27A14,14,0,0,1,637.1,530c-5.37,0-8.57-3.53-8.57-8.78s3.1-9.4,8.17-9.4c5.69,0,7.2,5,7.2,8.21a11.26,11.26,0,0,1-.11,1.48Zm9.29-2.27c0-2-.83-5.15-4.39-5.15-3.2,0-4.61,2.95-4.86,5.15Z"/><path class="cls-11" d="M647.83,504.07H651v25.55h-3.16Z"/><path class="cls-11" d="M656.32,504.07h3.17v25.55h-3.17Z"/><path class="cls-11" d="M687,524.87c0,1.8,0,3.38.14,4.75h-2.81l-.18-2.84h-.07a6.56,6.56,0,0,1-5.76,3.24c-2.73,0-6-1.51-6-7.63V512.2h3.17v9.65c0,3.31,1,5.54,3.89,5.54a4.57,4.57,0,0,0,4.17-2.88,4.62,4.62,0,0,0,.29-1.62V512.2H687Z"/><path class="cls-11" d="M691.85,526.38a8.36,8.36,0,0,0,4.18,1.26c2.3,0,3.38-1.15,3.38-2.59s-.9-2.34-3.24-3.2c-3.13-1.12-4.6-2.85-4.6-4.93,0-2.81,2.26-5.12,6-5.12a8.75,8.75,0,0,1,4.28,1.08l-.79,2.31a6.84,6.84,0,0,0-3.57-1c-1.87,0-2.91,1.08-2.91,2.38s1,2.08,3.31,3c3,1.15,4.57,2.66,4.57,5.25,0,3.06-2.37,5.22-6.51,5.22a10,10,0,0,1-4.9-1.19Z"/><path class="cls-11" d="M715.43,512.2l2.31,8.86c.5,1.94,1,3.74,1.29,5.54h.11c.4-1.77,1-3.64,1.55-5.51l2.84-8.89h2.67l2.7,8.71c.64,2.09,1.15,3.92,1.54,5.69h.11a53.83,53.83,0,0,1,1.33-5.65l2.49-8.75h3.13l-5.62,17.42H729l-2.66-8.31a58,58,0,0,1-1.55-5.73h-.07a51.32,51.32,0,0,1-1.58,5.76l-2.81,8.28h-2.88l-5.26-17.42Z"/><path class="cls-11" d="M740.67,504.07h3.17v10.87h.07a5.82,5.82,0,0,1,2.27-2.24,6.5,6.5,0,0,1,3.24-.9c2.34,0,6.08,1.44,6.08,7.46v10.36h-3.17v-10c0-2.81-1-5.19-4-5.19a4.56,4.56,0,0,0-4.25,3.17,3.83,3.83,0,0,0-.21,1.51v10.51h-3.17Z"/><path class="cls-11" d="M770.29,529.62l-.25-2.19h-.1a6.53,6.53,0,0,1-5.33,2.59,5,5,0,0,1-5.33-5c0-4.21,3.74-6.51,10.47-6.47v-.36c0-1.44-.39-4-4-4a8.71,8.71,0,0,0-4.54,1.3l-.72-2.09a10.87,10.87,0,0,1,5.72-1.55c5.33,0,6.63,3.64,6.63,7.13v6.52a25.18,25.18,0,0,0,.28,4.17Zm-.46-8.89c-3.46-.07-7.38.54-7.38,3.92a2.81,2.81,0,0,0,3,3,4.34,4.34,0,0,0,4.21-2.92,3.52,3.52,0,0,0,.18-1Z"/><path class="cls-11" d="M781.67,507.2v5h4.54v2.41h-4.54V524c0,2.16.61,3.38,2.38,3.38a6.83,6.83,0,0,0,1.83-.22l.15,2.38a7.83,7.83,0,0,1-2.81.43,4.4,4.4,0,0,1-3.42-1.33c-.9-.94-1.22-2.48-1.22-4.54v-9.5h-2.7V512.2h2.7V508Z"/><path class="cls-11" d="M798.56,512.2l3.81,10.29c.4,1.16.83,2.52,1.12,3.57h.07c.32-1,.68-2.38,1.12-3.64l3.45-10.22h3.35l-4.75,12.42c-2.27,6-3.82,9-6,10.91a8.7,8.7,0,0,1-3.89,2.05l-.79-2.67a8.3,8.3,0,0,0,2.77-1.54,9.61,9.61,0,0,0,2.67-3.53,2.42,2.42,0,0,0,.25-.76,2.66,2.66,0,0,0-.22-.83l-6.44-16Z"/><path class="cls-11" d="M829.77,520.77c0,6.44-4.47,9.25-8.68,9.25-4.71,0-8.35-3.46-8.35-9,0-5.84,3.82-9.26,8.64-9.26C826.38,511.8,829.77,515.44,829.77,520.77Zm-13.83.18c0,3.81,2.2,6.69,5.29,6.69s5.3-2.84,5.3-6.77c0-3-1.48-6.69-5.22-6.69S815.94,517.64,815.94,521Z"/><path class="cls-11" d="M848.34,524.87c0,1.8,0,3.38.15,4.75h-2.81l-.18-2.84h-.07a6.57,6.57,0,0,1-5.76,3.24c-2.74,0-6-1.51-6-7.63V512.2h3.16v9.65c0,3.31,1,5.54,3.89,5.54a4.43,4.43,0,0,0,4.46-4.5V512.2h3.17Z"/><path class="cls-11" d="M856.8,505a41.15,41.15,0,0,1-3.38,8.53l-2,.25a50.77,50.77,0,0,0,2.13-8.46Z"/><path class="cls-11" d="M858.86,517.64c0-2.06,0-3.82-.15-5.44h2.77l.11,3.42h.15a5.23,5.23,0,0,1,4.82-3.82,3.52,3.52,0,0,1,.9.11v3a4.92,4.92,0,0,0-1.08-.11c-2.23,0-3.82,1.69-4.25,4.07a9.19,9.19,0,0,0-.14,1.48v9.28h-3.13Z"/><path class="cls-11" d="M872,521.49c.07,4.28,2.81,6,6,6a11.38,11.38,0,0,0,4.82-.9l.54,2.27a14,14,0,0,1-5.8,1.08c-5.36,0-8.56-3.53-8.56-8.78s3.09-9.4,8.17-9.4c5.69,0,7.2,5,7.2,8.21a11.26,11.26,0,0,1-.11,1.48Zm9.29-2.27c0-2-.83-5.15-4.39-5.15-3.21,0-4.61,2.95-4.86,5.15Z"/><path class="cls-11" d="M899.75,507.2v5h4.54v2.41h-4.54V524c0,2.16.61,3.38,2.38,3.38a6.89,6.89,0,0,0,1.83-.22l.15,2.38a7.87,7.87,0,0,1-2.81.43,4.39,4.39,0,0,1-3.42-1.33c-.9-.94-1.22-2.48-1.22-4.54v-9.5H894V512.2h2.7V508Z"/><path class="cls-11" d="M907.85,504.07H911v10.87h.07a5.89,5.89,0,0,1,2.27-2.24,6.5,6.5,0,0,1,3.24-.9c2.34,0,6.08,1.44,6.08,7.46v10.36h-3.17v-10c0-2.81-1-5.19-4-5.19a4.56,4.56,0,0,0-4.25,3.17,3.83,3.83,0,0,0-.21,1.51v10.51h-3.17Z"/><path class="cls-11" d="M931.36,507.3a2,2,0,0,1-3.92,0,1.92,1.92,0,0,1,2-2A1.88,1.88,0,0,1,931.36,507.3Zm-3.53,22.32V512.2H931v17.42Z"/><path class="cls-11" d="M936.25,516.92c0-1.8,0-3.28-.14-4.72h2.81l.18,2.88h.07a6.4,6.4,0,0,1,5.76-3.28c2.41,0,6.15,1.44,6.15,7.42v10.4h-3.16v-10c0-2.81-1-5.15-4-5.15a4.51,4.51,0,0,0-4.25,3.24,4.43,4.43,0,0,0-.22,1.48v10.47h-3.17Z"/><path class="cls-11" d="M959.37,520.19h.07c.43-.61,1-1.37,1.55-2l5.11-6h3.81l-6.73,7.16,7.67,10.26H967l-6-8.35-1.62,1.8v6.55h-3.14V504.07h3.14Z"/><path class="cls-11" d="M977.26,507.3a2,2,0,0,1-3.93,0,1.93,1.93,0,0,1,2-2A1.88,1.88,0,0,1,977.26,507.3Zm-3.53,22.32V512.2h3.17v17.42Z"/><path class="cls-11" d="M982.15,516.92c0-1.8,0-3.28-.14-4.72h2.81l.18,2.88h.07a6.4,6.4,0,0,1,5.76-3.28c2.41,0,6.15,1.44,6.15,7.42v10.4h-3.16v-10c0-2.81-1.05-5.15-4-5.15a4.5,4.5,0,0,0-4.24,3.24,4.43,4.43,0,0,0-.22,1.48v10.47h-3.17Z"/><path class="cls-11" d="M1017.14,512.2c-.07,1.26-.14,2.66-.14,4.79V527.1c0,4-.79,6.45-2.48,8a9.27,9.27,0,0,1-6.34,2.08,11.17,11.17,0,0,1-5.79-1.44l.79-2.41a9.81,9.81,0,0,0,5.11,1.37c3.24,0,5.61-1.69,5.61-6.08v-2h-.07a6.21,6.21,0,0,1-5.54,2.92c-4.32,0-7.42-3.67-7.42-8.49,0-5.91,3.86-9.26,7.85-9.26a5.81,5.81,0,0,1,5.44,3h.07l.14-2.63Zm-3.27,6.88a4.62,4.62,0,0,0-.18-1.44,4.57,4.57,0,0,0-4.43-3.35c-3,0-5.18,2.55-5.18,6.58,0,3.42,1.72,6.27,5.14,6.27a4.65,4.65,0,0,0,4.4-3.24,5.5,5.5,0,0,0,.25-1.69Z"/><path class="cls-11" d="M1021,527.75a2.13,2.13,0,0,1,2.16-2.27,2.27,2.27,0,1,1-2.16,2.27Z"/></g></g></svg>