<svg xmlns="http://www.w3.org/2000/svg" viewBox="0 0 1629.7 1430.12"><defs><style>.cls-1,.cls-13,.cls-17{fill:none;}.cls-2{fill:#2e2946;stroke:#2e2946;}.cls-10,.cls-13,.cls-16,.cls-17,.cls-18,.cls-2,.cls-3,.cls-4,.cls-5,.cls-6,.cls-7,.cls-8,.cls-9{stroke-miterlimit:10;}.cls-3{fill:#b2eaff;stroke:#b2eaff;}.cls-4{fill:#d1e1e0;stroke:#d1e1e0;}.cls-11,.cls-19,.cls-28,.cls-29,.cls-30,.cls-32,.cls-33,.cls-34,.cls-35,.cls-36,.cls-37,.cls-38,.cls-5{fill:#fff;}.cls-13,.cls-5{stroke:#fff;}.cls-6{fill:#9cb6b5;stroke:#9cb6b5;}.cls-10,.cls-7{fill:#cd1731;}.cls-7{stroke:#cd1731;}.cls-8{fill:#e2f5fa;stroke:#e2f5fa;}.cls-14,.cls-23,.cls-24,.cls-9{fill:#17b1ff;}.cls-9{stroke:#17b1ff;}.cls-10,.cls-17{stroke:#000;}.cls-10{stroke-width:0.25px;}.cls-11{font-size:25.05px;}.cls-11,.cls-31{font-family:MyriadPro-Regular, Myriad Pro;}.cls-12{letter-spacing:-0.01em;}.cls-15{fill:#2ebeff;}.cls-16{fill:#15b097;stroke:#15b097;}.cls-18{fill:#71f79f;stroke:#71f79f;}.cls-19{font-size:100px;}.cls-19,.cls-39{font-family:MyriadPro-Bold, Myriad Pro;font-weight:700;}.cls-20{letter-spacing:0em;}.cls-21{letter-spacing:-0.01em;}.cls-22{letter-spacing:0em;}.cls-23,.cls-25{letter-spacing:-0.01em;}.cls-24,.cls-26{letter-spacing:0em;}.cls-27{letter-spacing:0em;}.cls-29{letter-spacing:-0.01em;}.cls-30{letter-spacing:-0.02em;}.cls-31{font-size:36px;}.cls-32{letter-spacing:-0.07em;}.cls-33{letter-spacing:0em;}.cls-34{letter-spacing:-0.01em;}.cls-35{letter-spacing:-0.02em;}.cls-36{letter-spacing:-0.04em;}.cls-37{letter-spacing:0.02em;}.cls-38{letter-spacing:-0.02em;}.cls-39{font-size:200px;}</style></defs><title>Asset 4</title><g id="Layer_2" data-name="Layer 2"><g id="Layer_1-2" data-name="Layer 1"><rect class="cls-1" x="0.5" y="0.5" width="1628.7" height="1429.12"/><rect class="cls-2" x="197.28" y="0.5" width="1324.64" height="1234.49"/><rect class="cls-3" x="0.5" y="1209.76" width="1628.7" height="219.86"/><polygon class="cls-4" points="1453.58 1218.66 1453.58 789.73 1590.25 690.91 1590.25 1218.66 1453.58 1218.66"/><rect class="cls-5" x="1473.55" y="809.71" width="18.92" height="39.95" rx="5.31" ry="5.31"/><rect class="cls-5" x="1512.45" y="809.71" width="18.92" height="39.95" rx="5.31" ry="5.31"/><rect class="cls-5" x="1551.96" y="809.71" width="18.92" height="39.95" rx="5.31" ry="5.31"/><rect class="cls-5" x="1473.55" y="870.68" width="18.92" height="39.95" rx="5.31" ry="5.31"/><rect class="cls-5" x="1512.45" y="870.68" width="18.92" height="39.95" rx="5.31" ry="5.31"/><rect class="cls-5" x="1551.96" y="870.68" width="18.92" height="39.95" rx="5.31" ry="5.31"/><rect class="cls-5" x="1473.25" y="931.66" width="18.92" height="39.95" rx="5.31" ry="5.31"/><rect class="cls-5" x="1512.15" y="931.66" width="18.92" height="39.95" rx="5.31" ry="5.31"/><rect class="cls-5" x="1551.65" y="931.66" width="18.92" height="39.95" rx="5.31" ry="5.31"/><rect class="cls-5" x="1473.55" y="984.22" width="18.92" height="39.95" rx="5.31" ry="5.31"/><rect class="cls-5" x="1512.45" y="984.22" width="18.92" height="39.95" rx="5.31" ry="5.31"/><rect class="cls-5" x="1551.96" y="984.22" width="18.92" height="39.95" rx="5.31" ry="5.31"/><rect class="cls-5" x="1472.94" y="1045.44" width="18.92" height="39.95" rx="5.31" ry="5.31"/><rect class="cls-5" x="1511.84" y="1045.44" width="18.92" height="39.95" rx="5.31" ry="5.31"/><rect class="cls-5" x="1551.35" y="1045.44" width="18.92" height="39.95" rx="5.31" ry="5.31"/><rect class="cls-5" x="1472.64" y="1106.65" width="18.92" height="39.95" rx="5.31" ry="5.31"/><rect class="cls-5" x="1511.54" y="1106.65" width="18.92" height="39.95" rx="5.31" ry="5.31"/><rect class="cls-5" x="1551.04" y="1106.65" width="18.92" height="39.95" rx="5.31" ry="5.31"/><path class="cls-5" d="M1508,1218.66v-21.73s17.52-26.06,33.24,0v21.73Z"/><polygon class="cls-4" points="1423.75 1218.66 1423.75 789.73 1287.08 690.91 1287.08 1218.66 1423.75 1218.66"/><rect class="cls-6" x="1384.85" y="809.71" width="18.92" height="39.95" rx="5.31" ry="5.31" transform="translate(2788.63 1659.36) rotate(-180)"/><rect class="cls-6" x="1345.95" y="809.71" width="18.92" height="39.95" rx="5.31" ry="5.31" transform="translate(2710.83 1659.36) rotate(-180)"/><rect class="cls-6" x="1306.45" y="809.71" width="18.92" height="39.95" rx="5.31" ry="5.31" transform="translate(2631.82 1659.36) rotate(-180)"/><rect class="cls-6" x="1384.85" y="870.68" width="18.92" height="39.95" rx="5.31" ry="5.31" transform="translate(2788.63 1781.31) rotate(180)"/><rect class="cls-6" x="1345.95" y="870.68" width="18.92" height="39.95" rx="5.31" ry="5.31" transform="translate(2710.83 1781.31) rotate(-180)"/><rect class="cls-6" x="1306.45" y="870.68" width="18.92" height="39.95" rx="5.31" ry="5.31" transform="translate(2631.82 1781.31) rotate(180)"/><rect class="cls-6" x="1385.16" y="931.66" width="18.92" height="39.95" rx="5.31" ry="5.31" transform="translate(2789.24 1903.26) rotate(180)"/><rect class="cls-6" x="1346.26" y="931.66" width="18.92" height="39.95" rx="5.31" ry="5.31" transform="translate(2711.44 1903.26) rotate(-180)"/><rect class="cls-6" x="1306.75" y="931.66" width="18.92" height="39.95" rx="5.31" ry="5.31" transform="translate(2632.43 1903.26) rotate(180)"/><rect class="cls-6" x="1384.85" y="984.22" width="18.92" height="39.95" rx="5.31" ry="5.31" transform="translate(2788.63 2008.39) rotate(-180)"/><rect class="cls-6" x="1345.95" y="984.22" width="18.92" height="39.95" rx="5.31" ry="5.31" transform="translate(2710.83 2008.39) rotate(180)"/><rect class="cls-6" x="1306.45" y="984.22" width="18.92" height="39.95" rx="5.31" ry="5.31" transform="translate(2631.82 2008.39) rotate(-180)"/><rect class="cls-6" x="1385.46" y="1045.44" width="18.92" height="39.95" rx="5.31" ry="5.31" transform="translate(2789.85 2130.82) rotate(180)"/><rect class="cls-6" x="1346.56" y="1045.44" width="18.92" height="39.95" rx="5.31" ry="5.31" transform="translate(2712.05 2130.82) rotate(-180)"/><rect class="cls-6" x="1307.06" y="1045.44" width="18.92" height="39.95" rx="5.31" ry="5.31" transform="translate(2633.04 2130.82) rotate(-180)"/><rect class="cls-6" x="1385.77" y="1106.65" width="18.92" height="39.95" rx="5.31" ry="5.31" transform="translate(2790.46 2253.26) rotate(180)"/><rect class="cls-6" x="1346.87" y="1106.65" width="18.92" height="39.95" rx="5.31" ry="5.31" transform="translate(2712.66 2253.26) rotate(-180)"/><rect class="cls-6" x="1307.36" y="1106.65" width="18.92" height="39.95" rx="5.31" ry="5.31" transform="translate(2633.65 2253.26) rotate(180)"/><path class="cls-6" d="M1369.34,1218.66v-21.73s-17.52-26.06-33.25,0v21.73Z"/><polygon class="cls-4" points="595.34 1218.66 595.34 789.73 732.01 690.91 732.01 1218.66 595.34 1218.66"/><rect class="cls-5" x="615.32" y="809.71" width="18.92" height="39.95" rx="5.31" ry="5.31"/><rect class="cls-5" x="654.22" y="809.71" width="18.92" height="39.95" rx="5.31" ry="5.31"/><rect class="cls-5" x="693.72" y="809.71" width="18.92" height="39.95" rx="5.31" ry="5.31"/><rect class="cls-5" x="615.32" y="870.68" width="18.92" height="39.95" rx="5.31" ry="5.31"/><rect class="cls-5" x="654.22" y="870.68" width="18.92" height="39.95" rx="5.31" ry="5.31"/><rect class="cls-5" x="693.72" y="870.68" width="18.92" height="39.95" rx="5.31" ry="5.31"/><rect class="cls-5" x="615.01" y="931.66" width="18.92" height="39.95" rx="5.31" ry="5.31"/><rect class="cls-5" x="653.91" y="931.66" width="18.92" height="39.95" rx="5.31" ry="5.31"/><rect class="cls-5" x="693.42" y="931.66" width="18.92" height="39.95" rx="5.31" ry="5.31"/><rect class="cls-5" x="615.32" y="984.22" width="18.92" height="39.95" rx="5.31" ry="5.31"/><rect class="cls-5" x="654.22" y="984.22" width="18.92" height="39.95" rx="5.31" ry="5.31"/><rect class="cls-5" x="693.72" y="984.22" width="18.92" height="39.95" rx="5.31" ry="5.31"/><rect class="cls-5" x="614.71" y="1045.44" width="18.92" height="39.95" rx="5.31" ry="5.31"/><rect class="cls-5" x="653.61" y="1045.44" width="18.92" height="39.95" rx="5.31" ry="5.31"/><rect class="cls-5" x="693.11" y="1045.44" width="18.92" height="39.95" rx="5.31" ry="5.31"/><rect class="cls-5" x="614.4" y="1106.65" width="18.92" height="39.95" rx="5.31" ry="5.31"/><rect class="cls-5" x="653.3" y="1106.65" width="18.92" height="39.95" rx="5.31" ry="5.31"/><rect class="cls-5" x="692.81" y="1106.65" width="18.92" height="39.95" rx="5.31" ry="5.31"/><path class="cls-5" d="M649.76,1218.66v-21.73s17.52-26.06,33.24,0v21.73Z"/><polygon class="cls-4" points="233.36 1215.51 233.36 786.58 96.69 687.75 96.69 1215.51 233.36 1215.51"/><rect class="cls-6" x="194.46" y="806.55" width="18.92" height="39.95" rx="5.31" ry="5.31" transform="translate(407.85 1653.05) rotate(180)"/><rect class="cls-6" x="155.56" y="806.55" width="18.92" height="39.95" rx="5.31" ry="5.31" transform="translate(330.05 1653.05) rotate(180)"/><rect class="cls-6" x="116.06" y="806.55" width="18.92" height="39.95" rx="5.31" ry="5.31" transform="translate(251.03 1653.05) rotate(180)"/><rect class="cls-6" x="194.46" y="867.53" width="18.92" height="39.95" rx="5.31" ry="5.31" transform="translate(407.85 1775) rotate(-180)"/><rect class="cls-6" x="155.56" y="867.53" width="18.92" height="39.95" rx="5.31" ry="5.31" transform="translate(330.05 1775) rotate(180)"/><rect class="cls-6" x="116.06" y="867.53" width="18.92" height="39.95" rx="5.31" ry="5.31" transform="translate(251.03 1775) rotate(180)"/><rect class="cls-6" x="194.77" y="928.5" width="18.92" height="39.95" rx="5.31" ry="5.31" transform="translate(408.46 1896.95) rotate(180)"/><rect class="cls-6" x="155.87" y="928.5" width="18.92" height="39.95" rx="5.31" ry="5.31" transform="translate(330.66 1896.95) rotate(-180)"/><rect class="cls-6" x="116.36" y="928.5" width="18.92" height="39.95" rx="5.31" ry="5.31" transform="translate(251.64 1896.95) rotate(180)"/><rect class="cls-6" x="194.46" y="981.07" width="18.92" height="39.95" rx="5.31" ry="5.31" transform="translate(407.85 2002.08) rotate(180)"/><rect class="cls-6" x="155.56" y="981.07" width="18.92" height="39.95" rx="5.31" ry="5.31" transform="translate(330.05 2002.08) rotate(-180)"/><rect class="cls-6" x="116.06" y="981.07" width="18.92" height="39.95" rx="5.31" ry="5.31" transform="translate(251.03 2002.08) rotate(180)"/><rect class="cls-6" x="195.07" y="1042.28" width="18.92" height="39.95" rx="5.31" ry="5.31" transform="translate(409.07 2124.52) rotate(-180)"/><rect class="cls-6" x="156.17" y="1042.28" width="18.92" height="39.95" rx="5.31" ry="5.31" transform="translate(331.27 2124.52) rotate(180)"/><rect class="cls-6" x="116.67" y="1042.28" width="18.92" height="39.95" rx="5.31" ry="5.31" transform="translate(252.25 2124.52) rotate(180)"/><rect class="cls-6" x="195.38" y="1103.5" width="18.92" height="39.95" rx="5.31" ry="5.31" transform="translate(409.68 2246.95) rotate(180)"/><rect class="cls-6" x="156.48" y="1103.5" width="18.92" height="39.95" rx="5.31" ry="5.31" transform="translate(331.88 2246.95) rotate(180)"/><rect class="cls-6" x="116.97" y="1103.5" width="18.92" height="39.95" rx="5.31" ry="5.31" transform="translate(252.86 2246.95) rotate(180)"/><path class="cls-6" d="M179,1215.51v-21.73s-17.52-26.06-33.25,0v21.73Z"/><rect class="cls-7" x="733.43" y="765.16" width="143.43" height="456.25"/><rect class="cls-5" x="748.69" y="795.68" width="19.84" height="35.1"/><rect class="cls-5" x="795.23" y="795.68" width="19.84" height="35.1"/><rect class="cls-5" x="836.6" y="795.68" width="19.84" height="35.1"/><rect class="cls-6" x="751.27" y="844.54" width="19.84" height="35.1"/><rect class="cls-5" x="797.81" y="844.54" width="19.84" height="35.1"/><rect class="cls-5" x="839.19" y="844.54" width="19.84" height="35.1"/><rect class="cls-5" x="751.27" y="893.39" width="19.84" height="35.1"/><rect class="cls-6" x="797.81" y="893.39" width="19.84" height="35.1"/><rect class="cls-6" x="839.19" y="893.39" width="19.84" height="35.1"/><rect class="cls-5" x="751.27" y="942.24" width="19.84" height="35.1"/><rect class="cls-5" x="797.81" y="942.24" width="19.84" height="35.1"/><rect class="cls-6" x="839.19" y="942.24" width="19.84" height="35.1"/><rect class="cls-6" x="751.27" y="991.09" width="19.84" height="35.1"/><rect class="cls-5" x="797.81" y="991.09" width="19.84" height="35.1"/><rect class="cls-6" x="839.19" y="991.09" width="19.84" height="35.1"/><rect class="cls-5" x="751.27" y="1039.95" width="19.84" height="35.1"/><rect class="cls-5" x="797.81" y="1039.95" width="19.84" height="35.1"/><rect class="cls-6" x="839.19" y="1039.95" width="19.84" height="35.1"/><rect class="cls-5" x="751.27" y="1089.35" width="19.84" height="35.1"/><rect class="cls-6" x="797.81" y="1089.35" width="19.84" height="35.1"/><rect class="cls-5" x="839.19" y="1089.35" width="19.84" height="35.1"/><rect class="cls-5" x="751.27" y="1138.75" width="19.84" height="35.1"/><rect class="cls-5" x="797.81" y="1138.75" width="19.84" height="35.1"/><rect class="cls-5" x="839.19" y="1138.75" width="19.84" height="35.1"/><rect class="cls-5" x="825.78" y="1182.61" width="26.81" height="37.35"/><rect class="cls-8" x="878.02" y="745.48" width="143.43" height="476.3"/><rect class="cls-6" x="893.28" y="796.05" width="19.84" height="35.1"/><rect class="cls-6" x="939.82" y="796.05" width="19.84" height="35.1"/><rect class="cls-6" x="981.2" y="796.05" width="19.84" height="35.1"/><rect class="cls-6" x="895.86" y="844.9" width="19.84" height="35.1"/><rect class="cls-5" x="942.4" y="844.9" width="19.84" height="35.1"/><rect class="cls-6" x="983.78" y="844.9" width="19.84" height="35.1"/><rect class="cls-6" x="895.86" y="893.75" width="19.84" height="35.1"/><rect class="cls-6" x="942.4" y="893.75" width="19.84" height="35.1"/><rect class="cls-6" x="983.78" y="893.75" width="19.84" height="35.1"/><rect class="cls-6" x="895.86" y="942.61" width="19.84" height="35.1"/><rect class="cls-6" x="942.4" y="942.61" width="19.84" height="35.1"/><rect class="cls-6" x="983.78" y="942.61" width="19.84" height="35.1"/><rect class="cls-6" x="895.86" y="991.46" width="19.84" height="35.1"/><rect class="cls-6" x="942.4" y="991.46" width="19.84" height="35.1"/><rect class="cls-6" x="983.78" y="991.46" width="19.84" height="35.1"/><rect class="cls-6" x="895.86" y="1040.31" width="19.84" height="35.1"/><rect class="cls-6" x="942.4" y="1040.31" width="19.84" height="35.1"/><rect class="cls-6" x="983.78" y="1040.31" width="19.84" height="35.1"/><rect class="cls-6" x="895.86" y="1089.72" width="19.84" height="35.1"/><rect class="cls-6" x="942.4" y="1089.72" width="19.84" height="35.1"/><rect class="cls-6" x="983.78" y="1089.72" width="19.84" height="35.1"/><rect class="cls-6" x="895.86" y="1139.12" width="19.84" height="35.1"/><rect class="cls-6" x="942.4" y="1139.12" width="19.84" height="35.1"/><rect class="cls-6" x="983.78" y="1139.12" width="19.84" height="35.1"/><rect class="cls-6" x="970.38" y="1182.97" width="26.81" height="37.35"/><rect class="cls-9" x="233.36" y="757.7" width="143.43" height="456.25"/><rect class="cls-5" x="248.62" y="788.21" width="19.84" height="35.1"/><rect class="cls-5" x="295.16" y="788.21" width="19.84" height="35.1"/><rect class="cls-5" x="336.54" y="788.21" width="19.84" height="35.1"/><rect class="cls-6" x="251.2" y="837.07" width="19.84" height="35.1"/><rect class="cls-5" x="297.74" y="837.07" width="19.84" height="35.1"/><rect class="cls-5" x="339.12" y="837.07" width="19.84" height="35.1"/><rect class="cls-5" x="251.2" y="885.92" width="19.84" height="35.1"/><rect class="cls-6" x="297.74" y="885.92" width="19.84" height="35.1"/><rect class="cls-6" x="339.12" y="885.92" width="19.84" height="35.1"/><rect class="cls-5" x="251.2" y="934.77" width="19.84" height="35.1"/><rect class="cls-5" x="297.74" y="934.77" width="19.84" height="35.1"/><rect class="cls-6" x="339.12" y="934.77" width="19.84" height="35.1"/><rect class="cls-6" x="251.2" y="983.63" width="19.84" height="35.1"/><rect class="cls-5" x="297.74" y="983.63" width="19.84" height="35.1"/><rect class="cls-6" x="339.12" y="983.63" width="19.84" height="35.1"/><rect class="cls-5" x="251.2" y="1032.48" width="19.84" height="35.1"/><rect class="cls-5" x="297.74" y="1032.48" width="19.84" height="35.1"/><rect class="cls-6" x="339.12" y="1032.48" width="19.84" height="35.1"/><rect class="cls-5" x="251.2" y="1081.88" width="19.84" height="35.1"/><rect class="cls-6" x="297.74" y="1081.88" width="19.84" height="35.1"/><rect class="cls-5" x="339.12" y="1081.88" width="19.84" height="35.1"/><rect class="cls-5" x="251.2" y="1131.28" width="19.84" height="35.1"/><rect class="cls-5" x="297.74" y="1131.28" width="19.84" height="35.1"/><rect class="cls-5" x="339.12" y="1131.28" width="19.84" height="35.1"/><rect class="cls-5" x="325.71" y="1175.14" width="26.81" height="37.35"/><rect class="cls-10" x="376.79" y="688.57" width="54.74" height="25"/><rect class="cls-10" x="431.54" y="688.57" width="54.74" height="25"/><rect class="cls-10" x="486.28" y="688.57" width="54.74" height="25"/><rect class="cls-10" x="541.02" y="688.57" width="54.74" height="25"/><rect class="cls-10" x="376.79" y="713.57" width="68.67" height="16.46"/><rect class="cls-10" x="445.46" y="713.57" width="40.82" height="16.46"/><rect class="cls-10" x="486.28" y="713.57" width="62.94" height="16.46"/><rect class="cls-10" x="549.22" y="713.57" width="46.54" height="16.46"/><rect class="cls-10" x="376.79" y="730.03" width="44.25" height="23.22"/><rect class="cls-10" x="421.05" y="730.03" width="65.23" height="23.22"/><rect class="cls-10" x="486.28" y="730.03" width="47.68" height="23.22"/><rect class="cls-10" x="533.96" y="730.03" width="61.8" height="23.22"/><rect class="cls-10" x="376.79" y="753.24" width="22.13" height="22.13"/><rect class="cls-10" x="398.92" y="753.24" width="59.99" height="22.13"/><rect class="cls-10" x="458.91" y="753.24" width="90.31" height="22.13"/><rect class="cls-10" x="549.22" y="753.24" width="46.54" height="22.13"/><rect class="cls-10" x="376.79" y="775.37" width="54.74" height="17.55"/><rect class="cls-10" x="431.54" y="775.37" width="72.53" height="17.55"/><rect class="cls-10" x="504.06" y="775.37" width="64.33" height="17.55"/><rect class="cls-10" x="568.39" y="775.37" width="27.37" height="17.55"/><rect class="cls-10" x="376.79" y="792.92" width="52.12" height="27.47"/><rect class="cls-10" x="428.91" y="792.92" width="38.89" height="27.47"/><rect class="cls-10" x="467.8" y="792.92" width="36.26" height="27.47"/><rect class="cls-10" x="504.06" y="792.92" width="45.16" height="27.47"/><rect class="cls-10" x="549.22" y="792.92" width="46.54" height="27.47"/><rect class="cls-10" x="376.79" y="820.02" width="54.74" height="25"/><rect class="cls-10" x="431.54" y="820.02" width="54.74" height="25"/><rect class="cls-10" x="486.28" y="820.02" width="54.74" height="25"/><rect class="cls-10" x="541.02" y="820.02" width="54.74" height="25"/><rect class="cls-10" x="376.79" y="845.02" width="68.67" height="16.46"/><rect class="cls-10" x="445.46" y="845.02" width="40.82" height="16.46"/><rect class="cls-10" x="486.28" y="845.02" width="62.94" height="16.46"/><rect class="cls-10" x="549.22" y="845.02" width="46.54" height="16.46"/><rect class="cls-10" x="376.79" y="861.48" width="44.25" height="23.22"/><rect class="cls-10" x="421.05" y="861.48" width="65.23" height="23.22"/><rect class="cls-10" x="486.28" y="861.48" width="47.68" height="23.22"/><rect class="cls-10" x="533.96" y="861.48" width="61.8" height="23.22"/><rect class="cls-10" x="376.79" y="884.69" width="22.13" height="22.13"/><rect class="cls-10" x="398.92" y="884.69" width="59.99" height="22.13"/><rect class="cls-10" x="458.91" y="884.69" width="90.31" height="22.13"/><rect class="cls-10" x="549.22" y="884.69" width="46.54" height="22.13"/><rect class="cls-10" x="376.79" y="906.82" width="54.74" height="17.55"/><rect class="cls-10" x="431.54" y="906.82" width="72.53" height="17.55"/><rect class="cls-10" x="504.06" y="906.82" width="64.33" height="17.55"/><rect class="cls-10" x="568.39" y="906.82" width="27.37" height="17.55"/><rect class="cls-10" x="376.79" y="924.37" width="52.12" height="27.47"/><rect class="cls-10" x="428.91" y="924.37" width="38.89" height="27.47"/><rect class="cls-10" x="467.8" y="924.37" width="36.26" height="27.47"/><rect class="cls-10" x="504.06" y="924.37" width="45.16" height="27.47"/><rect class="cls-10" x="549.22" y="924.37" width="46.54" height="27.47"/><rect class="cls-10" x="376.79" y="951.83" width="54.74" height="25"/><rect class="cls-10" x="431.54" y="951.83" width="54.74" height="25"/><rect class="cls-10" x="486.28" y="951.83" width="54.74" height="25"/><rect class="cls-10" x="541.02" y="951.83" width="54.74" height="25"/><rect class="cls-10" x="376.79" y="976.83" width="68.67" height="16.46"/><rect class="cls-10" x="445.46" y="976.83" width="40.82" height="16.46"/><rect class="cls-10" x="486.28" y="976.83" width="62.94" height="16.46"/><rect class="cls-10" x="549.22" y="976.83" width="46.54" height="16.46"/><rect class="cls-10" x="376.79" y="993.29" width="44.25" height="23.22"/><rect class="cls-10" x="421.05" y="993.29" width="65.23" height="23.22"/><rect class="cls-10" x="486.28" y="993.29" width="47.68" height="23.22"/><rect class="cls-10" x="533.96" y="993.29" width="61.8" height="23.22"/><rect class="cls-10" x="376.79" y="1016.5" width="22.13" height="22.13"/><rect class="cls-10" x="398.92" y="1016.5" width="59.99" height="22.13"/><rect class="cls-10" x="458.91" y="1016.5" width="90.31" height="22.13"/><rect class="cls-10" x="549.22" y="1016.5" width="46.54" height="22.13"/><rect class="cls-10" x="376.79" y="1038.63" width="54.74" height="17.55"/><rect class="cls-10" x="431.54" y="1038.63" width="72.53" height="17.55"/><rect class="cls-10" x="504.06" y="1038.63" width="64.33" height="17.55"/><rect class="cls-10" x="568.39" y="1038.63" width="27.37" height="17.55"/><rect class="cls-10" x="376.79" y="1056.18" width="52.12" height="27.47"/><rect class="cls-10" x="428.91" y="1056.18" width="38.89" height="27.47"/><rect class="cls-10" x="467.8" y="1056.18" width="36.26" height="27.47"/><rect class="cls-10" x="504.06" y="1056.18" width="45.16" height="27.47"/><rect class="cls-10" x="549.22" y="1056.18" width="46.54" height="27.47"/><rect class="cls-10" x="376.79" y="1084.26" width="54.74" height="25"/><rect class="cls-10" x="431.54" y="1084.26" width="54.74" height="25"/><rect class="cls-10" x="486.28" y="1084.26" width="54.74" height="25"/><rect class="cls-10" x="541.02" y="1084.26" width="54.74" height="25"/><rect class="cls-10" x="376.79" y="1109.26" width="68.67" height="16.46"/><rect class="cls-10" x="445.46" y="1109.26" width="40.82" height="16.46"/><rect class="cls-10" x="486.28" y="1109.26" width="62.94" height="16.46"/><rect class="cls-10" x="549.22" y="1109.26" width="46.54" height="16.46"/><rect class="cls-10" x="376.79" y="1125.72" width="44.25" height="23.22"/><rect class="cls-10" x="421.05" y="1125.72" width="65.23" height="23.22"/><rect class="cls-10" x="486.28" y="1125.72" width="47.68" height="23.22"/><rect class="cls-10" x="533.96" y="1125.72" width="61.8" height="23.22"/><rect class="cls-10" x="376.79" y="1148.93" width="22.13" height="22.13"/><rect class="cls-10" x="398.92" y="1148.93" width="59.99" height="22.13"/><rect class="cls-10" x="458.91" y="1148.93" width="90.31" height="22.13"/><rect class="cls-10" x="549.22" y="1148.93" width="46.54" height="22.13"/><rect class="cls-10" x="376.79" y="1171.06" width="54.74" height="17.55"/><rect class="cls-10" x="431.54" y="1171.06" width="72.53" height="17.55"/><rect class="cls-10" x="504.06" y="1171.06" width="64.33" height="17.55"/><rect class="cls-10" x="568.39" y="1171.06" width="27.37" height="17.55"/><rect class="cls-10" x="376.79" y="1188.61" width="52.12" height="27.47"/><rect class="cls-10" x="428.91" y="1188.61" width="38.89" height="27.47"/><rect class="cls-10" x="467.8" y="1188.61" width="36.26" height="27.47"/><rect class="cls-10" x="504.06" y="1188.61" width="45.16" height="27.47"/><rect class="cls-10" x="549.22" y="1188.61" width="46.54" height="27.47"/><text class="cls-11" transform="translate(380.68 733.26)">suggestionb<tspan class="cls-12" x="130.27" y="0">o</tspan><tspan x="143.67" y="0">x</tspan></text><rect class="cls-13" x="497.84" y="711.35" width="47.32" height="24.36"/><path class="cls-14" d="M285.06,411H274.24a8.48,8.48,0,0,0,1.69-5.06h0c0-5.08-4.63-9.23-10.29-9.23H208.42c-5.66,0-10.28,4.15-10.28,9.23h0a8.48,8.48,0,0,0,1.69,5.06H181.66c-5.66,0-10.29,4.16-10.29,9.24V427c0,5.08,4.63,9.23,10.29,9.23h17.82a8.79,8.79,0,0,0-3,6.55h0c0,5.08,4.63,9.23,10.29,9.23h71c5.66,0,10.29-4.15,10.29-9.23h0a8.79,8.79,0,0,0-3.05-6.55h.11c5.66,0,10.29-4.15,10.29-9.23v-6.79C295.35,415.13,290.72,411,285.06,411Z"/><path class="cls-15" d="M1290.54,377.09h12.83a9.31,9.31,0,0,1-2-5.71h0a9.66,9.66,0,0,1,9.76-9.51h67.35a9.66,9.66,0,0,1,9.76,9.51h0a9.66,9.66,0,0,1-9.76,9.51h-12.83a9.26,9.26,0,0,1,2,5.71h0a9.22,9.22,0,0,1-.38,2.59h33.38a9.67,9.67,0,0,1,9.76,9.51v4.46a9.67,9.67,0,0,1-9.76,9.5h-73.07a9.66,9.66,0,0,1-9.75-9.5V398.7a9.34,9.34,0,0,1,.37-2.6h-27.67a9.65,9.65,0,0,1-9.75-9.5h0A9.66,9.66,0,0,1,1290.54,377.09Z"/><path class="cls-14" d="M1536.2,566.93h-13.77a6,6,0,0,0,2.12-4.37h0c0-4-4.72-7.27-10.48-7.27h-72.28c-5.76,0-10.47,3.27-10.47,7.27h0c0,4,4.71,7.27,10.47,7.27h13.77a6,6,0,0,0-2.12,4.37h0a5.2,5.2,0,0,0,.41,2H1418c-5.76,0-10.48,3.27-10.48,7.27v3.41c0,4,4.72,7.27,10.48,7.27h78.41c5.76,0,10.47-3.27,10.47-7.27v-3.41a5.15,5.15,0,0,0-.4-2h29.69c5.76,0,10.47-3.28,10.47-7.27h0C1546.67,570.2,1542,566.93,1536.2,566.93Z"/><path class="cls-14" d="M1228.91,630.37H1219a7.76,7.76,0,0,1,1.55,4.63h0c0,4.65-4.24,8.45-9.42,8.45h-52.37c-5.18,0-9.41-3.8-9.41-8.45h0a7.76,7.76,0,0,1,1.55-4.63h-16.64c-5.17,0-9.41-3.81-9.41-8.46V615.7c0-4.65,4.24-8.45,9.41-8.45h16.32a8,8,0,0,1-2.79-6h0c0-4.65,4.23-8.46,9.41-8.46h65c5.18,0,9.42,3.81,9.42,8.46h0a8,8,0,0,1-2.79,6h.09c5.18,0,9.42,3.8,9.42,8.45v6.21C1238.33,626.56,1234.09,630.37,1228.91,630.37Z"/><path class="cls-15" d="M323.5,565.14h12.42a9,9,0,0,0-1.91,5.53h0a9.35,9.35,0,0,0,9.45,9.2h65.19a9.35,9.35,0,0,0,9.45-9.2h0a9.35,9.35,0,0,0-9.45-9.2H396.23a9,9,0,0,0,1.91-5.53h0a9.06,9.06,0,0,0-.36-2.51h32.31a9.35,9.35,0,0,0,9.44-9.2v-4.32a9.35,9.35,0,0,0-9.44-9.2H359.37a9.35,9.35,0,0,0-9.45,9.2v4.32a9.06,9.06,0,0,0,.36,2.51H323.5a9.35,9.35,0,0,0-9.44,9.2h0A9.35,9.35,0,0,0,323.5,565.14Z"/><path class="cls-14" d="M636.39,642.25H621.5a6.48,6.48,0,0,0,2.29-4.72h0c0-4.33-5.1-7.87-11.33-7.87H534.29c-6.23,0-11.32,3.54-11.32,7.87h0c0,4.32,5.09,7.86,11.32,7.86h14.89a6.44,6.44,0,0,0-2.29,4.72h0a5.61,5.61,0,0,0,.44,2.14H508.59c-6.23,0-11.32,3.54-11.32,7.86v3.69c0,4.32,5.09,7.86,11.32,7.86h84.8c6.23,0,11.33-3.54,11.33-7.86v-3.69a5.61,5.61,0,0,0-.44-2.14h32.11c6.23,0,11.33-3.54,11.33-7.86h0C647.72,645.78,642.62,642.25,636.39,642.25Z"/><ellipse class="cls-16" cx="607.23" cy="1061.64" rx="24.41" ry="40.44"/><polyline class="cls-17" points="607.23 1225.74 607.23 1061.64 613.34 1042.57"/><line class="cls-17" x1="607.23" y1="1061.64" x2="593.5" y2="1042.57"/><line class="cls-17" x1="607.23" y1="1092.23" x2="624.02" y2="1071.2"/><line class="cls-17" x1="607.23" y1="1071.2" x2="593.5" y2="1071.2"/><ellipse class="cls-16" cx="387.86" cy="1055.65" rx="24.41" ry="40.44"/><polyline class="cls-17" points="387.86 1219.76 387.86 1055.65 393.96 1036.58"/><line class="cls-17" x1="387.86" y1="1055.65" x2="374.12" y2="1036.58"/><line class="cls-17" x1="387.86" y1="1086.24" x2="404.64" y2="1065.22"/><line class="cls-17" x1="387.86" y1="1065.22" x2="374.12" y2="1065.22"/><ellipse class="cls-16" cx="214.3" cy="1053.13" rx="24.41" ry="40.44"/><polyline class="cls-17" points="214.3 1217.23 214.3 1053.13 220.4 1034.06"/><line class="cls-17" x1="214.3" y1="1053.13" x2="200.57" y2="1034.06"/><line class="cls-17" x1="214.3" y1="1083.72" x2="231.08" y2="1062.69"/><line class="cls-17" x1="214.3" y1="1062.69" x2="200.57" y2="1062.69"/><ellipse class="cls-18" cx="870.94" cy="1055.65" rx="24.41" ry="40.44"/><polyline class="cls-17" points="870.94 1219.76 870.94 1055.65 877.04 1036.58"/><line class="cls-17" x1="870.94" y1="1055.65" x2="857.2" y2="1036.58"/><line class="cls-17" x1="870.94" y1="1086.24" x2="887.72" y2="1065.22"/><line class="cls-17" x1="870.94" y1="1065.22" x2="857.2" y2="1065.22"/><ellipse class="cls-18" cx="1423.75" cy="1056.11" rx="24.41" ry="40.44"/><polyline class="cls-17" points="1423.75 1220.21 1423.75 1056.11 1429.85 1037.04"/><line class="cls-17" x1="1423.75" y1="1056.11" x2="1410.02" y2="1037.04"/><line class="cls-17" x1="1423.75" y1="1086.7" x2="1440.54" y2="1065.67"/><line class="cls-17" x1="1423.75" y1="1065.67" x2="1410.02" y2="1065.67"/><ellipse class="cls-18" cx="1030.41" cy="1045.43" rx="24.41" ry="40.44"/><polyline class="cls-17" points="1030.41 1209.53 1030.41 1045.43 1036.51 1026.36"/><line class="cls-17" x1="1030.41" y1="1045.43" x2="1016.67" y2="1026.36"/><line class="cls-17" x1="1030.41" y1="1076.02" x2="1047.19" y2="1054.99"/><line class="cls-17" x1="1030.41" y1="1054.99" x2="1016.67" y2="1054.99"/><ellipse class="cls-18" cx="1570.88" cy="1056.11" rx="24.41" ry="40.44"/><polyline class="cls-17" points="1570.88 1220.21 1570.88 1056.11 1576.98 1037.04"/><line class="cls-17" x1="1570.88" y1="1056.11" x2="1557.15" y2="1037.04"/><line class="cls-17" x1="1570.88" y1="1086.7" x2="1587.67" y2="1065.67"/><line class="cls-17" x1="1570.88" y1="1065.67" x2="1557.15" y2="1065.67"/><rect class="cls-6" x="1053.02" y="695.62" width="143.43" height="529.15"/><rect class="cls-8" x="1150.85" y="769.65" width="18.92" height="44.38" rx="5.31" ry="5.31" transform="translate(2320.63 1583.67) rotate(-180)"/><rect class="cls-8" x="1111.95" y="769.65" width="18.92" height="44.38" rx="5.31" ry="5.31" transform="translate(2242.83 1583.67) rotate(-180)"/><rect class="cls-8" x="1072.45" y="769.65" width="18.92" height="44.38" rx="5.31" ry="5.31" transform="translate(2163.82 1583.67) rotate(-180)"/><rect class="cls-8" x="1150.85" y="837.39" width="18.92" height="44.38" rx="5.31" ry="5.31" transform="translate(2320.63 1719.16) rotate(180)"/><rect class="cls-8" x="1111.95" y="837.39" width="18.92" height="44.38" rx="5.31" ry="5.31" transform="translate(2242.83 1719.16) rotate(-180)"/><rect class="cls-8" x="1072.45" y="837.39" width="18.92" height="44.38" rx="5.31" ry="5.31" transform="translate(2163.82 1719.16) rotate(180)"/><rect class="cls-8" x="1151.16" y="905.13" width="18.92" height="44.38" rx="5.31" ry="5.31" transform="translate(2321.24 1854.64) rotate(180)"/><rect class="cls-8" x="1112.26" y="905.13" width="18.92" height="44.38" rx="5.31" ry="5.31" transform="translate(2243.44 1854.64) rotate(-180)"/><rect class="cls-8" x="1072.75" y="905.13" width="18.92" height="44.38" rx="5.31" ry="5.31" transform="translate(2164.43 1854.64) rotate(180)"/><rect class="cls-8" x="1150.85" y="963.53" width="18.92" height="44.38" rx="5.31" ry="5.31" transform="translate(2320.63 1971.44) rotate(-180)"/><rect class="cls-8" x="1111.95" y="963.53" width="18.92" height="44.38" rx="5.31" ry="5.31" transform="translate(2242.83 1971.44) rotate(180)"/><rect class="cls-8" x="1072.45" y="963.53" width="18.92" height="44.38" rx="5.31" ry="5.31" transform="translate(2163.82 1971.44) rotate(-180)"/><rect class="cls-8" x="1151.46" y="1031.54" width="18.92" height="44.38" rx="5.31" ry="5.31" transform="translate(2321.85 2107.46) rotate(180)"/><rect class="cls-8" x="1112.56" y="1031.54" width="18.92" height="44.38" rx="5.31" ry="5.31" transform="translate(2244.05 2107.46) rotate(-180)"/><rect class="cls-8" x="1073.06" y="1031.54" width="18.92" height="44.38" rx="5.31" ry="5.31" transform="translate(2165.04 2107.46) rotate(-180)"/><rect class="cls-8" x="1151.77" y="1099.55" width="18.92" height="44.38" rx="5.31" ry="5.31" transform="translate(2322.46 2243.48) rotate(180)"/><rect class="cls-8" x="1112.87" y="1099.55" width="18.92" height="44.38" rx="5.31" ry="5.31" transform="translate(2244.66 2243.48) rotate(-180)"/><rect class="cls-8" x="1073.36" y="1099.55" width="18.92" height="44.38" rx="5.31" ry="5.31" transform="translate(2165.65 2243.48) rotate(180)"/><path class="cls-8" d="M1128.34,1224.43v-24.15s-17.52-28.94-33.25,0v24.15Z"/><text class="cls-19" transform="translate(497.47 88.33)"><tspan class="cls-20">M</tspan><tspan x="84.9" y="0">a</tspan><tspan class="cls-21" x="137.7" y="0">k</tspan><tspan class="cls-22" x="190.5" y="0">e the </tspan><tspan class="cls-23" x="431.79" y="0">w</tspan><tspan class="cls-14" x="506.19" y="0">o</tspan><tspan class="cls-24" x="563.89" y="0">r</tspan><tspan class="cls-14" x="601.59" y="0">k</tspan><tspan class="cls-25" x="14.55" y="120">w</tspan><tspan x="88.95" y="120">o</tspan><tspan class="cls-26" x="146.65" y="120">r</tspan><tspan x="184.35" y="120">ld a </tspan><tspan class="cls-20" x="364.65" y="120">b</tspan><tspan x="424.74" y="120">et</tspan><tspan class="cls-27" x="514.24" y="120">t</tspan><tspan x="550.44" y="120">er</tspan><tspan class="cls-14"><tspan class="cls-25" x="75.15" y="240">w</tspan><tspan x="149.55" y="240">o</tspan><tspan class="cls-26" x="207.25" y="240">r</tspan><tspan x="244.95" y="240">k</tspan><tspan class="cls-28" x="299.15" y="240" xml:space="preserve"> pla</tspan><tspan class="cls-29" x="459.44" y="240">c</tspan><tspan class="cls-30" x="503.44" y="240">e</tspan><tspan class="cls-28" x="554.64" y="240">.</tspan></tspan></text><text></text><text class="cls-31" transform="translate(611.83 529.62)"><tspan class="cls-32">T</tspan><tspan class="cls-28" x="15.34" y="0">ell us wh</tspan><tspan class="cls-33" x="146.19" y="0">a</tspan><tspan class="cls-28" x="163.4" y="0">t </tspan><tspan class="cls-34" x="182.95" y="0">y</tspan><tspan class="cls-28" x="199.54" y="0">o</tspan><tspan class="cls-35" x="219.31" y="0">u</tspan><tspan class="cls-36" x="238.35" y="0">’</tspan><tspan class="cls-34" x="244.4" y="0">r</tspan><tspan class="cls-28" x="255.81" y="0">e thin</tspan><tspan class="cls-37" x="341.78" y="0">k</tspan><tspan class="cls-28" x="359.27" y="0">in</tspan><tspan class="cls-38" x="387.68" y="0">g</tspan><tspan class="cls-28" x="407.26" y="0">.</tspan><tspan class="cls-39" x="414.71" y="0"> </tspan></text></g></g></svg>