<svg xmlns="http://www.w3.org/2000/svg" viewBox="0 0 355 355"><defs><style>.cls-1{fill:#f3f0e1;}.cls-2{fill:#73d3d6;stroke:#73d3d6;}.cls-2,.cls-3,.cls-4,.cls-5,.cls-6{stroke-miterlimit:10;}.cls-3{fill:#fff;stroke:#fff;}.cls-4{stroke:#000;}.cls-5{fill:none;}.cls-5,.cls-6{stroke:#008084;}.cls-6{fill:#008084;}</style></defs><title>big-eye</title><g id="Layer_2" data-name="Layer 2"><g id="Layer_1-2" data-name="Layer 1"><circle class="cls-1" cx="177.5" cy="177.5" r="177"/><path class="cls-1" d="M177.5,1A176.49,176.49,0,0,1,302.3,302.3,176.49,176.49,0,1,1,52.7,52.7,175.32,175.32,0,0,1,177.5,1m0-1A177.5,177.5,0,1,0,355,177.5,177.5,177.5,0,0,0,177.5,0Z"/><rect class="cls-2" x="102.54" y="113.91" width="148.32" height="203.09" rx="12" ry="12"/><rect class="cls-3" x="125.05" y="124.68" width="103.3" height="145.07" rx="12" ry="12"/><rect class="cls-4" x="138.04" y="124.68" width="77.32" height="108.58" rx="12" ry="12"/><circle class="cls-3" cx="185.82" cy="147.56" r="13.5"/><path class="cls-5" d="M162.73,291.81s15.37,9.07,27.93,0"/><polyline class="cls-5" points="140.45 113.91 140.45 86.71 154.06 72.2 125.05 72.2 125.05 54.07 102.54 75.83 77.9 54.07"/><polyline class="cls-5" points="212.94 113.91 240.63 83.99 212.94 70.39 208.71 37.75 277.1 26.87 277.1 70.39"/><circle class="cls-6" cx="77.9" cy="54.07" r="11.37"/><circle class="cls-6" cx="277.1" cy="70.39" r="11.37"/></g></g></svg>