<svg xmlns="http://www.w3.org/2000/svg" viewBox="0 0 355 355"><defs><style>.cls-1{fill:#f3f0e1;}.cls-2{fill:#4ce83f;stroke:#4ce83f;}.cls-2,.cls-3,.cls-4,.cls-5{stroke-miterlimit:10;}.cls-3{fill:none;stroke:#72ff66;stroke-width:2px;}.cls-4{fill:#fff;stroke:#fff;}.cls-5{stroke:#000;}</style></defs><title>cactus</title><g id="Layer_2" data-name="Layer 2"><g id="Layer_1-2" data-name="Layer 1"><circle class="cls-1" cx="177.5" cy="177.5" r="177"/><path class="cls-1" d="M177.5,1A176.49,176.49,0,0,1,302.3,302.3,176.49,176.49,0,1,1,52.7,52.7,175.32,175.32,0,0,1,177.5,1m0-1A177.5,177.5,0,1,0,355,177.5,177.5,177.5,0,0,0,177.5,0Z"/><polygon class="cls-2" points="158.86 113.42 158.86 76.58 170.8 142.5 158.86 113.42"/><path class="cls-2" d="M95.39,284v-69.8S51,210.35,55.72,161.89s30-29.08,29-19.39,1,40.71,10.67,36.84c0,0-18.53-93.06,89.61-89.19,0,0,60.95,3.88,76.79,50.41,0,0,10.95,5.82,15.33-29.08,0,0,27.43-21.33,25.6,17.45s-37.13,36.83-37.13,36.83V284Z"/><path class="cls-3" d="M158.86,113.42s-24.49-3.88-23.1,52.34,0,118.27,0,118.27"/><path class="cls-3" d="M208.36,113.42s24.49-3.88,23.09,52.34,0,118.27,0,118.27"/><path class="cls-3" d="M179.09,113.36S192,142.5,191.42,171.58V284"/><polygon class="cls-2" points="47.23 125.83 64.43 177.32 91.98 217.04 47.23 125.83"/><polygon class="cls-2" points="262.66 212.38 279.2 189.39 249.85 244.7 262.66 212.38"/><polyline class="cls-2" points="208.36 113.42 188.29 92.07 177.83 70.97"/><polyline class="cls-2" points="293.67 125.34 300.79 105.5 311.94 93.74"/><polyline class="cls-2" points="88.12 163.63 64.43 177.32 43.05 181.84"/><polyline class="cls-2" points="238.82 124.5 244.38 109.4 253.42 102.34"/><polyline class="cls-2" points="127.89 123.45 107.97 110.62 96.98 95.63"/><path class="cls-4" d="M177.63,187.36h66.15S217,236.57,177.63,187.36Z"/><path class="cls-5" d="M197.52,187.05H223.9S213.22,209.51,197.52,187.05Z"/><path class="cls-4" d="M111.87,188.47H178S151.23,237.68,111.87,188.47Z"/><path class="cls-5" d="M131.75,188.15h26.38S147.45,210.62,131.75,188.15Z"/></g></g></svg>