<svg xmlns="http://www.w3.org/2000/svg" viewBox="0 0 778.06 778.06"><defs><style>.cls-1{fill:#f3f0e1;stroke:#f3f0e1;}.cls-1,.cls-4,.cls-5,.cls-6{stroke-miterlimit:10;}.cls-2{fill:#e2d4b1;}.cls-3{fill:#867746;}.cls-4,.cls-5,.cls-6{stroke:#000;}.cls-5{fill:#fff;}.cls-6{fill:#c6d000;}</style></defs><title>Crash tes dummies</title><g id="Layer_2" data-name="Layer 2"><g id="Layer_1-2" data-name="Layer 1"><circle class="cls-1" cx="389.03" cy="389.03" r="388.53"/><ellipse class="cls-2" cx="388.98" cy="389.25" rx="203.7" ry="296.96"/><polygon class="cls-3" points="372.35 340.71 347.65 461.78 440.91 461.78 404.91 340.71 372.35 340.71"/><circle class="cls-4" cx="312.47" cy="354.62" r="22.09"/><circle class="cls-4" cx="462.99" cy="354.62" r="22.09"/><path class="cls-5" d="M312.47,510.87v26.18s95.71,14.72,159.52,0l-9-34.36Z"/><circle class="cls-4" cx="392.23" cy="221.23" r="55.63"/><path class="cls-6" d="M390.6,222.91v52.47s-43.53-1.65-50.79-52.47Z"/><path class="cls-6" d="M390.6,222.91V167.08s46.32,1.75,54,55.83Z"/><circle class="cls-4" cx="246.8" cy="454.5" r="33.45"/><path class="cls-6" d="M245.82,455.51v31.55s-26.17-1-30.54-31.55Z"/><path class="cls-6" d="M245.82,455.51V422s27.85,1.05,32.49,33.56Z"/><circle class="cls-4" cx="538.66" cy="454.5" r="33.45"/><path class="cls-6" d="M537.69,455.51v31.55s-26.18-1-30.54-31.55Z"/><path class="cls-6" d="M537.69,455.51V422s27.84,1.05,32.49,33.56Z"/></g></g></svg>