<svg xmlns="http://www.w3.org/2000/svg" viewBox="0 0 355 355"><defs><style>.cls-1{fill:#f3f0e1;}.cls-2{fill:#ba7800;stroke:#ba7800;}.cls-2,.cls-3,.cls-4,.cls-5{stroke-miterlimit:10;}.cls-3{fill:#ffa400;stroke:#ffa400;}.cls-4{fill:#fff;stroke:#fff;}.cls-5{stroke:#000;}</style></defs><title>orange-alien</title><g id="Layer_2" data-name="Layer 2"><g id="Layer_1-2" data-name="Layer 1"><circle class="cls-1" cx="177.5" cy="177.5" r="177"/><path class="cls-1" d="M177.5,1A176.49,176.49,0,0,1,302.3,302.3,176.49,176.49,0,1,1,52.7,52.7,175.32,175.32,0,0,1,177.5,1m0-1A177.5,177.5,0,1,0,355,177.5,177.5,177.5,0,0,0,177.5,0Z"/><path class="cls-2" d="M104.79,150.1c31.8,30.23-35.57-28.23-20.38-40.87,31.84-26.48,56,40.87,56,40.87Z"/><path class="cls-2" d="M128.22,95.34V69.6s32.69-7,32.69,12.87v55.24Z"/><path class="cls-2" d="M217.14,130.26c25,2.77,10.9-54.49,10.9-54.49S168.1,124.81,217.14,130.26Z"/><path class="cls-2" d="M215.14,115.82s84.46-40.87,49,0S247.83,129.44,215.14,115.82Z"/><path class="cls-3" d="M82.15,256.31V139.16s79-136.22,190.7,0V256.31S218.37,324.42,82.15,256.31Z"/><path class="cls-2" d="M152.86,227.7c.06,2.18,49.28,0,49.28,0"/><ellipse class="cls-4" cx="177.5" cy="160.23" rx="54.49" ry="46.32"/><path class="cls-5" d="M231.11,159.42c-4.11,8.8-39.61,34.09-58,25.49s-21-58.52-16.9-67.31,29.53-9.16,47.93-.57S235.22,150.63,231.11,159.42Z"/><circle class="cls-4" cx="193.2" cy="123.48" r="9.56"/></g></g></svg>