<svg xmlns="http://www.w3.org/2000/svg" viewBox="0 0 355 355"><defs><style>.cls-1{fill:#f3f0e1;}.cls-2{fill:#e6667b;stroke:#e6667b;}.cls-2,.cls-3,.cls-4,.cls-5{stroke-miterlimit:10;}.cls-3{fill:#fff;stroke:#fff;}.cls-4,.cls-5{stroke:#000;}.cls-5{fill:none;}</style></defs><title>pink-alien</title><g id="Layer_2" data-name="Layer 2"><g id="Layer_1-2" data-name="Layer 1"><circle class="cls-1" cx="177.5" cy="177.5" r="177"/><path class="cls-1" d="M177.5,1A176.49,176.49,0,0,1,302.3,302.3,176.49,176.49,0,1,1,52.7,52.7,175.32,175.32,0,0,1,177.5,1m0-1A177.5,177.5,0,1,0,355,177.5,177.5,177.5,0,0,0,177.5,0Z"/><path class="cls-2" d="M89.13,281.4V161.26s-12.84-17.72-36,0c0,0,14.3-39.38,36-21.66L79.17,112l26,7.88V92.33l19.4,17.73s3.94-29.54,13.79-36.44c0,0,2,28.56,9.84,32.5L164,84.46l7.88,17.72s11.81-29.54,17.72-28.56-5.91,14.77,0,28.56L195.48,116s3.94-35.45,25.6-27.58V116L260.47,94.3l-9.85,25.61,33.48-11.82-11.81,25.6s23.63-2,29.54,15.76c0,0-33.48-11.82-43.33,3.94l5.91,128Z"/><ellipse class="cls-3" cx="177.5" cy="193.6" rx="54.47" ry="38.16"/><ellipse class="cls-4" cx="177.5" cy="178.55" rx="32.98" ry="23.11"/><ellipse class="cls-3" cx="177.5" cy="168.93" rx="19.8" ry="11.74"/><path class="cls-5" d="M127.49,242.43s60.31,18,100,7.88"/><rect class="cls-3" x="210.48" y="253.41" width="15.58" height="15.58"/></g></g></svg>