<svg xmlns="http://www.w3.org/2000/svg" viewBox="0 0 355 355"><defs><style>.cls-1{fill:#f3f0e1;}.cls-2{fill:#c7efcf;stroke:#c7efcf;}.cls-2,.cls-3,.cls-4,.cls-5{stroke-miterlimit:10;}.cls-3{fill:#fff;stroke:#fff;}.cls-4{stroke:#000;}.cls-5{fill:#7f9984;stroke:#7f9984;}</style></defs><title>spotted-alien</title><g id="Layer_2" data-name="Layer 2"><g id="Layer_1-2" data-name="Layer 1"><circle class="cls-1" cx="177.5" cy="177.5" r="177"/><path class="cls-1" d="M177.5,1A176.49,176.49,0,0,1,302.3,302.3,176.49,176.49,0,1,1,52.7,52.7,175.32,175.32,0,0,1,177.5,1m0-1A177.5,177.5,0,1,0,355,177.5,177.5,177.5,0,0,0,177.5,0Z"/><path class="cls-2" d="M267.68,260.16s-48.24,36.17-173.63,0V132.35s84.4-120.57,171.21,0C265.26,132.35,272.5,202.28,267.68,260.16Z"/><ellipse class="cls-3" cx="211.19" cy="236.19" rx="26.53" ry="17.12"/><ellipse class="cls-4" cx="211.19" cy="222.23" rx="16.93" ry="6.98"/><ellipse class="cls-3" cx="144.69" cy="238.1" rx="26.53" ry="17.12"/><ellipse class="cls-4" cx="144.69" cy="224.14" rx="16.93" ry="6.98"/><path class="cls-5" d="M118.16,151c0,12.65,3.66,22.91-15.65,22.91S94.05,163.69,94.05,151s-19.31-18.69,0-18.69S118.16,138.39,118.16,151Z"/><path class="cls-5" d="M179.65,100c0,12.65-15.65,22.91-35,22.91s-7.84-4.91-7.84-17.57S138.23,83,157.54,83,179.65,87.34,179.65,100Z"/><path class="cls-5" d="M236.69,111.4c0,12.66,19.31,0,0,0s-35-10.25-35-22.9,6,.3,25.29.3S236.69,98.75,236.69,111.4Z"/><path class="cls-5" d="M269.34,154.59V177.5c-19.31,0-35-10.26-35-22.91s-.47-30,18.84-30S269.34,141.94,269.34,154.59Z"/></g></g></svg>