<svg xmlns="http://www.w3.org/2000/svg" viewBox="0 0 778.06 778.06"><defs><style>.cls-1{fill:#f3f0e1;stroke:#f3f0e1;}.cls-1,.cls-2,.cls-3,.cls-4{stroke-miterlimit:10;}.cls-2{fill:none;}.cls-2,.cls-3,.cls-4{stroke:#000;stroke-width:4px;}.cls-3,.cls-5{fill:#fff;}.cls-5{font-size:107.69px;font-family:AvenirNextCondensed-Bold, Avenir Next Condensed;font-weight:700;}.cls-6{letter-spacing:-0.03em;}</style></defs><title>SQL injection</title><g id="Layer_2" data-name="Layer 2"><g id="Layer_1-2" data-name="Layer 1"><circle class="cls-1" cx="389.03" cy="389.03" r="388.53"/><line class="cls-2" x1="262.03" y1="522.51" x2="134.4" y2="660.22"/><rect class="cls-3" x="496.25" y="188.44" width="113.21" height="40.87" transform="translate(23.86 472.38) rotate(-47.18)"/><rect class="cls-3" x="492.44" y="177.83" width="31.48" height="158.5" rx="12" ry="12" transform="translate(-25.8 455.06) rotate(-47.18)"/><rect class="cls-3" x="243.44" y="488.71" width="67.37" height="35.34" rx="12" ry="12" transform="translate(-282.65 365.43) rotate(-47.18)"/><path class="cls-3" d="M259.81,441.39s33,55.41,83.44,77.33l196-211.44L455.77,230Z"/><rect class="cls-3" x="583.71" y="104.22" width="17.12" height="124.26" transform="translate(67.67 487.67) rotate(-47.18)"/><path class="cls-4" d="M281.46,439.78s22.36,42.94,61.5,57L518.22,307.66l-61.49-57Z"/><text class="cls-5" transform="matrix(0.68, -0.73, 0.73, 0.68, 358.93, 476.02)">SQL<tspan class="cls-6" x="161.96" y="0">.</tspan></text></g></g></svg>