<svg xmlns="http://www.w3.org/2000/svg" viewBox="0 0 910.66 979.61"><defs><style>.cls-1{fill:#f3f0e1;stroke:#f3f0e1;}.cls-1,.cls-10,.cls-11,.cls-12,.cls-13,.cls-14,.cls-15,.cls-16,.cls-17,.cls-18,.cls-19,.cls-2,.cls-20,.cls-21,.cls-3,.cls-4,.cls-5,.cls-6,.cls-7,.cls-8,.cls-9{stroke-miterlimit:10;}.cls-10,.cls-2{fill:none;}.cls-10,.cls-15,.cls-17,.cls-18,.cls-19,.cls-2,.cls-20,.cls-4,.cls-5,.cls-6,.cls-7,.cls-9{stroke:#231f20;}.cls-10,.cls-13,.cls-15,.cls-17,.cls-18,.cls-19,.cls-2,.cls-20,.cls-4,.cls-5,.cls-6,.cls-7,.cls-8,.cls-9{stroke-linecap:round;}.cls-2,.cls-6,.cls-7,.cls-8{stroke-width:2px;}.cls-3,.cls-5{fill:#edeec9;}.cls-11,.cls-12,.cls-13,.cls-14,.cls-16,.cls-21,.cls-3{stroke:#000;}.cls-11,.cls-6,.cls-8{fill:#fff;}.cls-8{stroke:#fff;}.cls-9{fill:#c2c3a5;}.cls-12{fill:#dee5e4;}.cls-13,.cls-14{fill:#7cbdff;}.cls-15,.cls-16{fill:#927d6f;}.cls-17{fill:#5d5047;}.cls-18{fill:#efe16d;}.cls-19{fill:#fc9e4f;}.cls-20{fill:#a16533;}</style></defs><title>blue-team</title><g id="Layer_2" data-name="Layer 2"><g id="Layer_1-2" data-name="Layer 1"><circle class="cls-1" cx="452.27" cy="436.85" r="384"/><path class="cls-2" d="M247.75,184.42s-15.22-15.23-30.45,0"/><path class="cls-3" d="M210.27,392.73S180.65,498.65,202,581.42l-9,10.34s-36.93-127.12,17.21-244"/><path class="cls-3" d="M190.57,586.59s.63,21,12.67,22,19.52-8.91,19.52-8.91L205,576.05Z"/><path class="cls-4" d="M275.55,116s38.91-9.59,27.63,25.93c0,0-31,35.52-70.48-4.51,0,0-24.24-38.9,9-53C241.72,84.4,277.76,75.58,275.55,116Z"/><path class="cls-2" d="M315.82,182.92s-15.23-15.23-30.45,0"/><path class="cls-4" d="M216.57,201.84S200.14,159,223,148.9c0,0,68.48-23.14,85.85,0,0,0,17.41,7.81,8.84,55.07"/><path class="cls-5" d="M213.62,204s-27.28,8.49,0,30.71Z"/><path class="cls-5" d="M317.66,204s27.28,8.49,0,30.71Z"/><path class="cls-3" d="M248.68,328V303.51s-37.08-11.9-29.38-62.27l2.1-45.47s-7.35-25.89,12.07-42.68c0,0,33.4,28.69,63.48-4.19,0,0,17.49,9.79,16.09,47.57l.08,42s9.72,53.17-31.56,63.67l.7,25.88S269.13,368.27,248.68,328Z"/><circle class="cls-6" cx="232.53" cy="219.33" r="23.7"/><circle class="cls-6" cx="299.57" cy="219.33" r="23.7"/><line class="cls-2" x1="256.23" y1="219.33" x2="275.87" y2="219.33"/><circle class="cls-7" cx="232.53" cy="219.33" r="9.62"/><circle class="cls-8" cx="238.11" cy="216.69" r="2.64"/><circle class="cls-7" cx="300.59" cy="219.33" r="9.62"/><circle class="cls-8" cx="306.18" cy="216.69" r="2.64"/><path class="cls-9" d="M258.7,219.33v34.28s9.1,9.79,14.7,0V219.33Z"/><path class="cls-10" d="M267.48,275.21s9.09,12.59,16.79,0"/><path class="cls-11" d="M238.27,325.73s1-7,8-4c0,0,4,16,20,15,0,0,22-3,17-16,0,0,9-3,7,5,0,0,12,50-24,43S238.27,325.73,238.27,325.73Z"/><path class="cls-12" d="M266.13,483.44l-55.86-1.95V392.4l.32-43.67c15-18,27.61-22.54,27.61-22.54s-5.53,23.53,27.93,22.54"/><path class="cls-12" d="M262.4,483.44l55.87-1.95V392.4l-.33-43.67c-15-18-27.61-22.54-27.61-22.54s5.53,23.53-27.93,22.54"/><path class="cls-13" d="M211.91,149.23s-2.58,7.72,0,13.5H318.77s0-13.5-5.15-13.5Z"/><path class="cls-3" d="M317.77,392.73S347.39,498.65,326,581.42l9,10.34s36.93-127.12-17.2-244"/><path class="cls-3" d="M339.76,586.59s-.63,21-12.67,22-19.52-8.91-19.52-8.91l17.78-23.59Z"/><rect class="cls-11" x="208.77" y="478.89" width="113" height="9.6"/><polygon class="cls-3" points="293.17 907.23 293.17 623.45 283.26 618.31 283.26 890.95 293.17 907.23"/><polygon class="cls-3" points="246.17 888.12 246.17 618.31 236.26 623.39 236.26 904.23 246.17 888.12"/><path class="cls-14" d="M225,887.11s-33.61-3.1-49.13,18.62h72.43l.29-17.5S235.37,887,225,887.11Z"/><path class="cls-14" d="M298.4,638.05l1.46-95.48c27.44-25.06,17.05-54.13,17.05-54.13H212.42c-1,41.1,19.66,52.13,19.66,52.13l.19,100.66,23-1-.43-88.68c15.52,7.24,21.72,0,21.72,0l-2.16,87.5Z"/><path class="cls-14" d="M306.56,890.11s33.61-3.1,49.13,18.62H283.27l-.3-17.5S296.16,890,306.56,890.11Z"/><path class="cls-4" d="M386.3,139l-10-25.88s-15,16-22-12,2-18,10-17c0,0-10,19-23-3s13-48,23-30c0,0-20-28,16-12,0,0-13-15,7-12,0,0,40-49,58,0,0,0,21-17,16,6s-22-18-7-20,36-7,32,13c0,0-7,9-11-6s14-30,26-10c5.71,9.52,7.11,20.63,5.51,28.9-1.77,9.1-7.18,14.77-14.51,11.1-14-7,18-29,24-13s24,29-8,39,8-12,8-12,21-4,17,9-15,37-34,30c0,0-11,10-20,10l3.85,32.56Z"/><path class="cls-2" d="M416.75,158.82s-15.22-15.22-30.45,0"/><path class="cls-2" d="M484.82,157.32s-15.23-15.22-30.45,0"/><path class="cls-4" d="M385.57,176.25s-16.43-42.86,6.4-52.95c0,0,68.48-23.13,85.85,0,0,0,17.41,7.81,8.84,55.08"/><path class="cls-15" d="M382.62,178.38s-27.28,8.49,0,30.71Z"/><path class="cls-15" d="M486.66,178.38s27.28,8.49,0,30.71Z"/><path class="cls-16" d="M417.68,302.4V277.91S380.6,266,388.3,215.65l2.1-45.48s-7.35-25.88,12.07-42.67c0,0,33.4,28.68,63.48-4.2,0,0,17.49,9.8,16.09,47.57l.08,42s9.72,53.17-31.56,63.66l.7,25.89S438.13,342.67,417.68,302.4Z"/><circle class="cls-6" cx="401.53" cy="193.73" r="23.7"/><circle class="cls-6" cx="468.57" cy="193.73" r="23.7"/><line class="cls-2" x1="425.23" y1="193.73" x2="444.87" y2="193.73"/><circle class="cls-7" cx="401.53" cy="193.73" r="9.62"/><circle class="cls-8" cx="407.11" cy="191.09" r="2.64"/><circle class="cls-7" cx="469.59" cy="193.73" r="9.62"/><circle class="cls-8" cx="475.18" cy="191.09" r="2.64"/><path class="cls-17" d="M427.7,193.73V228s9.1,9.8,14.7,0V193.73Z"/><path class="cls-10" d="M436.48,249.62s9.09,12.59,16.79,0"/><path class="cls-11" d="M407.27,300.14s1-7,8-4c0,0,4,16,20,15,0,0,22-3,17-16,0,0,9-3,7,5,0,0,12,50-24,43S407.27,300.14,407.27,300.14Z"/><path class="cls-12" d="M435.13,457.85l-55.86-2V366.8l.32-43.66c15-18,27.61-22.55,27.61-22.55s-5.53,23.54,27.93,22.54"/><path class="cls-12" d="M431.4,457.85l55.87-2V366.8l-.33-43.66c-15-18-27.61-22.55-27.61-22.55s5.53,23.54-27.93,22.54"/><path class="cls-13" d="M380.91,123.64s-2.58,7.71,0,13.5H487.77s0-13.5-5.15-13.5Z"/><path class="cls-16" d="M379.27,367.14S349.65,473.05,371,555.82l-9,10.35s-36.93-127.12,17.21-244"/><path class="cls-16" d="M486.77,367.14S516.39,473.05,495,555.82l9,10.35s36.93-127.12-17.2-244"/><path class="cls-16" d="M359.57,561s.63,21,12.67,22S391.76,574,391.76,574L374,550.46Z"/><path class="cls-16" d="M508.76,561s-.63,21-12.67,22S476.57,574,476.57,574l17.78-23.58Z"/><rect class="cls-11" x="377.77" y="453.29" width="113" height="9.6"/><polygon class="cls-16" points="462.17 968.69 462.17 599.4 452.26 592.72 452.26 947.5 462.17 968.69"/><polygon class="cls-16" points="415.17 943.81 415.17 592.72 405.26 599.33 405.26 964.78 415.17 943.81"/><path class="cls-14" d="M394,942.5s-33.61-4-49.13,24.24h72.43l.29-22.78A207.19,207.19,0,0,0,394,942.5Z"/><path class="cls-14" d="M467.4,612.45,468.86,517c27.44-25.06,17.05-54.13,17.05-54.13H381.42c-1,41.1,19.66,52.13,19.66,52.13l.19,100.66,23-1L423.84,526c15.52,7.24,21.72,0,21.72,0l-2.16,87.49Z"/><path class="cls-14" d="M475.56,946.41s33.61-4,49.13,24.23H452.27l-.3-22.77A207.19,207.19,0,0,1,475.56,946.41Z"/><path class="cls-2" d="M605.75,155.83s-15.22-15.22-30.45,0"/><path class="cls-2" d="M673.82,154.33s-15.23-15.22-30.45,0"/><path class="cls-18" d="M574.57,173.25s-16.43-42.85,6.4-52.94c0,0,68.48-23.13,85.85,0,0,0,17.41,7.81,8.84,55.08"/><path class="cls-5" d="M571.62,175.39s-27.28,8.49,0,30.71Z"/><path class="cls-5" d="M675.66,175.39s27.28,8.49,0,30.71Z"/><path class="cls-3" d="M606.68,299.41V274.92S569.6,263,577.3,212.66l2.1-45.48s-7.35-25.88,12.07-42.67c0,0,33.4,28.68,63.48-4.2,0,0,17.49,9.79,16.09,47.57l.08,42s9.72,53.17-31.56,63.66l.7,25.89S627.13,339.68,606.68,299.41Z"/><circle class="cls-6" cx="590.53" cy="190.74" r="23.7"/><circle class="cls-6" cx="657.57" cy="190.74" r="23.7"/><line class="cls-2" x1="614.23" y1="190.74" x2="633.87" y2="190.74"/><circle class="cls-7" cx="590.53" cy="190.74" r="9.62"/><circle class="cls-8" cx="596.11" cy="188.1" r="2.64"/><circle class="cls-7" cx="658.59" cy="190.74" r="9.62"/><circle class="cls-8" cx="664.18" cy="188.1" r="2.64"/><path class="cls-9" d="M616.7,190.74V225s9.1,9.8,14.7,0V190.74Z"/><path class="cls-10" d="M625.48,246.62s9.09,12.6,16.79,0"/><path class="cls-11" d="M596.27,297.15s1-7,8-4c0,0,4,16,20,15,0,0,22-3,17-16,0,0,9-3,7,5,0,0,12,50-24,43S596.27,297.15,596.27,297.15Z"/><path class="cls-12" d="M624.13,454.86l-55.86-2V363.81l.32-43.66c15-18,27.61-22.55,27.61-22.55s-5.53,23.53,27.93,22.54"/><path class="cls-12" d="M620.4,454.86l55.87-2V363.81l-.33-43.66c-15-18-27.61-22.55-27.61-22.55s5.53,23.53-27.93,22.54"/><path class="cls-13" d="M569.91,120.65s-2.58,7.71,0,13.5H676.77s0-13.5-5.15-13.5Z"/><path class="cls-3" d="M568.27,364.15S538.65,470.06,560,552.83l-9,10.35s-36.93-127.12,17.21-244"/><path class="cls-3" d="M675.77,364.15S705.39,470.06,684,552.83l9,10.35s36.93-127.12-17.2-244"/><path class="cls-3" d="M548.57,558s.63,21,12.67,22,19.52-8.92,19.52-8.92L563,547.47Z"/><path class="cls-3" d="M697.76,558s-.63,21-12.67,22-19.52-8.92-19.52-8.92l17.78-23.58Z"/><rect class="cls-11" x="566.77" y="450.3" width="113" height="9.6"/><polygon class="cls-3" points="651.17 878.65 651.17 594.86 641.26 589.72 641.26 862.36 651.17 878.65"/><polygon class="cls-3" points="604.17 859.53 604.17 589.72 594.26 594.81 594.26 875.65 604.17 859.53"/><path class="cls-14" d="M583,858.53s-33.61-3.11-49.13,18.62h72.43l.29-17.5S593.37,858.4,583,858.53Z"/><path class="cls-14" d="M656.4,609.46,657.86,514c27.44-25.06,17-54.13,17-54.13H570.42c-1,41.1,19.66,52.12,19.66,52.12l.19,100.67,23-1L612.84,523c15.52,7.24,21.72,0,21.72,0l-2.16,87.49Z"/><path class="cls-14" d="M664.56,861.53s33.61-3.11,49.13,18.62H641.27l-.3-17.5S654.16,861.4,664.56,861.53Z"/><path class="cls-18" d="M620.27,101.15s-31-39-61,0-11,99-11,99,7,1-6,18l17-12s5.87-58,57.43-94"/><path class="cls-18" d="M601.77,103.15s41.13-39,80.94,0,14.59,99,14.59,99-9.28,1,8,18l-22.56-12s-7.8-58-76.22-94"/><path class="cls-2" d="M801.75,254.79s-15.22-15.22-30.45,0"/><path class="cls-2" d="M869.82,253.29s-15.23-15.22-30.45,0"/><path class="cls-19" d="M770.57,272.21s-16.43-42.85,6.4-52.94c0,0,68.48-23.13,85.85,0,0,0,17.41,7.81,8.84,55.08"/><path class="cls-5" d="M767.62,274.35s-27.28,8.48,0,30.7Z"/><path class="cls-5" d="M871.66,274.35s27.28,8.48,0,30.7Z"/><path class="cls-3" d="M802.68,398.37V373.88S765.6,362,773.3,311.62l2.1-45.48s-7.35-25.88,12.07-42.67c0,0,33.4,28.68,63.48-4.2,0,0,17.49,9.79,16.09,47.57l.08,42s9.72,53.17-31.56,63.66l.7,25.89S823.13,438.64,802.68,398.37Z"/><circle class="cls-6" cx="786.53" cy="289.7" r="23.7"/><circle class="cls-6" cx="853.57" cy="289.7" r="23.7"/><line class="cls-2" x1="810.23" y1="289.7" x2="829.87" y2="289.7"/><circle class="cls-7" cx="786.53" cy="289.7" r="9.62"/><circle class="cls-8" cx="792.11" cy="287.06" r="2.64"/><circle class="cls-7" cx="854.59" cy="289.7" r="9.62"/><circle class="cls-8" cx="860.18" cy="287.06" r="2.64"/><path class="cls-9" d="M812.7,289.7V324s9.1,9.79,14.7,0V289.7Z"/><path class="cls-10" d="M821.48,345.58s9.09,12.6,16.79,0"/><path class="cls-11" d="M792.27,396.11s1-7,8-4c0,0,4,16,20,15,0,0,22-3,17-16,0,0,9-3,7,5,0,0,12,50-24,43S792.27,396.11,792.27,396.11Z"/><path class="cls-12" d="M820.13,553.81l-55.86-1.95V462.77l.32-43.66c15-18,27.61-22.55,27.61-22.55s-5.53,23.53,27.93,22.54"/><path class="cls-12" d="M816.4,553.81l55.87-1.95V462.77l-.33-43.66c-15-18-27.61-22.55-27.61-22.55s5.53,23.53-27.93,22.54"/><path class="cls-13" d="M765.91,219.61s-2.58,7.71,0,13.5H872.77s0-13.5-5.15-13.5Z"/><path class="cls-3" d="M764.27,463.11S734.65,569,756,651.79l-9,10.34s-36.93-127.12,17.21-244"/><path class="cls-3" d="M871.77,463.11S901.39,569,880,651.79l9,10.34s36.93-127.12-17.2-244"/><path class="cls-3" d="M744.57,657s.63,21,12.67,22S776.76,670,776.76,670L759,646.43Z"/><path class="cls-3" d="M893.76,657s-.63,21-12.67,22S861.57,670,861.57,670l17.78-23.58Z"/><rect class="cls-11" x="762.77" y="549.26" width="113" height="9.6"/><polygon class="cls-3" points="847.17 977.61 847.17 693.82 837.26 688.68 837.26 961.32 847.17 977.61"/><polygon class="cls-3" points="800.17 958.49 800.17 688.68 790.26 693.76 790.26 974.61 800.17 958.49"/><path class="cls-14" d="M779,957.48s-33.61-3.1-49.13,18.63h72.43l.29-17.5S789.37,957.36,779,957.48Z"/><path class="cls-14" d="M852.4,708.42,853.86,613c27.44-25.06,17-54.13,17-54.13H766.42c-1,41.1,19.66,52.12,19.66,52.12l.19,100.67,23-1-.43-88.68c15.52,7.24,21.72,0,21.72,0l-2.16,87.49Z"/><path class="cls-14" d="M860.56,960.48s33.61-3.1,49.13,18.63H837.27l-.3-17.5S850.16,960.36,860.56,960.48Z"/><circle class="cls-20" cx="803.27" cy="316.11" r="1"/><circle class="cls-20" cx="795.27" cy="323.11" r="1"/><circle class="cls-20" cx="804.27" cy="324.11" r="1"/><circle class="cls-20" cx="789.27" cy="327.11" r="1"/><circle class="cls-20" cx="796.27" cy="332.11" r="1"/><circle class="cls-20" cx="778.27" cy="322.11" r="1"/><circle class="cls-20" cx="782.27" cy="331.11" r="1"/><circle class="cls-20" cx="786.27" cy="320.11" r="1"/><circle class="cls-20" cx="835.27" cy="316.11" r="1"/><circle class="cls-20" cx="843.27" cy="323.11" r="1"/><circle class="cls-20" cx="834.27" cy="324.11" r="1"/><circle class="cls-20" cx="849.27" cy="327.11" r="1"/><circle class="cls-20" cx="842.27" cy="332.11" r="1"/><circle class="cls-20" cx="860.27" cy="322.11" r="1"/><circle class="cls-20" cx="856.27" cy="331.11" r="1"/><circle class="cls-20" cx="852.27" cy="320.11" r="1"/><path class="cls-15" d="M38.62,179.46s-27.28,8.49,0,30.71Z"/><path class="cls-15" d="M142.66,179.46s27.28,8.49,0,30.71Z"/><path class="cls-16" d="M35.27,368.22S5.65,474.14,27,556.9l-9,10.35s-36.93-127.12,17.21-244"/><path class="cls-16" d="M142.77,368.22S172.39,474.14,151,556.9l9,10.35s36.93-127.12-17.2-244"/><path class="cls-16" d="M15.57,562.07s.63,21,12.67,22,19.52-8.92,19.52-8.92L30,551.54Z"/><path class="cls-2" d="M72.75,159.9s-15.22-15.22-30.45,0"/><path class="cls-2" d="M140.82,158.4s-15.23-15.22-30.45,0"/><path class="cls-4" d="M41.57,177.33s-16.43-42.86,6.4-53c0,0,68.48-23.13,85.85,0,0,0,17.41,7.82,8.84,55.08"/><path class="cls-16" d="M73.68,303.48V279S36.6,267.1,44.3,216.73l2.1-45.47s-7.35-25.89,12.07-42.68c0,0,33.4,28.68,63.48-4.2,0,0,17.49,9.8,16.09,47.58l.08,42s9.72,53.17-31.56,63.66l.7,25.89S94.13,343.75,73.68,303.48Z"/><circle class="cls-6" cx="57.53" cy="194.81" r="23.7"/><circle class="cls-6" cx="124.57" cy="194.81" r="23.7"/><line class="cls-2" x1="81.23" y1="194.81" x2="100.87" y2="194.81"/><circle class="cls-7" cx="57.53" cy="194.81" r="9.62"/><circle class="cls-8" cx="63.11" cy="192.17" r="2.64"/><circle class="cls-7" cx="125.59" cy="194.81" r="9.62"/><circle class="cls-8" cx="131.18" cy="192.17" r="2.64"/><path class="cls-17" d="M83.7,194.81v34.28s9.1,9.8,14.7,0V194.81Z"/><path class="cls-10" d="M92.48,250.7s9.09,12.59,16.79,0"/><path class="cls-11" d="M63.27,301.22s1-7,8-4c0,0,4,16,20,15,0,0,22-3,17-16,0,0,9-3,7,5,0,0,12,50-24,43S63.27,301.22,63.27,301.22Z"/><path class="cls-12" d="M91.13,458.93l-55.86-2V367.89l.32-43.67c15-18,27.61-22.55,27.61-22.55s-5.53,23.54,27.93,22.54"/><path class="cls-12" d="M87.4,458.93l55.87-2V367.89l-.33-43.67c-15-18-27.61-22.55-27.61-22.55s5.53,23.54-27.93,22.54"/><path class="cls-13" d="M36.91,124.72s-2.58,7.72,0,13.5H143.77s0-13.5-5.15-13.5Z"/><path class="cls-16" d="M164.76,562.07s-.63,21-12.67,22-19.52-8.92-19.52-8.92l17.78-23.58Z"/><rect class="cls-11" x="33.77" y="454.37" width="113" height="9.6"/><polygon class="cls-16" points="118.17 969.77 118.17 600.48 108.27 593.8 108.27 948.58 118.17 969.77"/><polygon class="cls-16" points="71.17 944.9 71.17 593.8 61.27 600.41 61.27 965.87 71.17 944.9"/><path class="cls-14" d="M50,943.58s-33.61-4-49.13,24.24H73.27l.29-22.77A208.65,208.65,0,0,0,50,943.58Z"/><path class="cls-14" d="M123.4,613.53l1.46-95.47c27.44-25.06,17-54.13,17-54.13H37.42c-1,41.1,19.66,52.13,19.66,52.13l.19,100.66,23-1L79.84,527c15.52,7.24,21.72,0,21.72,0L99.4,614.53Z"/><path class="cls-14" d="M131.56,947.49s33.61-4,49.13,24.23H108.27L108,949A207.19,207.19,0,0,1,131.56,947.49Z"/><path class="cls-21" d="M66.55,252s-6.26-17.64,23.9-18.21,25.61,14.8,25.61,14.8"/></g></g></svg>