<svg xmlns="http://www.w3.org/2000/svg" viewBox="0 0 395 506.37"><defs><style>.cls-1{fill:#f3f0e1;stroke:#f3f0e1;}.cls-1,.cls-10,.cls-11,.cls-12,.cls-13,.cls-14,.cls-15,.cls-16,.cls-17,.cls-2,.cls-3,.cls-4,.cls-5,.cls-6,.cls-7,.cls-8,.cls-9{stroke-miterlimit:10;}.cls-10,.cls-2,.cls-3,.cls-5,.cls-6,.cls-7,.cls-9{stroke:#231f20;}.cls-10,.cls-11,.cls-2,.cls-3,.cls-5,.cls-6,.cls-7,.cls-8,.cls-9{stroke-linecap:round;}.cls-3,.cls-4{fill:#edeec9;}.cls-11,.cls-12,.cls-13,.cls-15,.cls-16,.cls-17,.cls-4{stroke:#000;}.cls-12,.cls-5,.cls-8{fill:#fff;}.cls-5,.cls-6,.cls-7,.cls-8{stroke-width:2px;}.cls-10,.cls-6{fill:none;}.cls-8{stroke:#fff;}.cls-9{fill:#c2c3a5;}.cls-11{fill:#e1e850;}.cls-13{fill:#cd1731;}.cls-14{fill:#2e2946;stroke:#2e2946;}.cls-15{fill:#dee5e4;}.cls-16{fill:#7cbdff;}</style></defs><title>Executive</title><g id="Layer_2" data-name="Layer 2"><g id="Layer_1-2" data-name="Layer 1"><circle class="cls-1" cx="197.5" cy="263.15" r="197"/><path class="cls-2" d="M163.71,86.3s-10.56-27.56,4.12-34c0,0,44-14.88,55.21,0,0,0,11.19,5,5.68,35.42"/><path class="cls-3" d="M161.81,87.67s-17.54,5.46,0,19.75Z"/><path class="cls-3" d="M228.72,87.67s17.55,5.46,0,19.75Z"/><path class="cls-4" d="M184.36,167.43V151.68s-23.84-7.65-18.89-40l1.35-29.25S162.09,65.75,174.58,55c0,0,21.48,18.45,40.83-2.7,0,0,11.25,6.3,10.35,30.59l.05,27s6.25,34.19-20.3,40.94l.45,16.65S197.52,193.33,184.36,167.43Z"/><circle class="cls-5" cx="173.97" cy="97.55" r="15.24"/><circle class="cls-5" cx="217.09" cy="97.55" r="15.24"/><line class="cls-6" x1="189.22" y1="97.55" x2="201.85" y2="97.55"/><circle class="cls-7" cx="173.97" cy="97.55" r="6.19"/><circle class="cls-8" cx="177.57" cy="95.85" r="1.7"/><circle class="cls-7" cx="217.75" cy="97.55" r="6.19"/><circle class="cls-8" cx="221.34" cy="95.85" r="1.7"/><path class="cls-9" d="M190.81,97.55v22s5.85,6.3,9.45,0v-22Z"/><path class="cls-10" d="M196.45,133.49s5.85,8.09,10.8,0"/><path class="cls-6" d="M183.76,75.09s-9.79-9.79-19.58,0"/><path class="cls-6" d="M227.54,74.13s-9.79-9.79-19.58,0"/><polygon class="cls-11" points="156.5 52.37 156.5 1.37 181.5 26.37 195.5 1.37 209.5 26.37 230.5 1.37 230.5 52.37 156.5 52.37"/><path class="cls-12" d="M176.13,167.53S117.5,258.37,116.5,294.37s13,47,3,60c0,0-10,11-3,37s-15,34-15,34,2,4,20,11,153,2,153,2,14-3,19-13c0,0-19-20-22-38s2-54,2-54-3-15-12-38-48.13-126-48.13-126"/><path class="cls-13" d="M183.5,178.37s7,20,22-5c0,0,38.23,114.62,46.08,134.69s10.47,33.15,10.47,33.15-4.36,31.41-1.74,47.11,19.19,33.15,19.19,33.15c-4.36,8.72-16.58,11.34-16.58,11.34s-117.77,4.36-133.47-1.74-17.45-9.6-17.45-9.6,19.19-7,13.09-29.66,2.61-32.28,2.61-32.28c8.73-11.34-3.49-20.94-2.61-52.34S183.5,179.37,183.5,179.37"/><rect class="cls-14" x="172.65" y="178.9" width="3.71" height="3.71" transform="translate(178.92 -70.45) rotate(45)"/><rect class="cls-14" x="162.65" y="196.9" width="3.71" height="3.71" transform="translate(188.72 -58.11) rotate(45)"/><rect class="cls-14" x="153.65" y="215.9" width="3.71" height="3.71" transform="translate(199.52 -46.18) rotate(45)"/><rect class="cls-14" x="143.65" y="233.9" width="3.71" height="3.71" transform="translate(209.32 -33.83) rotate(45)"/><rect class="cls-14" x="132.65" y="255.9" width="3.71" height="3.71" transform="translate(221.65 -19.61) rotate(45)"/><rect class="cls-14" x="122.65" y="278.9" width="3.71" height="3.71" transform="translate(234.99 -5.8) rotate(45)"/><rect class="cls-14" x="119.65" y="301.9" width="3.71" height="3.71" transform="translate(250.37 3.05) rotate(45)"/><rect class="cls-14" x="121.65" y="325.9" width="3.71" height="3.71" transform="translate(267.93 8.67) rotate(45)"/><rect class="cls-14" x="124.65" y="349.9" width="3.71" height="3.71" transform="translate(285.78 13.58) rotate(45)"/><rect class="cls-14" x="116.65" y="371.9" width="3.71" height="3.71" transform="translate(298.99 25.68) rotate(45)"/><rect class="cls-14" x="119.65" y="401.9" width="3.71" height="3.71" transform="translate(321.08 32.34) rotate(45)"/><rect class="cls-14" x="109.65" y="424.9" width="3.71" height="3.71" transform="translate(334.42 46.15) rotate(45)"/><rect class="cls-14" x="127.65" y="432.9" width="3.71" height="3.71" transform="translate(345.35 35.77) rotate(45)"/><rect class="cls-14" x="156.65" y="434.9" width="3.71" height="3.71" transform="translate(355.25 15.85) rotate(45)"/><rect class="cls-14" x="179.65" y="434.9" width="3.71" height="3.71" transform="translate(361.99 -0.42) rotate(45)"/><rect class="cls-14" x="201.65" y="434.9" width="3.71" height="3.71" transform="translate(368.43 -15.97) rotate(45)"/><rect class="cls-14" x="227.65" y="434.9" width="3.71" height="3.71" transform="translate(376.05 -34.36) rotate(45)"/><rect class="cls-14" x="247" y="434.75" width="3" height="3" transform="translate(381.26 -47.94) rotate(45)"/><rect class="cls-14" x="267.65" y="432.9" width="3.71" height="3.71" transform="translate(386.35 -63.23) rotate(45)"/><rect class="cls-14" x="283.65" y="421.9" width="3.71" height="3.71" transform="translate(383.26 -77.77) rotate(45)"/><rect class="cls-14" x="271.65" y="404.9" width="3.71" height="3.71" transform="translate(367.72 -74.26) rotate(45)"/><rect class="cls-14" x="264.65" y="382.9" width="3.71" height="3.71" transform="translate(350.12 -75.75) rotate(45)"/><rect class="cls-14" x="264.65" y="354.9" width="3.71" height="3.71" transform="translate(330.32 -83.95) rotate(45)"/><rect class="cls-14" x="261.65" y="322.9" width="3.71" height="3.71" transform="translate(306.81 -91.21) rotate(45)"/><rect class="cls-14" x="253.65" y="294.9" width="3.71" height="3.71" transform="translate(284.67 -93.75) rotate(45)"/><rect class="cls-14" x="246.65" y="271.9" width="3.71" height="3.71" transform="translate(266.36 -95.54) rotate(45)"/><rect class="cls-14" x="235.65" y="245.9" width="3.71" height="3.71" transform="translate(244.75 -95.37) rotate(45)"/><rect class="cls-14" x="225.65" y="215.9" width="3.71" height="3.71" transform="translate(220.61 -97.09) rotate(45)"/><rect class="cls-14" x="215.65" y="193.9" width="3.71" height="3.71" transform="translate(202.12 -96.46) rotate(45)"/><rect class="cls-14" x="209.65" y="172.9" width="3.71" height="3.71" transform="translate(185.51 -98.37) rotate(45)"/><path class="cls-12" d="M173.47,175s4-18.63,11-9.63,5,10,8,10,10-11,10-11,10.27-13,13.64,11l-21.64,38Z"/><path class="cls-15" d="M198,271.91,162,270.65v-57.3s-35.93,62.55-3.33,115.78L145,335.78s-47.54-89.82,35-165c0,0,.88,33.6,15.52,31.6"/><path class="cls-15" d="M193.29,271.91l35.93-1.26v-57.3s35.93,62.55,3.33,115.78l13.67,6.65s47.54-89.82-35-165c0,0-3.12,33.6-17.76,31.6"/><path class="cls-16" d="M161.69,279h67.2s6.68,19.3-11,35.93v179s21.61-2,31.59,12H202.94V319.57s-4,4.66-14,0v186.3H141.72s15.31-14.64,32.61-10.64V313.58S161,306.26,161.69,279Z"/><path class="cls-4" d="M242.51,334.05s.9,13.5-6.75,14.85-13-4.5-13-4.5l9.91-16.2Z"/><rect class="cls-12" x="162.02" y="271.55" width="67.2" height="6.18"/><path class="cls-4" d="M148,334.05s-.9,13.5,6.75,14.85,13.05-4.5,13.05-4.5l-9.91-16.2Z"/><path class="cls-17" d="M181.36,133.64s-4.22-11.9,16.13-12.28,17.28,10,17.28,10"/></g></g></svg>