<svg xmlns="http://www.w3.org/2000/svg" viewBox="0 0 395 461.24"><defs><style>.cls-1{fill:#f3f0e1;stroke:#f3f0e1;}.cls-1,.cls-10,.cls-11,.cls-12,.cls-13,.cls-14,.cls-15,.cls-2,.cls-3,.cls-4,.cls-5,.cls-6,.cls-7,.cls-8,.cls-9{stroke-miterlimit:10;}.cls-11,.cls-2,.cls-8{fill:#fff;}.cls-14,.cls-2,.cls-3,.cls-6,.cls-7{stroke:#000;}.cls-3{fill:#7cbdff;}.cls-10,.cls-12,.cls-13,.cls-4,.cls-5,.cls-8,.cls-9{stroke:#231f20;}.cls-10,.cls-11,.cls-12,.cls-13,.cls-14,.cls-4,.cls-5,.cls-8,.cls-9{stroke-linecap:round;}.cls-5,.cls-7{fill:#edeec9;}.cls-10,.cls-11,.cls-8,.cls-9{stroke-width:2px;}.cls-13,.cls-9{fill:none;}.cls-11{stroke:#fff;}.cls-12{fill:#c2c3a5;}.cls-15{stroke:#1a181b;}</style></defs><title>Manager</title><g id="Layer_2" data-name="Layer 2"><g id="Layer_1-2" data-name="Layer 1"><circle class="cls-1" cx="197.5" cy="218.02" r="197"/><polyline class="cls-2" points="184.61 132.61 179.38 178.24 225.38 178.24 211.72 132.61"/><polyline class="cls-2" points="196.38 133.61 184.38 147.5 181.38 125.68 184.38 122.7 206.17 121.71 212.38 125.68 206.17 146.51 196.38 133.68"/><rect class="cls-3" x="193.81" y="143.1" width="6.34" height="31.7"/><rect class="cls-3" x="190.38" y="135.24" width="14" height="9.86" rx="4.93" ry="4.93"/><path class="cls-4" d="M165.59,41.16S155,13.6,169.71,7.11c0,0,44-14.88,55.21,0,0,0,11.19,5,5.68,35.42"/><path class="cls-5" d="M163.7,42.53s-17.55,5.46,0,19.75Z"/><path class="cls-5" d="M230.6,42.53s17.55,5.46,0,19.75Z"/><path class="cls-6" d="M163.57,233.85h67.2s6.68,19.29-11,35.93v179s21.61-2,31.59,12H204.82V274.43s-4,4.66-14,0V460.74H143.61s15.3-14.64,32.6-10.65V268.44S162.9,261.13,163.57,233.85Z"/><rect class="cls-2" x="163.9" y="226.41" width="67.2" height="6.18"/><path class="cls-7" d="M149.91,288.92s-.9,13.49,6.75,14.84,13.05-4.5,13.05-4.5l-9.91-16.19Z"/><path class="cls-7" d="M244.39,288.92s.9,13.49-6.75,14.84-13-4.5-13-4.5l9.91-16.19Z"/><path class="cls-7" d="M186.24,122.29V106.55s-23.84-7.65-18.89-40l1.35-29.24S164,20.61,176.46,9.81c0,0,21.48,18.45,40.83-2.7,0,0,11.25,6.3,10.35,30.6l.05,27s6.25,34.2-20.3,41l.45,16.64S199.4,148.19,186.24,122.29Z"/><circle class="cls-8" cx="175.85" cy="52.41" r="15.24"/><circle class="cls-8" cx="218.97" cy="52.41" r="15.24"/><line class="cls-9" x1="191.1" y1="52.41" x2="203.73" y2="52.41"/><circle class="cls-10" cx="175.85" cy="52.41" r="6.19"/><circle class="cls-11" cx="179.45" cy="50.71" r="1.7"/><circle class="cls-10" cx="219.63" cy="52.41" r="6.19"/><circle class="cls-11" cx="223.22" cy="50.71" r="1.7"/><path class="cls-12" d="M192.69,52.41v22s5.85,6.3,9.45,0v-22Z"/><path class="cls-13" d="M198.33,88.35s5.85,8.1,10.8,0"/><path class="cls-9" d="M185.64,30s-9.79-9.8-19.58,0"/><path class="cls-9" d="M229.42,29s-9.79-9.79-19.58,0"/><polygon class="cls-14" points="176.38 84.23 180.38 77.23 213.38 77.23 218.38 84.23 176.38 84.23"/><path class="cls-6" d="M199.83,226.77l-35.93-1.26V168.22S128,230.76,160.57,284l-13.67,6.66s-47.54-89.83,35-165c0,0,7.52,26.61,17.52,49.61"/><path class="cls-6" d="M195.17,226.77l35.93-1.26V168.22S267,230.76,234.43,284l13.67,6.66s47.54-89.83-35-165c0,0-3.76,18.61-13.76,49.61"/><circle class="cls-15" cx="200.21" cy="186.74" r="3.5"/><circle class="cls-15" cx="200.21" cy="200.74" r="3.5"/><circle class="cls-15" cx="200.21" cy="219.93" r="3.5"/></g></g></svg>