<svg xmlns="http://www.w3.org/2000/svg" viewBox="0 0 778.06 778.06"><defs><style>.cls-1{fill:#f3f0e1;stroke:#f3f0e1;stroke-miterlimit:10;}.cls-2{fill:#fff;}</style></defs><title>new-bro</title><g id="Layer_2" data-name="Layer 2"><g id="Layer_1-2" data-name="Layer 1"><circle class="cls-1" cx="389.03" cy="389.03" r="388.53"/><path d="M389,691.49a302.5,302.5,0,0,1-213.9-516.4,302.5,302.5,0,0,1,427.8,427.8A300.49,300.49,0,0,1,389,691.49Z"/><path d="M389,87a301,301,0,1,1-117.55,23.73A300.23,300.23,0,0,1,389,87m0-1C221.66,86,86,221.65,86,389S221.66,692,389,692,692,556.33,692,389,556.34,86,389,86Z"/><path class="cls-2" d="M266.37,427.67q0,15.68-5.09,26.27A47.24,47.24,0,0,1,247.94,471a53,53,0,0,1-18.56,9.35,76.91,76.91,0,0,1-20.76,2.88H144V288.52h58.3a104,104,0,0,1,19.25,1.93,51.93,51.93,0,0,1,18.56,7.29,42.74,42.74,0,0,1,14,15.26q5.63,9.9,5.64,25.57,0,17.32-7,27.64a41.82,41.82,0,0,1-17.18,15v.55a36.74,36.74,0,0,1,11,4.95,41.07,41.07,0,0,1,9.9,9.21,47,47,0,0,1,7.15,13.61A55.64,55.64,0,0,1,266.37,427.67ZM221,345.58q0-11.34-6.32-16.05a24.19,24.19,0,0,0-14.85-4.71H185v42.35h15.12a23,23,0,0,0,14.44-5Q221,357.21,221,345.58Zm3.58,78.11a27.06,27.06,0,0,0-2.07-11.2A20.84,20.84,0,0,0,217,405a22.91,22.91,0,0,0-7.7-4.29,27.07,27.07,0,0,0-8.38-1.38H185v47.57h16.5a24.18,24.18,0,0,0,16.36-5.81Q224.57,435.31,224.57,423.69Z"/><path class="cls-2" d="M374.86,483.22l-26-77.55H335.94v77.55H293.59V288.52h62.28q28.26,0,43.9,14.72t15.64,43.86A69.42,69.42,0,0,1,413,366.35a53.94,53.94,0,0,1-6.44,14.57,40.56,40.56,0,0,1-8.91,9.9,34.6,34.6,0,0,1-9.59,5.5l33.18,86.9Zm-2.62-133.65a30.33,30.33,0,0,0-2.06-12.1,20,20,0,0,0-5.37-7.42,17.83,17.83,0,0,0-7.28-3.71,33.5,33.5,0,0,0-7.84-1H335.94V374.6h12.92a24.63,24.63,0,0,0,16.37-5.91Q372.23,362.78,372.24,349.57Z"/><path class="cls-2" d="M584,385.32a160,160,0,0,1-5.23,42.22q-5.22,19.11-14.85,32.58A68.23,68.23,0,0,1,540.4,481,69.29,69.29,0,0,1,478,481a68.14,68.14,0,0,1-23.51-20.9q-9.63-13.47-14.85-32.58a174.46,174.46,0,0,1-.14-84.15q5.08-18.84,14.72-32.18a67.31,67.31,0,0,1,23.51-20.62q13.88-7.29,31.49-7.29a66.12,66.12,0,0,1,31.21,7.29,67.49,67.49,0,0,1,23.51,20.62q9.63,13.35,14.85,32.18A156.86,156.86,0,0,1,584,385.32Zm-45.1,0A135.27,135.27,0,0,0,537,361.81,75.9,75.9,0,0,0,531.32,343a35,35,0,0,0-9.21-12.51,19.71,19.71,0,0,0-12.92-4.54,20.28,20.28,0,0,0-13.07,4.54A34.38,34.38,0,0,0,486.77,343a72.77,72.77,0,0,0-5.5,18.84,145.32,145.32,0,0,0-1.78,23.51A147.73,147.73,0,0,0,481.27,409a72.73,72.73,0,0,0,5.5,19,35.65,35.65,0,0,0,9.35,12.65,19.86,19.86,0,0,0,13.07,4.67,19.3,19.3,0,0,0,12.92-4.67A36.36,36.36,0,0,0,531.32,428,75.78,75.78,0,0,0,537,409,137.51,137.51,0,0,0,538.89,385.32Z"/><path class="cls-2" d="M640.64,461a25,25,0,0,1-6.6,17.6,21.87,21.87,0,0,1-16.78,7.15q-10.46,0-16.91-7.15a25.28,25.28,0,0,1-6.46-17.6,25.93,25.93,0,0,1,6.46-17.6q6.46-7.43,16.91-7.43A21.48,21.48,0,0,1,634,443.35,25.62,25.62,0,0,1,640.64,461Z"/></g></g></svg>