<svg xmlns="http://www.w3.org/2000/svg" viewBox="0 0 927.46 957.54"><defs><style>.cls-1{fill:#f3f0e1;stroke:#f3f0e1;}.cls-1,.cls-10,.cls-11,.cls-12,.cls-13,.cls-14,.cls-15,.cls-16,.cls-17,.cls-18,.cls-19,.cls-2,.cls-20,.cls-21,.cls-3,.cls-4,.cls-5,.cls-6,.cls-7,.cls-8,.cls-9{stroke-miterlimit:10;}.cls-10,.cls-2{fill:none;}.cls-10,.cls-15,.cls-17,.cls-18,.cls-19,.cls-2,.cls-20,.cls-3,.cls-4,.cls-6,.cls-7,.cls-9{stroke:#231f20;}.cls-10,.cls-13,.cls-15,.cls-17,.cls-18,.cls-19,.cls-2,.cls-20,.cls-3,.cls-4,.cls-6,.cls-7,.cls-8,.cls-9{stroke-linecap:round;}.cls-2,.cls-6,.cls-7,.cls-8{stroke-width:2px;}.cls-4,.cls-5{fill:#edeec9;}.cls-11,.cls-12,.cls-13,.cls-14,.cls-16,.cls-21,.cls-5{stroke:#000;}.cls-11,.cls-6,.cls-8{fill:#fff;}.cls-8{stroke:#fff;}.cls-9{fill:#c2c3a5;}.cls-12{fill:#dee5e4;}.cls-13,.cls-14{fill:#cd1731;}.cls-15{fill:#fc9e4f;}.cls-16,.cls-17{fill:#927d6f;}.cls-18{fill:#5d5047;}.cls-19,.cls-21{fill:#766841;}.cls-20{fill:#a16533;}</style></defs><title>red-team</title><g id="Layer_2" data-name="Layer 2"><g id="Layer_1-2" data-name="Layer 1"><circle class="cls-1" cx="465.06" cy="412.91" r="384"/><path class="cls-2" d="M818.55,230.33s-15.22-15.22-30.45,0"/><path class="cls-2" d="M886.62,228.83s-15.23-15.22-30.45,0"/><path class="cls-3" d="M787.36,247.76s-16.42-42.86,6.41-52.95c0,0,68.48-23.13,85.85,0,0,0,17.41,7.82,8.84,55.08"/><path class="cls-4" d="M784.42,249.89s-27.28,8.49,0,30.71Z"/><path class="cls-4" d="M888.46,249.89s27.28,8.49,0,30.71Z"/><path class="cls-5" d="M819.48,373.91V349.42s-37.08-11.89-29.38-62.26l2.1-45.47S784.85,215.8,804.26,199c0,0,33.41,28.68,63.49-4.2,0,0,17.49,9.8,16.09,47.58l.08,42s9.72,53.17-31.56,63.66l.7,25.89S839.93,414.18,819.48,373.91Z"/><circle class="cls-6" cx="803.33" cy="265.24" r="23.7"/><circle class="cls-6" cx="870.37" cy="265.24" r="23.7"/><line class="cls-2" x1="827.03" y1="265.24" x2="846.67" y2="265.24"/><circle class="cls-7" cx="803.33" cy="265.24" r="9.62"/><circle class="cls-8" cx="808.91" cy="262.6" r="2.64"/><circle class="cls-7" cx="871.39" cy="265.24" r="9.62"/><circle class="cls-8" cx="876.98" cy="262.6" r="2.64"/><path class="cls-9" d="M829.5,265.24v34.28s9.1,9.8,14.69,0V265.24Z"/><path class="cls-10" d="M838.27,321.13s9.1,12.59,16.79,0"/><path class="cls-11" d="M809.06,371.65s1-7,8-4c0,0,4,16,20,15,0,0,22-3,17-16,0,0,9-3,7,5,0,0,12,50-24,43S809.06,371.65,809.06,371.65Z"/><path class="cls-12" d="M836.93,529.36l-55.87-2V438.32l.33-43.67c15-18,27.61-22.55,27.61-22.55s-5.53,23.54,27.93,22.54"/><path class="cls-12" d="M833.2,529.36l55.86-2V438.32l-.32-43.67c-15-18-27.61-22.55-27.61-22.55s5.53,23.54-27.93,22.54"/><path class="cls-13" d="M782.71,195.15s-2.58,7.72,0,13.5H889.56s0-13.5-5.15-13.5Z"/><path class="cls-5" d="M781.06,438.65s-29.62,105.92-8.22,188.68l-9,10.35s-36.93-127.12,17.2-244"/><path class="cls-5" d="M888.56,438.65s29.62,105.92,8.23,188.68l9,10.35s36.93-127.12-17.21-244"/><path class="cls-5" d="M761.37,632.5s.63,21,12.67,22,19.52-8.92,19.52-8.92L775.79,622Z"/><path class="cls-5" d="M910.56,632.5s-.63,21-12.67,22-19.52-8.92-19.52-8.92L896.15,622Z"/><rect class="cls-11" x="779.56" y="524.8" width="113" height="9.6"/><polygon class="cls-5" points="863.97 953.15 863.97 669.36 854.06 664.23 854.06 936.87 863.97 953.15"/><polygon class="cls-5" points="816.97 934.04 816.97 664.23 807.06 669.31 807.06 950.15 816.97 934.04"/><path class="cls-14" d="M795.77,933s-33.61-3.1-49.13,18.62h72.42l.3-17.5S806.17,932.91,795.77,933Z"/><path class="cls-14" d="M869.2,684l1.46-95.47c27.44-25.06,17.05-54.13,17.05-54.13H783.22c-1,41.1,19.66,52.13,19.66,52.13l.18,100.66,23-1-.42-88.68c15.52,7.24,21.72,0,21.72,0L845.2,685Z"/><path class="cls-14" d="M877.36,936s33.61-3.1,49.12,18.62H854.06l-.29-17.5S867,935.91,877.36,936Z"/><path class="cls-3" d="M833.06,175.65s-31-39-61,0-11,99-11,99,7,1-6,18l17-12s5.88-58,57.44-94"/><path class="cls-3" d="M814.56,177.65s41.14-39,81,0,14.59,99,14.59,99-9.29,1,8,18l-22.55-12s-7.8-58-76.22-94"/><path class="cls-15" d="M49.36,249.82s-16.42-38.15,6.41-47.13c0,0,68.48-20.6,85.85,0,0,0,17.41,6.95,8.84,49"/><path class="cls-2" d="M80.55,234.31s-15.22-13.56-30.45,0"/><path class="cls-15" d="M49.1,204.22l-10-23s-15,14.24-22-10.69,2-16,10-15.13c0,0-10,16.91-23-2.67s13-42.74,23-26.71c0,0-20-24.93,16-10.68,0,0-13-13.36,7-10.69,0,0,40-43.62,58,0,0,0,21-15.13,16,5.34s-22-16-7-17.8,36-6.23,32,11.57c0,0-7,8-11-5.34s14-26.71,26-8.9c5.72,8.48,7.12,18.36,5.52,25.73-1.77,8.1-7.18,13.14-14.52,9.88-14-6.23,18-25.82,24-11.57s24,25.81-8,34.72,8-10.69,8-10.69,21-3.56,17,8-15,32.93-34,26.7c0,0-11,8.91-20,8.91l3.86,29Z"/><path class="cls-2" d="M148.62,233s-15.23-13.55-30.45,0"/><path class="cls-4" d="M46.42,251.72s-27.28,7.56,0,27.34Z"/><path class="cls-4" d="M150.46,251.72s27.28,7.56,0,27.34Z"/><path class="cls-5" d="M81.48,362.13v-21.8S44.4,329.74,52.1,284.9l2.1-40.48s-7.35-23,12.06-38c0,0,33.41,25.54,63.49-3.73,0,0,17.49,8.72,16.09,42.35l.08,37.37s9.72,47.33-31.56,56.67l.7,23.05S101.93,398,81.48,362.13Z"/><ellipse class="cls-6" cx="65.33" cy="265.39" rx="23.7" ry="21.1"/><ellipse class="cls-6" cx="132.37" cy="265.39" rx="23.7" ry="21.1"/><line class="cls-2" x1="89.03" y1="265.39" x2="108.67" y2="265.39"/><ellipse class="cls-7" cx="65.33" cy="265.39" rx="9.62" ry="8.56"/><ellipse class="cls-8" cx="70.91" cy="263.04" rx="2.64" ry="2.35"/><ellipse class="cls-7" cx="133.39" cy="265.39" rx="9.62" ry="8.56"/><ellipse class="cls-8" cx="138.98" cy="263.04" rx="2.64" ry="2.35"/><path class="cls-9" d="M91.5,265.39v30.52s9.1,8.72,14.69,0V265.39Z"/><path class="cls-10" d="M100.27,315.14s9.1,11.21,16.79,0"/><path class="cls-11" d="M71.06,360.12s1-6.23,8-3.56c0,0,4,14.24,20,13.35,0,0,22-2.67,17-14.24,0,0,9-2.67,7,4.45,0,0,12,44.51-24,38.28S71.06,360.12,71.06,360.12Z"/><path class="cls-12" d="M98.93,500.52l-55.87-1.74V419.47l.33-38.88c15-16,27.61-20.07,27.61-20.07s-5.53,21,27.93,20.07"/><path class="cls-12" d="M95.2,500.52l55.86-1.74V419.47l-.32-38.88c-15-16-27.61-20.07-27.61-20.07s5.53,21-27.93,20.07"/><path class="cls-13" d="M44.71,203s-2.58,6.86,0,12H151.56s0-12-5.15-12Z"/><path class="cls-5" d="M43.06,419.77s-29.62,94.29-8.22,168l-9,9.21S-11.07,483.78,43.06,379.7"/><path class="cls-5" d="M150.56,419.77s29.62,94.29,8.23,168l9,9.21S204.7,483.78,150.56,379.7"/><path class="cls-5" d="M23.37,592.34S24,611.06,36,611.9,55.56,604,55.56,604L37.79,583Z"/><path class="cls-5" d="M172.56,592.34s-.63,18.72-12.67,19.56S140.37,604,140.37,604l17.78-21Z"/><rect class="cls-11" x="41.56" y="496.46" width="113" height="8.55"/><polygon class="cls-5" points="125.97 955.3 125.97 626.54 116.06 620.59 116.06 936.43 125.97 955.3"/><polygon class="cls-5" points="78.97 933.15 78.97 620.59 69.06 626.47 69.06 951.82 78.97 933.15"/><path class="cls-14" d="M57.77,932s-33.61-3.6-49.13,21.57H81.06l.3-20.27A233.12,233.12,0,0,0,57.77,932Z"/><path class="cls-14" d="M131.2,638.16l1.46-85C160.1,530.85,149.71,505,149.71,505H45.22c-1,36.59,19.66,46.41,19.66,46.41L65.06,641l23-.89-.42-79c15.52,6.45,21.72,0,21.72,0l-2.16,77.9Z"/><path class="cls-14" d="M139.36,935.46S173,931.87,188.48,957H116.06l-.29-20.28A233.12,233.12,0,0,1,139.36,935.46Z"/><path class="cls-2" d="M626.55,146.29s-15.22-15.22-30.45,0"/><path class="cls-16" d="M589.06,354.61s-29.62,105.92-8.22,188.68l-9,10.35s-36.93-127.12,17.2-244"/><path class="cls-16" d="M569.37,548.46s.63,21,12.67,22,19.52-8.92,19.52-8.92l-17.77-23.58Z"/><path class="cls-3" d="M654.35,77.85s38.91-9.58,27.63,25.94c0,0-31,35.52-70.48-4.51,0,0-24.24-38.91,9-53C620.52,46.28,656.56,37.46,654.35,77.85Z"/><path class="cls-2" d="M694.62,144.79s-15.23-15.22-30.45,0"/><path class="cls-3" d="M595.36,163.72s-16.42-42.86,6.41-52.95c0,0,68.48-23.13,85.85,0,0,0,17.41,7.82,8.84,55.08"/><path class="cls-17" d="M592.42,165.85s-27.28,8.49,0,30.71Z"/><path class="cls-17" d="M696.46,165.85s27.28,8.49,0,30.71Z"/><path class="cls-16" d="M627.48,289.87V265.38s-37.08-11.89-29.38-62.26l2.1-45.47s-7.35-25.89,12.06-42.68c0,0,33.41,28.68,63.49-4.2,0,0,17.49,9.8,16.09,47.58l.08,42s9.72,53.17-31.56,63.66l.7,25.89S647.93,330.14,627.48,289.87Z"/><circle class="cls-6" cx="611.33" cy="181.2" r="23.7"/><circle class="cls-6" cx="678.37" cy="181.2" r="23.7"/><line class="cls-2" x1="635.03" y1="181.2" x2="654.67" y2="181.2"/><circle class="cls-7" cx="611.33" cy="181.2" r="9.62"/><circle class="cls-8" cx="616.91" cy="178.56" r="2.64"/><circle class="cls-7" cx="679.39" cy="181.2" r="9.62"/><circle class="cls-8" cx="684.98" cy="178.56" r="2.64"/><path class="cls-18" d="M637.5,181.2v34.28s9.1,9.8,14.69,0V181.2Z"/><path class="cls-10" d="M646.27,237.09s9.1,12.59,16.79,0"/><path class="cls-11" d="M617.06,287.61s1-7,8-4c0,0,4,16,20,15,0,0,22-3,17-16,0,0,9-3,7,5,0,0,12,50-24,43S617.06,287.61,617.06,287.61Z"/><path class="cls-12" d="M644.93,445.32l-55.87-2V354.28l.33-43.67c15-18,27.61-22.55,27.61-22.55s-5.53,23.54,27.93,22.54"/><path class="cls-12" d="M641.2,445.32l55.86-2V354.28l-.32-43.67c-15-18-27.61-22.55-27.61-22.55s5.53,23.54-27.93,22.54"/><path class="cls-13" d="M590.71,111.11s-2.58,7.71,0,13.5H697.56s0-13.5-5.15-13.5Z"/><path class="cls-16" d="M696.56,354.61s29.62,105.92,8.23,188.68l9,10.35s36.93-127.12-17.21-244"/><path class="cls-16" d="M718.56,548.46s-.63,21-12.67,22-19.52-8.92-19.52-8.92l17.78-23.58Z"/><rect class="cls-11" x="587.56" y="440.76" width="113" height="9.6"/><polygon class="cls-16" points="671.97 869.11 671.97 585.32 662.06 580.19 662.06 852.83 671.97 869.11"/><polygon class="cls-16" points="624.97 850 624.97 580.19 615.06 585.27 615.06 866.11 624.97 850"/><path class="cls-14" d="M603.77,849s-33.61-3.11-49.13,18.62h72.42l.3-17.5S614.17,848.87,603.77,849Z"/><path class="cls-14" d="M677.2,599.92l1.46-95.47c27.44-25.06,17.05-54.13,17.05-54.13H591.22c-1,41.1,19.66,52.13,19.66,52.13l.18,100.66,23-1-.42-88.68c15.52,7.24,21.72,0,21.72,0l-2.16,87.49Z"/><path class="cls-14" d="M685.36,852s33.61-3.11,49.12,18.62H662.06l-.29-17.5S675,851.87,685.36,852Z"/><path class="cls-17" d="M228.53,132.07s-25.53,8,0,28.74Z"/><path class="cls-17" d="M325.9,132.07s25.53,8,0,28.74Z"/><path class="cls-16" d="M225.39,308.73s-27.72,99.12-7.7,176.58l-8.4,9.68s-34.56-119,16.1-228.38"/><path class="cls-16" d="M326,308.73s27.72,99.12,7.7,176.58l8.39,9.68S376.66,376,326,266.61"/><path class="cls-16" d="M207,490.15s.59,19.67,11.86,20.56,18.27-8.35,18.27-8.35l-16.64-22.07Z"/><path class="cls-2" d="M260.47,113.77s-14.25-14.25-28.49,0"/><path class="cls-2" d="M324.17,112.37s-14.24-14.25-28.49,0"/><path class="cls-3" d="M231.29,130.08s-15.37-40.11,6-49.55c0,0,64.09-21.65,80.35,0,0,0,16.28,7.31,8.27,51.54"/><path class="cls-16" d="M261.34,248.14V225.22s-34.7-11.13-27.49-58.27l2-42.56s-6.88-24.22,11.29-39.93c0,0,31.27,26.84,59.42-3.93,0,0,16.37,9.16,15.06,44.52l.07,39.28s9.09,49.76-29.53,59.58l.65,24.23S280.48,285.83,261.34,248.14Z"/><circle class="cls-6" cx="246.22" cy="146.44" r="22.18"/><circle class="cls-6" cx="308.97" cy="146.44" r="22.18"/><line class="cls-2" x1="268.41" y1="146.44" x2="286.79" y2="146.44"/><circle class="cls-7" cx="246.22" cy="146.44" r="9"/><circle class="cls-8" cx="251.45" cy="143.97" r="2.47"/><circle class="cls-7" cx="309.93" cy="146.44" r="9"/><circle class="cls-8" cx="315.15" cy="143.97" r="2.47"/><path class="cls-18" d="M270.72,146.44v32.08s8.51,9.17,13.75,0V146.44Z"/><path class="cls-10" d="M278.93,198.74s8.51,11.79,15.71,0"/><path class="cls-11" d="M251.59,246s.94-6.55,7.49-3.74c0,0,3.74,15,18.72,14,0,0,20.59-2.81,15.91-15,0,0,8.42-2.8,6.55,4.68,0,0,11.23,46.8-22.46,40.25S251.59,246,251.59,246Z"/><path class="cls-12" d="M277.67,393.62l-52.28-1.83V308.41l.31-40.86c14-16.85,25.83-21.1,25.83-21.1s-5.17,22,26.14,21.09"/><path class="cls-12" d="M274.18,393.62l52.28-1.83V308.41l-.3-40.86c-14-16.85-25.84-21.1-25.84-21.1s5.17,22-26.14,21.09"/><path class="cls-13" d="M226.93,80.84s-2.41,7.22,0,12.64h100s0-12.64-4.82-12.64Z"/><path class="cls-16" d="M346.58,490.15s-.59,19.67-11.85,20.56-18.27-8.35-18.27-8.35l16.63-22.07Z"/><rect class="cls-11" x="223.99" y="389.35" width="105.75" height="8.99"/><polygon class="cls-16" points="302.98 871.7 302.98 526.09 293.71 519.84 293.71 851.87 302.98 871.7"/><polygon class="cls-16" points="258.99 848.42 258.99 519.84 249.72 526.03 249.72 868.04 258.99 848.42"/><path class="cls-14" d="M239.15,847.19s-31.45-3.78-46,22.68H261l.28-21.31A193.36,193.36,0,0,0,239.15,847.19Z"/><path class="cls-14" d="M307.88,538.31,309.24,449c25.68-23.46,16-50.66,16-50.66H227.41c-1,38.46,18.39,48.78,18.39,48.78l.18,94.21,21.52-.94-.4-83c14.53,6.78,20.34,0,20.34,0l-2,81.88Z"/><path class="cls-14" d="M315.51,850.85s31.45-3.78,46,22.67H293.71l-.28-21.31A194.48,194.48,0,0,1,315.51,850.85Z"/><path class="cls-2" d="M429.94,55.35s-16.16-18.23-32.31,0"/><path class="cls-2" d="M502.17,53.55s-16.15-18.23-32.31,0"/><path class="cls-19" d="M396.84,76.21s-17.43-51.32,6.8-63.4c0,0,72.68-27.7,91.11,0,0,0,18.47,9.36,9.38,66"/><path class="cls-4" d="M393.72,78.77s-29,10.16,0,36.77Z"/><path class="cls-4" d="M504.13,78.77s29,10.16,0,36.77Z"/><path class="cls-5" d="M430.93,227.29V198s-39.35-14.24-31.19-74.56L402,68.94s-7.8-31,12.81-51.1c0,0,35.45,34.35,67.38-5,0,0,18.56,11.73,17.07,57l.09,50.27s10.31,63.67-33.5,76.24l.74,31S452.63,275.51,430.93,227.29Z"/><ellipse class="cls-6" cx="413.78" cy="97.16" rx="25.15" ry="28.38"/><ellipse class="cls-6" cx="484.93" cy="97.16" rx="25.15" ry="28.38"/><line class="cls-2" x1="438.94" y1="97.16" x2="459.78" y2="97.16"/><ellipse class="cls-7" cx="413.78" cy="97.16" rx="10.21" ry="11.52"/><ellipse class="cls-8" cx="419.71" cy="93.99" rx="2.8" ry="3.16"/><ellipse class="cls-7" cx="486.02" cy="97.16" rx="10.21" ry="11.52"/><ellipse class="cls-8" cx="491.95" cy="93.99" rx="2.8" ry="3.16"/><path class="cls-9" d="M441.56,97.16v41.05s9.65,11.73,15.59,0V97.16Z"/><path class="cls-10" d="M450.87,164.08s9.65,15.08,17.82,0"/><path class="cls-11" d="M419.87,224.58s1.06-8.38,8.49-4.79c0,0,4.25,19.16,21.23,18,0,0,23.34-3.6,18-19.17,0,0,9.55-3.59,7.43,6,0,0,12.73,59.88-25.47,51.5S419.87,224.58,419.87,224.58Z"/><path class="cls-12" d="M449.45,413.44l-59.29-2.34V304.42l.34-52.29c15.92-21.56,29.3-27,29.3-27s-5.86,28.19,29.65,27"/><path class="cls-12" d="M445.48,413.44l59.29-2.34V304.42l-.35-52.29c-15.91-21.56-29.29-27-29.29-27s5.86,28.19-29.65,27"/><path class="cls-13" d="M391.9,13.22s-2.73,9.23,0,16.16H505.3s0-16.16-5.46-16.16Z"/><path class="cls-5" d="M390.16,304.82s-31.44,126.84-8.74,226l-9.52,12.39s-39.19-152.23,18.26-292.23"/><path class="cls-5" d="M504.24,304.82s31.44,126.84,8.73,226l9.53,12.39s39.19-152.23-18.26-292.23"/><path class="cls-5" d="M369.26,537s.67,25.18,13.45,26.31,20.71-10.68,20.71-10.68l-18.86-28.24Z"/><path class="cls-5" d="M527.59,537s-.67,25.18-13.45,26.31-20.71-10.68-20.71-10.68l18.86-28.24Z"/><rect class="cls-11" x="388.57" y="407.99" width="119.92" height="11.5"/><polygon class="cls-5" points="478.14 920.95 478.14 581.1 467.63 574.96 467.63 901.45 478.14 920.95"/><polygon class="cls-5" points="428.26 898.06 428.26 574.96 417.75 581.04 417.75 917.36 428.26 898.06"/><path class="cls-14" d="M405.76,896.86s-35.66-3.72-52.13,22.3h76.85l.32-21S416.8,896.71,405.76,896.86Z"/><path class="cls-14" d="M483.69,598.59l1.55-114.33c29.12-30,18.1-64.83,18.1-64.83H392.44c-1.09,49.22,20.87,62.43,20.87,62.43l.19,120.55,24.41-1.2L437.46,495c16.47,8.67,23.06,0,23.06,0l-2.3,104.78Z"/><path class="cls-14" d="M492.35,900.45s35.67-3.72,52.13,22.3H467.63l-.32-21S481.31,900.3,492.35,900.45Z"/><ellipse class="cls-20" cx="431.55" cy="128.78" rx="1.06" ry="1.2"/><ellipse class="cls-20" cx="423.06" cy="137.16" rx="1.06" ry="1.2"/><ellipse class="cls-20" cx="432.61" cy="138.36" rx="1.06" ry="1.2"/><ellipse class="cls-20" cx="416.69" cy="141.95" rx="1.06" ry="1.2"/><ellipse class="cls-20" cx="424.12" cy="147.94" rx="1.06" ry="1.2"/><ellipse class="cls-20" cx="405.01" cy="135.96" rx="1.06" ry="1.2"/><ellipse class="cls-20" cx="409.26" cy="146.74" rx="1.06" ry="1.2"/><ellipse class="cls-20" cx="413.5" cy="133.57" rx="1.06" ry="1.2"/><ellipse class="cls-20" cx="465.51" cy="128.78" rx="1.06" ry="1.2"/><ellipse class="cls-20" cx="474" cy="137.16" rx="1.06" ry="1.2"/><ellipse class="cls-20" cx="464.44" cy="138.36" rx="1.06" ry="1.2"/><ellipse class="cls-20" cx="480.36" cy="141.95" rx="1.06" ry="1.2"/><ellipse class="cls-20" cx="472.93" cy="147.94" rx="1.06" ry="1.2"/><ellipse class="cls-20" cx="492.04" cy="135.96" rx="1.06" ry="1.2"/><ellipse class="cls-20" cx="487.79" cy="146.74" rx="1.06" ry="1.2"/><ellipse class="cls-20" cx="483.55" cy="133.57" rx="1.06" ry="1.2"/><path class="cls-21" d="M422.3,165.62s-6.64-21.13,25.36-21.81,27.18,17.72,27.18,17.72"/></g></g></svg>