<svg xmlns="http://www.w3.org/2000/svg" viewBox="0 0 395 492.13"><defs><style>.cls-1{fill:#f3f0e1;stroke:#f3f0e1;}.cls-1,.cls-10,.cls-11,.cls-12,.cls-13,.cls-14,.cls-2,.cls-3,.cls-4,.cls-5,.cls-6,.cls-7,.cls-8,.cls-9{stroke-miterlimit:10;}.cls-12,.cls-2,.cls-6,.cls-9{fill:#fff;}.cls-12,.cls-2{stroke:#fff;}.cls-10,.cls-11,.cls-13,.cls-14,.cls-3,.cls-4,.cls-9{stroke:#231f20;}.cls-10,.cls-11,.cls-12,.cls-13,.cls-14,.cls-3,.cls-4,.cls-9{stroke-linecap:round;}.cls-4,.cls-8{fill:#edeec9;}.cls-5{fill:#7cbdff;}.cls-5,.cls-6,.cls-7,.cls-8{stroke:#000;}.cls-7{fill:#dee5e4;}.cls-10,.cls-11,.cls-12,.cls-9{stroke-width:2px;}.cls-10,.cls-14{fill:none;}.cls-13{fill:#c2c3a5;}.cls-15{font-size:9px;font-family:MyriadPro-Bold, Myriad Pro;font-weight:700;}</style></defs><title>team-member_1</title><g id="Layer_2" data-name="Layer 2"><g id="Layer_1-2" data-name="Layer 1"><circle class="cls-1" cx="197.5" cy="259.19" r="197"/><ellipse class="cls-2" cx="195.44" cy="164.9" rx="17.5" ry="8"/><path class="cls-3" d="M164.15,72.05s-10.56-27.56,4.12-34c0,0,44-14.88,55.21,0,0,0,11.19,5,5.68,35.42"/><path class="cls-4" d="M162.26,73.42s-17.55,5.46,0,19.75Z"/><path class="cls-4" d="M229.16,73.42s17.55,5.46,0,19.75Z"/><path class="cls-5" d="M162.13,264.74h67.2s6.68,19.29-11,35.92v179s21.61-2,31.59,12H203.38V305.32s-4,4.66-14,0V491.63H142.17S157.47,477,174.77,481V299.33S161.46,292,162.13,264.74Z"/><rect class="cls-6" x="162.46" y="257.3" width="67.2" height="6.18"/><path class="cls-7" d="M198.39,257.66l-35.93-1.26V199.11s-35.93,62.54-3.33,115.77l-13.67,6.65s-47.54-89.82,35-165c0,0,3.33,16.64,18,14.64"/><path class="cls-7" d="M193.73,257.66l35.93-1.26V199.11s35.93,62.54,3.33,115.77l13.67,6.65s47.54-89.82-35-165c0,0-3.33,16.64-18,14.64"/><path class="cls-6" d="M181.64,160.31s-3.27-7.78,3.93-6.43c0,0,9,24.43,22-.15,0,0,5.71-1.09,2.41,7.63"/><path class="cls-8" d="M148.47,319.81s-.9,13.49,6.75,14.84,13.05-4.5,13.05-4.5L158.36,314Z"/><path class="cls-8" d="M243,319.81s.9,13.49-6.75,14.84-13-4.5-13-4.5L233.06,314Z"/><path class="cls-8" d="M184.8,153.18V137.44s-23.84-7.65-18.89-40l1.35-29.24S162.53,51.5,175,40.7c0,0,21.48,18.45,40.83-2.7,0,0,11.25,6.3,10.35,30.6l.05,27s6.25,34.2-20.3,40.95l.45,16.64S198,179.08,184.8,153.18Z"/><circle class="cls-9" cx="174.41" cy="83.3" r="15.24"/><circle class="cls-9" cx="217.53" cy="83.3" r="15.24"/><line class="cls-10" x1="189.66" y1="83.3" x2="202.29" y2="83.3"/><circle class="cls-11" cx="174.41" cy="83.3" r="6.19"/><circle class="cls-12" cx="178.01" cy="81.6" r="1.7"/><circle class="cls-11" cx="218.19" cy="83.3" r="6.19"/><circle class="cls-12" cx="221.78" cy="81.6" r="1.7"/><path class="cls-13" d="M191.25,83.3v22s5.85,6.3,9.45,0v-22Z"/><path class="cls-14" d="M196.89,119.24s5.85,8.1,10.8,0"/><path class="cls-3" d="M198.23,21.33S223.25,15.17,216,38c0,0-19.95,22.85-45.33-2.9,0,0-15.6-25,5.8-34.09C176.47,1,199.65-4.65,198.23,21.33Z"/><path class="cls-10" d="M184.2,60.85s-9.79-9.8-19.58,0"/><path class="cls-10" d="M228,59.88s-9.79-9.79-19.58,0"/><rect class="cls-6" x="199.94" y="191.13" width="23" height="13"/><text class="cls-15" transform="translate(201.6 200.63)">BOB</text></g></g></svg>