<svg xmlns="http://www.w3.org/2000/svg" viewBox="0 0 355 355"><defs><style>.cls-1{fill:#f3f0e1;}.cls-2{fill:#fff;stroke:#fff;}.cls-2,.cls-3,.cls-4{stroke-miterlimit:10;}.cls-3{fill:#45b9fd;stroke:#45b9fd;}.cls-4{stroke:#000;}</style></defs><title>brain-alien</title><g id="Layer_2" data-name="Layer 2"><g id="Layer_1-2" data-name="Layer 1"><circle class="cls-1" cx="177.5" cy="177.5" r="177"/><path class="cls-1" d="M177.5,1A176.49,176.49,0,0,1,302.3,302.3,176.49,176.49,0,1,1,52.7,52.7,175.32,175.32,0,0,1,177.5,1m0-1A177.5,177.5,0,1,0,355,177.5,177.5,177.5,0,0,0,177.5,0Z"/><path class="cls-2" d="M84.73,296.29H270.27V132.15s-73.74-157-185.54-11.89Z"/><path class="cls-3" d="M99,274.88V151.18s16.65-42.81,69,0c0,0,30.92-2.38,26.16,9.52,0,0,9.52-21.41,26.17,0,0,0,23.78-30.93,40.44-4.76V274.88Z"/><path class="cls-2" d="M137.06,184.3H222.7s0,33.3-42.82,38.06S137.06,184.3,137.06,184.3Z"/><path class="cls-4" d="M158.47,184.3h42.82s0,16.65-21.41,19S158.47,184.3,158.47,184.3Z"/><circle class="cls-3" cx="144.2" cy="89.34" r="7.14"/><circle class="cls-3" cx="187.01" cy="79.82" r="9.51"/><circle class="cls-3" cx="182.26" cy="110.74" r="14.27"/><circle class="cls-3" cx="106.14" cy="117.88" r="7.14"/><circle class="cls-3" cx="138.25" cy="121.45" r="10.7"/><circle class="cls-3" cx="221.51" cy="100.04" r="10.7"/><circle class="cls-3" cx="214.37" cy="128.58" r="3.57"/><circle class="cls-3" cx="251.24" cy="134.53" r="9.51"/><circle class="cls-3" cx="166.2" cy="139.88" r="7.73"/><circle class="cls-3" cx="189.69" cy="137.21" r="2.68"/></g></g></svg>