<svg xmlns="http://www.w3.org/2000/svg" viewBox="0 0 778.06 778.06"><defs><style>.cls-1{fill:#f3f0e1;stroke:#f3f0e1;stroke-miterlimit:10;}.cls-2{font-size:275px;fill:#fff;font-family:AvenirNextCondensed-Bold, Avenir Next Condensed;font-weight:700;}.cls-3{letter-spacing:-0.05em;}.cls-4{letter-spacing:-0.03em;}</style></defs><title>Brogrammers</title><g id="Layer_2" data-name="Layer 2"><g id="Layer_1-2" data-name="Layer 1"><circle class="cls-1" cx="389.03" cy="389.03" r="388.53"/><path d="M389,691.49a302.5,302.5,0,0,1-213.9-516.4,302.5,302.5,0,0,1,427.8,427.8A300.49,300.49,0,0,1,389,691.49Z"/><path d="M389,87a301,301,0,1,1-117.55,23.73A300.23,300.23,0,0,1,389,87m0-1C221.66,86,86,221.65,86,389S221.66,692,389,692,692,556.33,692,389,556.34,86,389,86Z"/><text class="cls-2" transform="translate(126.67 483.22)">BR<tspan class="cls-3" x="298.37" y="0">O</tspan><tspan class="cls-4" x="453.47" y="0">.</tspan></text></g></g></svg>