<svg xmlns="http://www.w3.org/2000/svg" viewBox="0 0 778.06 778.06"><defs><style>.cls-1{fill:#f3f0e1;stroke:#f3f0e1;}.cls-1,.cls-2,.cls-3,.cls-4{stroke-miterlimit:10;}.cls-2{fill:none;}.cls-2,.cls-3,.cls-4{stroke:#000;stroke-width:4px;}.cls-3,.cls-5{fill:#fff;}</style></defs><title>new-sql</title><g id="Layer_2" data-name="Layer 2"><g id="Layer_1-2" data-name="Layer 1"><circle class="cls-1" cx="389.03" cy="389.03" r="388.53"/><line class="cls-2" x1="262.03" y1="522.51" x2="134.4" y2="660.22"/><rect class="cls-3" x="496.25" y="188.44" width="113.21" height="40.87" transform="translate(23.86 472.38) rotate(-47.18)"/><rect class="cls-3" x="492.44" y="177.83" width="31.48" height="158.5" rx="12" ry="12" transform="translate(-25.8 455.06) rotate(-47.18)"/><rect class="cls-3" x="243.44" y="488.71" width="67.37" height="35.34" rx="12" ry="12" transform="translate(-282.65 365.43) rotate(-47.18)"/><path class="cls-3" d="M259.81,441.39s33,55.41,83.44,77.33l196-211.44L455.77,230Z"/><rect class="cls-3" x="583.71" y="104.22" width="17.12" height="124.26" transform="translate(67.67 487.67) rotate(-47.18)"/><path class="cls-4" d="M281.46,439.78s22.36,42.94,61.5,57L518.22,307.66l-61.49-57Z"/><path class="cls-5" d="M342.42,408.45a13.68,13.68,0,0,0-5.64.94,12.27,12.27,0,0,0-4.57,3.11,8.16,8.16,0,0,0-2.21,5.07c-.15,2,.8,3.9,2.86,5.81a6.88,6.88,0,0,0,5.68,2,38.72,38.72,0,0,0,8-2.17q2.72-1,6-1.92a24.93,24.93,0,0,1,6.78-.89,22.06,22.06,0,0,1,7.24,1.31,21.43,21.43,0,0,1,7.36,4.68,28.18,28.18,0,0,1,6.62,8.8,21.8,21.8,0,0,1,2.12,9.13,22.21,22.21,0,0,1-1.78,8.76,26.39,26.39,0,0,1-4.94,7.63,29.81,29.81,0,0,1-10.43,7.44,30.62,30.62,0,0,1-10.61,2.58l-3.47-15.26a19.83,19.83,0,0,0,6.92-1.37,14.8,14.8,0,0,0,5.61-3.76,7.4,7.4,0,0,0,2.09-5.26,7.53,7.53,0,0,0-2.73-5.46,7.45,7.45,0,0,0-6.14-2.16,37.93,37.93,0,0,0-8.56,2.34,48.74,48.74,0,0,1-6.43,2,22.06,22.06,0,0,1-6.54.55,19.71,19.71,0,0,1-6.65-1.69,25.09,25.09,0,0,1-6.81-4.7,25.88,25.88,0,0,1-6.59-9,21.46,21.46,0,0,1-1.76-9.11,22.58,22.58,0,0,1,2-8.46,25.85,25.85,0,0,1,4.64-7.07,29.31,29.31,0,0,1,9.11-6.83,23.63,23.63,0,0,1,9.71-2.31Z"/><path class="cls-5" d="M414.71,415.84a27,27,0,0,1-10.17,7.09,25.15,25.15,0,0,1-11.72,1.47,35.38,35.38,0,0,1-12.73-4.08,62.12,62.12,0,0,1-13.2-9.6,60.82,60.82,0,0,1-10.62-12.63,38.06,38.06,0,0,1-5.17-12.79,27,27,0,0,1,.41-12.25A27.27,27.27,0,0,1,368,355.24a27,27,0,0,1,12.07-1.3A37.59,37.59,0,0,1,393,358.06a59.81,59.81,0,0,1,13,9.34,42.12,42.12,0,0,1,5.17,5.75,50.46,50.46,0,0,1,4,6.21,29.15,29.15,0,0,1,2.47,5.89,14.2,14.2,0,0,1,.64,4.85l.32.29,7.95-9.22,10.9,10.1Zm-19.89-35.18a52,52,0,0,0-7.17-5.61,29.29,29.29,0,0,0-6.84-3.33,13.14,13.14,0,0,0-6-.58,7.91,7.91,0,0,0-4.67,2.5,8,8,0,0,0-2.21,4.93,13,13,0,0,0,1,5.95,29.28,29.28,0,0,0,3.8,6.53,51.87,51.87,0,0,0,6.18,6.75,51.31,51.31,0,0,0,7.17,5.62,29.1,29.1,0,0,0,6.84,3.33,13.45,13.45,0,0,0,6.05.61,8.16,8.16,0,0,0,6.92-7.53,14.08,14.08,0,0,0-1.16-6.07,28.35,28.35,0,0,0-3.88-6.53A54.37,54.37,0,0,0,394.82,380.66Z"/><path class="cls-5" d="M442.67,385.67l-55.92-51.83L398.61,321l44.23,41,13.84-14.93,11.68,10.83Z"/><path class="cls-5" d="M478.73,333.93a9.79,9.79,0,0,1,3.3,6.58,9.18,9.18,0,0,1-9,9.67,9.87,9.87,0,0,1-6.77-2.83,10.15,10.15,0,0,1-3.34-6.54,8.93,8.93,0,0,1,9-9.67A10,10,0,0,1,478.73,333.93Z"/></g></g></svg>