<svg xmlns="http://www.w3.org/2000/svg" viewBox="0 0 355 355"><defs><style>.cls-1{fill:#f3f0e1;}.cls-2{fill:#fff;stroke:#fff;}.cls-2,.cls-3,.cls-4,.cls-5{stroke-miterlimit:10;}.cls-3{stroke:#000;}.cls-4,.cls-5{fill:#e7f6fe;stroke:#e7f6fe;}.cls-4{opacity:0.49;}</style></defs><title>Robot</title><g id="Layer_2" data-name="Layer 2"><g id="Layer_1-2" data-name="Layer 1"><circle class="cls-1" cx="177.5" cy="177.5" r="177"/><path class="cls-1" d="M177.5,1A176.49,176.49,0,0,1,302.3,302.3,176.49,176.49,0,1,1,52.7,52.7,175.32,175.32,0,0,1,177.5,1m0-1A177.5,177.5,0,1,0,355,177.5,177.5,177.5,0,0,0,177.5,0Z"/><path class="cls-2" d="M262.81,202.75c0,47.11-14.09,85.31-84.47,85.31s-86.15-38.2-86.15-85.31,15.77-85.31,86.15-85.31S262.81,155.64,262.81,202.75Z"/><path class="cls-2" d="M177.5,66.94a20.44,20.44,0,1,0,20.44,20.44A20.44,20.44,0,0,0,177.5,66.94Zm0,30.74a10.3,10.3,0,1,1,10.3-10.3A10.3,10.3,0,0,1,177.5,97.68Z"/><rect class="cls-2" x="170.91" y="97.68" width="13.18" height="39.54"/><path class="cls-3" d="M108,182.46v38.68c0,6.18,5,11.53,12,12.9,23.49,4.58,77.22,12.35,122.12-1,2.93-.88,4.94-3.22,4.94-5.89V176.58c0-2.92-2.36-5.44-5.69-6.05a373.58,373.58,0,0,0-120.57-1.17C113.38,170.54,108,176,108,182.46Z"/><circle class="cls-4" cx="212.98" cy="202.75" r="16.89"/><circle class="cls-5" cx="212.98" cy="202.75" r="9.68"/><circle class="cls-4" cx="140.18" cy="202.75" r="16.89"/><circle class="cls-5" cx="140.18" cy="202.75" r="9.68"/></g></g></svg>